<?xml version="1.0" encoding="utf-8" standalone="no"?>
<!DOCTYPE svg PUBLIC "-//W3C//DTD SVG 1.1//EN"
  "http://www.w3.org/Graphics/SVG/1.1/DTD/svg11.dtd">
<!-- Created with matplotlib (https://matplotlib.org/) -->
<svg height="414.72pt" version="1.1" viewBox="0 0 609.12 414.72" width="609.12pt" xmlns="http://www.w3.org/2000/svg" xmlns:xlink="http://www.w3.org/1999/xlink">
 <defs>
  <style type="text/css">
*{stroke-linecap:butt;stroke-linejoin:round;}
  </style>
 </defs>
 <g id="figure_1">
  <g id="patch_1">
   <path d="M 0 414.72 
L 609.12 414.72 
L 609.12 0 
L 0 0 
z
" style="fill:#ffffff;"/>
  </g>
  <g id="axes_1">
   <g id="patch_2">
    <path d="M 76.14 362.88 
L 548.208 362.88 
L 548.208 49.7664 
L 76.14 49.7664 
z
" style="fill:#ffffff;"/>
   </g>
   <g id="line2d_1">
    <path clip-path="url(#p0ca13482d1)" d="M 162.87773 183.638314 
L 180.562611 122.796601 
" style="fill:none;stroke:#a9a9a9;stroke-linecap:square;stroke-opacity:0.25;"/>
   </g>
   <g id="line2d_2">
    <path clip-path="url(#p0ca13482d1)" d="M 162.87773 183.638314 
L 172.83741 192.672563 
" style="fill:none;stroke:#a9a9a9;stroke-linecap:square;stroke-opacity:0.25;"/>
   </g>
   <g id="line2d_3">
    <path clip-path="url(#p0ca13482d1)" d="M 162.87773 183.638314 
L 182.483771 144.932945 
" style="fill:none;stroke:#a9a9a9;stroke-linecap:square;stroke-opacity:0.25;"/>
   </g>
   <g id="line2d_4">
    <path clip-path="url(#p0ca13482d1)" d="M 162.87773 183.638314 
L 168.013504 134.959499 
" style="fill:none;stroke:#a9a9a9;stroke-linecap:square;stroke-opacity:0.25;"/>
   </g>
   <g id="line2d_5">
    <path clip-path="url(#p0ca13482d1)" d="M 162.87773 183.638314 
L 168.689373 149.316954 
" style="fill:none;stroke:#a9a9a9;stroke-linecap:square;stroke-opacity:0.25;"/>
   </g>
   <g id="line2d_6">
    <path clip-path="url(#p0ca13482d1)" d="M 162.87773 183.638314 
L 154.925975 147.301491 
" style="fill:none;stroke:#a9a9a9;stroke-linecap:square;stroke-opacity:0.25;"/>
   </g>
   <g id="line2d_7">
    <path clip-path="url(#p0ca13482d1)" d="M 162.87773 183.638314 
L 180.538249 127.711631 
" style="fill:none;stroke:#a9a9a9;stroke-linecap:square;stroke-opacity:0.25;"/>
   </g>
   <g id="line2d_8">
    <path clip-path="url(#p0ca13482d1)" d="M 162.87773 183.638314 
L 165.086064 174.812985 
" style="fill:none;stroke:#a9a9a9;stroke-linecap:square;stroke-opacity:0.25;"/>
   </g>
   <g id="line2d_9">
    <path clip-path="url(#p0ca13482d1)" d="M 162.87773 183.638314 
L 179.050655 152.893035 
" style="fill:none;stroke:#a9a9a9;stroke-linecap:square;stroke-opacity:0.25;"/>
   </g>
   <g id="line2d_10">
    <path clip-path="url(#p0ca13482d1)" d="M 162.87773 183.638314 
L 170.515591 151.862341 
" style="fill:none;stroke:#a9a9a9;stroke-linecap:square;stroke-opacity:0.25;"/>
   </g>
   <g id="line2d_11">
    <path clip-path="url(#p0ca13482d1)" d="M 162.87773 183.638314 
L 171.70139 190.15692 
" style="fill:none;stroke:#a9a9a9;stroke-linecap:square;stroke-opacity:0.25;"/>
   </g>
   <g id="line2d_12">
    <path clip-path="url(#p0ca13482d1)" d="M 162.87773 183.638314 
L 172.219781 181.468098 
" style="fill:none;stroke:#a9a9a9;stroke-linecap:square;stroke-opacity:0.25;"/>
   </g>
   <g id="line2d_13">
    <path clip-path="url(#p0ca13482d1)" d="M 162.87773 183.638314 
L 173.016744 185.391526 
" style="fill:none;stroke:#a9a9a9;stroke-linecap:square;stroke-opacity:0.25;"/>
   </g>
   <g id="line2d_14">
    <path clip-path="url(#p0ca13482d1)" d="M 162.87773 183.638314 
L 172.854425 187.792797 
" style="fill:none;stroke:#a9a9a9;stroke-linecap:square;stroke-opacity:0.25;"/>
   </g>
   <g id="line2d_15">
    <path clip-path="url(#p0ca13482d1)" d="M 162.87773 183.638314 
L 167.81087 150.651213 
" style="fill:none;stroke:#a9a9a9;stroke-linecap:square;stroke-opacity:0.25;"/>
   </g>
   <g id="line2d_16">
    <path clip-path="url(#p0ca13482d1)" d="M 162.87773 183.638314 
L 178.577926 151.792479 
" style="fill:none;stroke:#a9a9a9;stroke-linecap:square;stroke-opacity:0.25;"/>
   </g>
   <g id="line2d_17">
    <path clip-path="url(#p0ca13482d1)" d="M 314.32652 169.871592 
L 317.58049 129.233638 
" style="fill:none;stroke:#a9a9a9;stroke-linecap:square;stroke-opacity:0.25;"/>
   </g>
   <g id="line2d_18">
    <path clip-path="url(#p0ca13482d1)" d="M 314.32652 169.871592 
L 340.201106 185.429874 
" style="fill:none;stroke:#a9a9a9;stroke-linecap:square;stroke-opacity:0.25;"/>
   </g>
   <g id="line2d_19">
    <path clip-path="url(#p0ca13482d1)" d="M 314.32652 169.871592 
L 345.266572 148.353626 
" style="fill:none;stroke:#a9a9a9;stroke-linecap:square;stroke-opacity:0.25;"/>
   </g>
   <g id="line2d_20">
    <path clip-path="url(#p0ca13482d1)" d="M 314.32652 169.871592 
L 357.258135 187.553974 
" style="fill:none;stroke:#a9a9a9;stroke-linecap:square;stroke-opacity:0.25;"/>
   </g>
   <g id="line2d_21">
    <path clip-path="url(#p0ca13482d1)" d="M 314.32652 169.871592 
L 341.015659 147.984523 
" style="fill:none;stroke:#a9a9a9;stroke-linecap:square;stroke-opacity:0.25;"/>
   </g>
   <g id="line2d_22">
    <path clip-path="url(#p0ca13482d1)" d="M 314.32652 169.871592 
L 349.695703 157.826553 
" style="fill:none;stroke:#a9a9a9;stroke-linecap:square;stroke-opacity:0.25;"/>
   </g>
   <g id="line2d_23">
    <path clip-path="url(#p0ca13482d1)" d="M 314.32652 169.871592 
L 316.562235 129.821822 
" style="fill:none;stroke:#a9a9a9;stroke-linecap:square;stroke-opacity:0.25;"/>
   </g>
   <g id="line2d_24">
    <path clip-path="url(#p0ca13482d1)" d="M 314.32652 169.871592 
L 305.229358 130.254802 
" style="fill:none;stroke:#a9a9a9;stroke-linecap:square;stroke-opacity:0.25;"/>
   </g>
   <g id="line2d_25">
    <path clip-path="url(#p0ca13482d1)" d="M 314.32652 169.871592 
L 315.146959 120.462305 
" style="fill:none;stroke:#a9a9a9;stroke-linecap:square;stroke-opacity:0.25;"/>
   </g>
   <g id="line2d_26">
    <path clip-path="url(#p0ca13482d1)" d="M 314.32652 169.871592 
L 314.741519 183.810748 
" style="fill:none;stroke:#a9a9a9;stroke-linecap:square;stroke-opacity:0.25;"/>
   </g>
   <g id="line2d_27">
    <path clip-path="url(#p0ca13482d1)" d="M 302.901482 211.083207 
L 298.499321 135.326527 
" style="fill:none;stroke:#a9a9a9;stroke-linecap:square;stroke-opacity:0.25;"/>
   </g>
   <g id="line2d_28">
    <path clip-path="url(#p0ca13482d1)" d="M 302.901482 211.083207 
L 323.270988 160.987834 
" style="fill:none;stroke:#a9a9a9;stroke-linecap:square;stroke-opacity:0.25;"/>
   </g>
   <g id="line2d_29">
    <path clip-path="url(#p0ca13482d1)" d="M 302.901482 211.083207 
L 337.011119 169.458704 
" style="fill:none;stroke:#a9a9a9;stroke-linecap:square;stroke-opacity:0.25;"/>
   </g>
   <g id="line2d_30">
    <path clip-path="url(#p0ca13482d1)" d="M 302.901482 211.083207 
L 323.743918 170.57916 
" style="fill:none;stroke:#a9a9a9;stroke-linecap:square;stroke-opacity:0.25;"/>
   </g>
   <g id="line2d_31">
    <path clip-path="url(#p0ca13482d1)" d="M 302.901482 211.083207 
L 322.979712 205.891857 
" style="fill:none;stroke:#a9a9a9;stroke-linecap:square;stroke-opacity:0.25;"/>
   </g>
   <g id="line2d_32">
    <path clip-path="url(#p0ca13482d1)" d="M 302.901482 211.083207 
L 330.851968 163.855936 
" style="fill:none;stroke:#a9a9a9;stroke-linecap:square;stroke-opacity:0.25;"/>
   </g>
   <g id="line2d_33">
    <path clip-path="url(#p0ca13482d1)" d="M 302.901482 211.083207 
L 247.609426 114.052734 
" style="fill:none;stroke:#a9a9a9;stroke-linecap:square;stroke-opacity:0.25;"/>
   </g>
   <g id="line2d_34">
    <path clip-path="url(#p0ca13482d1)" d="M 302.901482 211.083207 
L 337.145893 164.619135 
" style="fill:none;stroke:#a9a9a9;stroke-linecap:square;stroke-opacity:0.25;"/>
   </g>
   <g id="line2d_35">
    <path clip-path="url(#p0ca13482d1)" d="M 302.901482 211.083207 
L 238.842025 119.826074 
" style="fill:none;stroke:#a9a9a9;stroke-linecap:square;stroke-opacity:0.25;"/>
   </g>
   <g id="line2d_36">
    <path clip-path="url(#p0ca13482d1)" d="M 302.901482 211.083207 
L 322.51141 254.870196 
" style="fill:none;stroke:#a9a9a9;stroke-linecap:square;stroke-opacity:0.25;"/>
   </g>
   <g id="line2d_37">
    <path clip-path="url(#p0ca13482d1)" d="M 303.555184 240.089017 
L 334.806344 293.945071 
" style="fill:none;stroke:#a9a9a9;stroke-linecap:square;stroke-opacity:0.25;"/>
   </g>
   <g id="line2d_38">
    <path clip-path="url(#p0ca13482d1)" d="M 303.555184 240.089017 
L 291.623032 228.935813 
" style="fill:none;stroke:#a9a9a9;stroke-linecap:square;stroke-opacity:0.25;"/>
   </g>
   <g id="line2d_39">
    <path clip-path="url(#p0ca13482d1)" d="M 303.555184 240.089017 
L 327.581419 267.082568 
" style="fill:none;stroke:#a9a9a9;stroke-linecap:square;stroke-opacity:0.25;"/>
   </g>
   <g id="line2d_40">
    <path clip-path="url(#p0ca13482d1)" d="M 303.555184 240.089017 
L 313.043214 278.218944 
" style="fill:none;stroke:#a9a9a9;stroke-linecap:square;stroke-opacity:0.25;"/>
   </g>
   <g id="line2d_41">
    <path clip-path="url(#p0ca13482d1)" d="M 303.555184 240.089017 
L 308.582327 236.335687 
" style="fill:none;stroke:#a9a9a9;stroke-linecap:square;stroke-opacity:0.25;"/>
   </g>
   <g id="line2d_42">
    <path clip-path="url(#p0ca13482d1)" d="M 303.555184 240.089017 
L 367.071523 275.773316 
" style="fill:none;stroke:#a9a9a9;stroke-linecap:square;stroke-opacity:0.25;"/>
   </g>
   <g id="line2d_43">
    <path clip-path="url(#p0ca13482d1)" d="M 303.555184 240.089017 
L 322.330517 292.914214 
" style="fill:none;stroke:#a9a9a9;stroke-linecap:square;stroke-opacity:0.25;"/>
   </g>
   <g id="line2d_44">
    <path clip-path="url(#p0ca13482d1)" d="M 303.555184 240.089017 
L 299.646338 263.414637 
" style="fill:none;stroke:#a9a9a9;stroke-linecap:square;stroke-opacity:0.25;"/>
   </g>
   <g id="line2d_45">
    <path clip-path="url(#p0ca13482d1)" d="M 303.555184 240.089017 
L 321.991347 313.704794 
" style="fill:none;stroke:#a9a9a9;stroke-linecap:square;stroke-opacity:0.25;"/>
   </g>
   <g id="line2d_46">
    <path clip-path="url(#p0ca13482d1)" d="M 303.555184 240.089017 
L 320.578202 300.871636 
" style="fill:none;stroke:#a9a9a9;stroke-linecap:square;stroke-opacity:0.25;"/>
   </g>
   <g id="line2d_47">
    <path clip-path="url(#p0ca13482d1)" d="M 303.555184 240.089017 
L 323.628567 271.197682 
" style="fill:none;stroke:#a9a9a9;stroke-linecap:square;stroke-opacity:0.25;"/>
   </g>
   <g id="line2d_48">
    <path clip-path="url(#p0ca13482d1)" d="M 303.555184 240.089017 
L 360.911766 260.36492 
" style="fill:none;stroke:#a9a9a9;stroke-linecap:square;stroke-opacity:0.25;"/>
   </g>
   <g id="line2d_49">
    <path clip-path="url(#p0ca13482d1)" d="M 303.555184 240.089017 
L 332.457894 348.647564 
" style="fill:none;stroke:#a9a9a9;stroke-linecap:square;stroke-opacity:0.25;"/>
   </g>
   <g id="line2d_50">
    <path clip-path="url(#p0ca13482d1)" d="M 303.555184 240.089017 
L 328.109476 336.268788 
" style="fill:none;stroke:#a9a9a9;stroke-linecap:square;stroke-opacity:0.25;"/>
   </g>
   <g id="line2d_51">
    <path clip-path="url(#p0ca13482d1)" d="M 303.555184 240.089017 
L 362.333345 286.864255 
" style="fill:none;stroke:#a9a9a9;stroke-linecap:square;stroke-opacity:0.25;"/>
   </g>
   <g id="line2d_52">
    <path clip-path="url(#p0ca13482d1)" d="M 303.555184 240.089017 
L 338.517947 262.550434 
" style="fill:none;stroke:#a9a9a9;stroke-linecap:square;stroke-opacity:0.25;"/>
   </g>
   <g id="line2d_53">
    <path clip-path="url(#p0ca13482d1)" d="M 397.952505 298.185848 
L 477.636709 102.723642 
" style="fill:none;stroke:#a9a9a9;stroke-linecap:square;stroke-opacity:0.25;"/>
   </g>
   <g id="line2d_54">
    <path clip-path="url(#p0ca13482d1)" d="M 397.952505 298.185848 
L 491.465636 134.264231 
" style="fill:none;stroke:#a9a9a9;stroke-linecap:square;stroke-opacity:0.25;"/>
   </g>
   <g id="line2d_55">
    <path clip-path="url(#p0ca13482d1)" d="M 397.952505 298.185848 
L 459.828157 64.87197 
" style="fill:none;stroke:#a9a9a9;stroke-linecap:square;stroke-opacity:0.25;"/>
   </g>
   <g id="line2d_56">
    <path clip-path="url(#p0ca13482d1)" d="M 397.952505 298.185848 
L 464.449132 63.998836 
" style="fill:none;stroke:#a9a9a9;stroke-linecap:square;stroke-opacity:0.25;"/>
   </g>
   <g id="line2d_57">
    <path clip-path="url(#p0ca13482d1)" d="M 397.952505 298.185848 
L 467.96376 73.784845 
" style="fill:none;stroke:#a9a9a9;stroke-linecap:square;stroke-opacity:0.25;"/>
   </g>
   <g id="line2d_58">
    <path clip-path="url(#p0ca13482d1)" d="M 397.952505 298.185848 
L 471.084089 65.334555 
" style="fill:none;stroke:#a9a9a9;stroke-linecap:square;stroke-opacity:0.25;"/>
   </g>
   <g id="line2d_59">
    <path clip-path="url(#p0ca13482d1)" d="M 397.952505 298.185848 
L 480.277199 174.099781 
" style="fill:none;stroke:#a9a9a9;stroke-linecap:square;stroke-opacity:0.25;"/>
   </g>
   <g id="line2d_60">
    <path clip-path="url(#p0ca13482d1)" d="M 397.952505 298.185848 
L 451.570395 230.399898 
" style="fill:none;stroke:#a9a9a9;stroke-linecap:square;stroke-opacity:0.25;"/>
   </g>
   <g id="line2d_61">
    <path clip-path="url(#p0ca13482d1)" d="M 397.952505 298.185848 
L 418.568294 251.068224 
" style="fill:none;stroke:#a9a9a9;stroke-linecap:square;stroke-opacity:0.25;"/>
   </g>
   <g id="line2d_62">
    <path clip-path="url(#p0ca13482d1)" d="M 397.952505 298.185848 
L 442.52119 236.786896 
" style="fill:none;stroke:#a9a9a9;stroke-linecap:square;stroke-opacity:0.25;"/>
   </g>
   <g id="line2d_63">
    <path clip-path="url(#p0ca13482d1)" d="M 397.952505 298.185848 
L 470.633943 211.251999 
" style="fill:none;stroke:#a9a9a9;stroke-linecap:square;stroke-opacity:0.25;"/>
   </g>
   <g id="line2d_64">
    <path clip-path="url(#p0ca13482d1)" d="M 397.952505 298.185848 
L 464.112391 239.054104 
" style="fill:none;stroke:#a9a9a9;stroke-linecap:square;stroke-opacity:0.25;"/>
   </g>
   <g id="line2d_65">
    <path clip-path="url(#p0ca13482d1)" d="M 397.952505 298.185848 
L 461.039778 85.344875 
" style="fill:none;stroke:#a9a9a9;stroke-linecap:square;stroke-opacity:0.25;"/>
   </g>
   <g id="line2d_66">
    <path clip-path="url(#p0ca13482d1)" d="M 397.952505 298.185848 
L 501.907341 198.439266 
" style="fill:none;stroke:#a9a9a9;stroke-linecap:square;stroke-opacity:0.25;"/>
   </g>
   <g id="matplotlib.axis_1">
    <g id="xtick_1">
     <g id="line2d_67">
      <path clip-path="url(#p0ca13482d1)" d="M 76.14 362.88 
L 76.14 49.7664 
" style="fill:none;stroke:#b0b0b0;stroke-linecap:square;stroke-opacity:0.5;stroke-width:0.8;"/>
     </g>
     <g id="line2d_68"/>
    </g>
    <g id="xtick_2">
     <g id="line2d_69">
      <path clip-path="url(#p0ca13482d1)" d="M 115.479 362.88 
L 115.479 49.7664 
" style="fill:none;stroke:#b0b0b0;stroke-linecap:square;stroke-opacity:0.5;stroke-width:0.8;"/>
     </g>
     <g id="line2d_70"/>
    </g>
    <g id="xtick_3">
     <g id="line2d_71">
      <path clip-path="url(#p0ca13482d1)" d="M 154.818 362.88 
L 154.818 49.7664 
" style="fill:none;stroke:#b0b0b0;stroke-linecap:square;stroke-opacity:0.5;stroke-width:0.8;"/>
     </g>
     <g id="line2d_72"/>
    </g>
    <g id="xtick_4">
     <g id="line2d_73">
      <path clip-path="url(#p0ca13482d1)" d="M 194.157 362.88 
L 194.157 49.7664 
" style="fill:none;stroke:#b0b0b0;stroke-linecap:square;stroke-opacity:0.5;stroke-width:0.8;"/>
     </g>
     <g id="line2d_74"/>
    </g>
    <g id="xtick_5">
     <g id="line2d_75">
      <path clip-path="url(#p0ca13482d1)" d="M 233.496 362.88 
L 233.496 49.7664 
" style="fill:none;stroke:#b0b0b0;stroke-linecap:square;stroke-opacity:0.5;stroke-width:0.8;"/>
     </g>
     <g id="line2d_76"/>
    </g>
    <g id="xtick_6">
     <g id="line2d_77">
      <path clip-path="url(#p0ca13482d1)" d="M 272.835 362.88 
L 272.835 49.7664 
" style="fill:none;stroke:#b0b0b0;stroke-linecap:square;stroke-opacity:0.5;stroke-width:0.8;"/>
     </g>
     <g id="line2d_78"/>
    </g>
    <g id="xtick_7">
     <g id="line2d_79">
      <path clip-path="url(#p0ca13482d1)" d="M 312.174 362.88 
L 312.174 49.7664 
" style="fill:none;stroke:#b0b0b0;stroke-linecap:square;stroke-opacity:0.5;stroke-width:0.8;"/>
     </g>
     <g id="line2d_80"/>
    </g>
    <g id="xtick_8">
     <g id="line2d_81">
      <path clip-path="url(#p0ca13482d1)" d="M 351.513 362.88 
L 351.513 49.7664 
" style="fill:none;stroke:#b0b0b0;stroke-linecap:square;stroke-opacity:0.5;stroke-width:0.8;"/>
     </g>
     <g id="line2d_82"/>
    </g>
    <g id="xtick_9">
     <g id="line2d_83">
      <path clip-path="url(#p0ca13482d1)" d="M 390.852 362.88 
L 390.852 49.7664 
" style="fill:none;stroke:#b0b0b0;stroke-linecap:square;stroke-opacity:0.5;stroke-width:0.8;"/>
     </g>
     <g id="line2d_84"/>
    </g>
    <g id="xtick_10">
     <g id="line2d_85">
      <path clip-path="url(#p0ca13482d1)" d="M 430.191 362.88 
L 430.191 49.7664 
" style="fill:none;stroke:#b0b0b0;stroke-linecap:square;stroke-opacity:0.5;stroke-width:0.8;"/>
     </g>
     <g id="line2d_86"/>
    </g>
    <g id="xtick_11">
     <g id="line2d_87">
      <path clip-path="url(#p0ca13482d1)" d="M 469.53 362.88 
L 469.53 49.7664 
" style="fill:none;stroke:#b0b0b0;stroke-linecap:square;stroke-opacity:0.5;stroke-width:0.8;"/>
     </g>
     <g id="line2d_88"/>
    </g>
    <g id="xtick_12">
     <g id="line2d_89">
      <path clip-path="url(#p0ca13482d1)" d="M 508.869 362.88 
L 508.869 49.7664 
" style="fill:none;stroke:#b0b0b0;stroke-linecap:square;stroke-opacity:0.5;stroke-width:0.8;"/>
     </g>
     <g id="line2d_90"/>
    </g>
    <g id="xtick_13">
     <g id="line2d_91">
      <path clip-path="url(#p0ca13482d1)" d="M 548.208 362.88 
L 548.208 49.7664 
" style="fill:none;stroke:#b0b0b0;stroke-linecap:square;stroke-opacity:0.5;stroke-width:0.8;"/>
     </g>
     <g id="line2d_92"/>
    </g>
    <g id="text_1">
     <!-- $\longleftarrow$Antigenic Distance$\longrightarrow$ -->
     <defs>
      <path d="M 4.890625 29.15625 
L 4.890625 33.546875 
L 24.078125 52.734375 
L 29.9375 46.875 
L 18.5625 35.5 
L 137.640625 35.5 
L 137.640625 27.203125 
L 18.5625 27.203125 
L 29.9375 15.828125 
L 24.078125 9.96875 
z
" id="DejaVuSans-10229"/>
      <path d="M 34.1875 63.1875 
L 20.796875 26.90625 
L 47.609375 26.90625 
z
M 28.609375 72.90625 
L 39.796875 72.90625 
L 67.578125 0 
L 57.328125 0 
L 50.6875 18.703125 
L 17.828125 18.703125 
L 11.1875 0 
L 0.78125 0 
z
" id="DejaVuSans-65"/>
      <path d="M 54.890625 33.015625 
L 54.890625 0 
L 45.90625 0 
L 45.90625 32.71875 
Q 45.90625 40.484375 42.875 44.328125 
Q 39.84375 48.1875 33.796875 48.1875 
Q 26.515625 48.1875 22.3125 43.546875 
Q 18.109375 38.921875 18.109375 30.90625 
L 18.109375 0 
L 9.078125 0 
L 9.078125 54.6875 
L 18.109375 54.6875 
L 18.109375 46.1875 
Q 21.34375 51.125 25.703125 53.5625 
Q 30.078125 56 35.796875 56 
Q 45.21875 56 50.046875 50.171875 
Q 54.890625 44.34375 54.890625 33.015625 
z
" id="DejaVuSans-110"/>
      <path d="M 18.3125 70.21875 
L 18.3125 54.6875 
L 36.8125 54.6875 
L 36.8125 47.703125 
L 18.3125 47.703125 
L 18.3125 18.015625 
Q 18.3125 11.328125 20.140625 9.421875 
Q 21.96875 7.515625 27.59375 7.515625 
L 36.8125 7.515625 
L 36.8125 0 
L 27.59375 0 
Q 17.1875 0 13.234375 3.875 
Q 9.28125 7.765625 9.28125 18.015625 
L 9.28125 47.703125 
L 2.6875 47.703125 
L 2.6875 54.6875 
L 9.28125 54.6875 
L 9.28125 70.21875 
z
" id="DejaVuSans-116"/>
      <path d="M 9.421875 54.6875 
L 18.40625 54.6875 
L 18.40625 0 
L 9.421875 0 
z
M 9.421875 75.984375 
L 18.40625 75.984375 
L 18.40625 64.59375 
L 9.421875 64.59375 
z
" id="DejaVuSans-105"/>
      <path d="M 45.40625 27.984375 
Q 45.40625 37.75 41.375 43.109375 
Q 37.359375 48.484375 30.078125 48.484375 
Q 22.859375 48.484375 18.828125 43.109375 
Q 14.796875 37.75 14.796875 27.984375 
Q 14.796875 18.265625 18.828125 12.890625 
Q 22.859375 7.515625 30.078125 7.515625 
Q 37.359375 7.515625 41.375 12.890625 
Q 45.40625 18.265625 45.40625 27.984375 
z
M 54.390625 6.78125 
Q 54.390625 -7.171875 48.1875 -13.984375 
Q 42 -20.796875 29.203125 -20.796875 
Q 24.46875 -20.796875 20.265625 -20.09375 
Q 16.0625 -19.390625 12.109375 -17.921875 
L 12.109375 -9.1875 
Q 16.0625 -11.328125 19.921875 -12.34375 
Q 23.78125 -13.375 27.78125 -13.375 
Q 36.625 -13.375 41.015625 -8.765625 
Q 45.40625 -4.15625 45.40625 5.171875 
L 45.40625 9.625 
Q 42.625 4.78125 38.28125 2.390625 
Q 33.9375 0 27.875 0 
Q 17.828125 0 11.671875 7.65625 
Q 5.515625 15.328125 5.515625 27.984375 
Q 5.515625 40.671875 11.671875 48.328125 
Q 17.828125 56 27.875 56 
Q 33.9375 56 38.28125 53.609375 
Q 42.625 51.21875 45.40625 46.390625 
L 45.40625 54.6875 
L 54.390625 54.6875 
z
" id="DejaVuSans-103"/>
      <path d="M 56.203125 29.59375 
L 56.203125 25.203125 
L 14.890625 25.203125 
Q 15.484375 15.921875 20.484375 11.0625 
Q 25.484375 6.203125 34.421875 6.203125 
Q 39.59375 6.203125 44.453125 7.46875 
Q 49.3125 8.734375 54.109375 11.28125 
L 54.109375 2.78125 
Q 49.265625 0.734375 44.1875 -0.34375 
Q 39.109375 -1.421875 33.890625 -1.421875 
Q 20.796875 -1.421875 13.15625 6.1875 
Q 5.515625 13.8125 5.515625 26.8125 
Q 5.515625 40.234375 12.765625 48.109375 
Q 20.015625 56 32.328125 56 
Q 43.359375 56 49.78125 48.890625 
Q 56.203125 41.796875 56.203125 29.59375 
z
M 47.21875 32.234375 
Q 47.125 39.59375 43.09375 43.984375 
Q 39.0625 48.390625 32.421875 48.390625 
Q 24.90625 48.390625 20.390625 44.140625 
Q 15.875 39.890625 15.1875 32.171875 
z
" id="DejaVuSans-101"/>
      <path d="M 48.78125 52.59375 
L 48.78125 44.1875 
Q 44.96875 46.296875 41.140625 47.34375 
Q 37.3125 48.390625 33.40625 48.390625 
Q 24.65625 48.390625 19.8125 42.84375 
Q 14.984375 37.3125 14.984375 27.296875 
Q 14.984375 17.28125 19.8125 11.734375 
Q 24.65625 6.203125 33.40625 6.203125 
Q 37.3125 6.203125 41.140625 7.25 
Q 44.96875 8.296875 48.78125 10.40625 
L 48.78125 2.09375 
Q 45.015625 0.34375 40.984375 -0.53125 
Q 36.96875 -1.421875 32.421875 -1.421875 
Q 20.0625 -1.421875 12.78125 6.34375 
Q 5.515625 14.109375 5.515625 27.296875 
Q 5.515625 40.671875 12.859375 48.328125 
Q 20.21875 56 33.015625 56 
Q 37.15625 56 41.109375 55.140625 
Q 45.0625 54.296875 48.78125 52.59375 
z
" id="DejaVuSans-99"/>
      <path id="DejaVuSans-32"/>
      <path d="M 19.671875 64.796875 
L 19.671875 8.109375 
L 31.59375 8.109375 
Q 46.6875 8.109375 53.6875 14.9375 
Q 60.6875 21.78125 60.6875 36.53125 
Q 60.6875 51.171875 53.6875 57.984375 
Q 46.6875 64.796875 31.59375 64.796875 
z
M 9.8125 72.90625 
L 30.078125 72.90625 
Q 51.265625 72.90625 61.171875 64.09375 
Q 71.09375 55.28125 71.09375 36.53125 
Q 71.09375 17.671875 61.125 8.828125 
Q 51.171875 0 30.078125 0 
L 9.8125 0 
z
" id="DejaVuSans-68"/>
      <path d="M 44.28125 53.078125 
L 44.28125 44.578125 
Q 40.484375 46.53125 36.375 47.5 
Q 32.28125 48.484375 27.875 48.484375 
Q 21.1875 48.484375 17.84375 46.4375 
Q 14.5 44.390625 14.5 40.28125 
Q 14.5 37.15625 16.890625 35.375 
Q 19.28125 33.59375 26.515625 31.984375 
L 29.59375 31.296875 
Q 39.15625 29.25 43.1875 25.515625 
Q 47.21875 21.78125 47.21875 15.09375 
Q 47.21875 7.46875 41.1875 3.015625 
Q 35.15625 -1.421875 24.609375 -1.421875 
Q 20.21875 -1.421875 15.453125 -0.5625 
Q 10.6875 0.296875 5.421875 2 
L 5.421875 11.28125 
Q 10.40625 8.6875 15.234375 7.390625 
Q 20.0625 6.109375 24.8125 6.109375 
Q 31.15625 6.109375 34.5625 8.28125 
Q 37.984375 10.453125 37.984375 14.40625 
Q 37.984375 18.0625 35.515625 20.015625 
Q 33.0625 21.96875 24.703125 23.78125 
L 21.578125 24.515625 
Q 13.234375 26.265625 9.515625 29.90625 
Q 5.8125 33.546875 5.8125 39.890625 
Q 5.8125 47.609375 11.28125 51.796875 
Q 16.75 56 26.8125 56 
Q 31.78125 56 36.171875 55.265625 
Q 40.578125 54.546875 44.28125 53.078125 
z
" id="DejaVuSans-115"/>
      <path d="M 34.28125 27.484375 
Q 23.390625 27.484375 19.1875 25 
Q 14.984375 22.515625 14.984375 16.5 
Q 14.984375 11.71875 18.140625 8.90625 
Q 21.296875 6.109375 26.703125 6.109375 
Q 34.1875 6.109375 38.703125 11.40625 
Q 43.21875 16.703125 43.21875 25.484375 
L 43.21875 27.484375 
z
M 52.203125 31.203125 
L 52.203125 0 
L 43.21875 0 
L 43.21875 8.296875 
Q 40.140625 3.328125 35.546875 0.953125 
Q 30.953125 -1.421875 24.3125 -1.421875 
Q 15.921875 -1.421875 10.953125 3.296875 
Q 6 8.015625 6 15.921875 
Q 6 25.140625 12.171875 29.828125 
Q 18.359375 34.515625 30.609375 34.515625 
L 43.21875 34.515625 
L 43.21875 35.40625 
Q 43.21875 41.609375 39.140625 45 
Q 35.0625 48.390625 27.6875 48.390625 
Q 23 48.390625 18.546875 47.265625 
Q 14.109375 46.140625 10.015625 43.890625 
L 10.015625 52.203125 
Q 14.9375 54.109375 19.578125 55.046875 
Q 24.21875 56 28.609375 56 
Q 40.484375 56 46.34375 49.84375 
Q 52.203125 43.703125 52.203125 31.203125 
z
" id="DejaVuSans-97"/>
      <path d="M 138.484375 33.546875 
L 138.484375 29.15625 
L 119.28125 9.96875 
L 113.421875 15.828125 
L 124.8125 27.203125 
L 5.71875 27.203125 
L 5.71875 35.5 
L 124.8125 35.5 
L 113.421875 46.875 
L 119.28125 52.734375 
z
" id="DejaVuSans-10230"/>
     </defs>
     <g transform="translate(246.974 377.98)scale(0.1 -0.1)">
      <use transform="translate(19.482422 0.015625)" xlink:href="#DejaVuSans-10229"/>
      <use transform="translate(182.324219 0.015625)" xlink:href="#DejaVuSans-65"/>
      <use transform="translate(250.732422 0.015625)" xlink:href="#DejaVuSans-110"/>
      <use transform="translate(314.111328 0.015625)" xlink:href="#DejaVuSans-116"/>
      <use transform="translate(353.320312 0.015625)" xlink:href="#DejaVuSans-105"/>
      <use transform="translate(381.103516 0.015625)" xlink:href="#DejaVuSans-103"/>
      <use transform="translate(444.580078 0.015625)" xlink:href="#DejaVuSans-101"/>
      <use transform="translate(506.103516 0.015625)" xlink:href="#DejaVuSans-110"/>
      <use transform="translate(569.482422 0.015625)" xlink:href="#DejaVuSans-105"/>
      <use transform="translate(597.265625 0.015625)" xlink:href="#DejaVuSans-99"/>
      <use transform="translate(652.246094 0.015625)" xlink:href="#DejaVuSans-32"/>
      <use transform="translate(684.033203 0.015625)" xlink:href="#DejaVuSans-68"/>
      <use transform="translate(761.035156 0.015625)" xlink:href="#DejaVuSans-105"/>
      <use transform="translate(788.818359 0.015625)" xlink:href="#DejaVuSans-115"/>
      <use transform="translate(840.917969 0.015625)" xlink:href="#DejaVuSans-116"/>
      <use transform="translate(880.126953 0.015625)" xlink:href="#DejaVuSans-97"/>
      <use transform="translate(941.40625 0.015625)" xlink:href="#DejaVuSans-110"/>
      <use transform="translate(1004.785156 0.015625)" xlink:href="#DejaVuSans-99"/>
      <use transform="translate(1059.765625 0.015625)" xlink:href="#DejaVuSans-101"/>
      <use transform="translate(1140.771484 0.015625)" xlink:href="#DejaVuSans-10230"/>
     </g>
    </g>
   </g>
   <g id="matplotlib.axis_2">
    <g id="ytick_1">
     <g id="line2d_93">
      <path clip-path="url(#p0ca13482d1)" d="M 76.14 355.361504 
L 548.208 355.361504 
" style="fill:none;stroke:#b0b0b0;stroke-linecap:square;stroke-opacity:0.5;stroke-width:0.8;"/>
     </g>
     <g id="line2d_94"/>
    </g>
    <g id="ytick_2">
     <g id="line2d_95">
      <path clip-path="url(#p0ca13482d1)" d="M 76.14 321.458312 
L 548.208 321.458312 
" style="fill:none;stroke:#b0b0b0;stroke-linecap:square;stroke-opacity:0.5;stroke-width:0.8;"/>
     </g>
     <g id="line2d_96"/>
    </g>
    <g id="ytick_3">
     <g id="line2d_97">
      <path clip-path="url(#p0ca13482d1)" d="M 76.14 287.555119 
L 548.208 287.555119 
" style="fill:none;stroke:#b0b0b0;stroke-linecap:square;stroke-opacity:0.5;stroke-width:0.8;"/>
     </g>
     <g id="line2d_98"/>
    </g>
    <g id="ytick_4">
     <g id="line2d_99">
      <path clip-path="url(#p0ca13482d1)" d="M 76.14 253.651927 
L 548.208 253.651927 
" style="fill:none;stroke:#b0b0b0;stroke-linecap:square;stroke-opacity:0.5;stroke-width:0.8;"/>
     </g>
     <g id="line2d_100"/>
    </g>
    <g id="ytick_5">
     <g id="line2d_101">
      <path clip-path="url(#p0ca13482d1)" d="M 76.14 219.748735 
L 548.208 219.748735 
" style="fill:none;stroke:#b0b0b0;stroke-linecap:square;stroke-opacity:0.5;stroke-width:0.8;"/>
     </g>
     <g id="line2d_102"/>
    </g>
    <g id="ytick_6">
     <g id="line2d_103">
      <path clip-path="url(#p0ca13482d1)" d="M 76.14 185.845542 
L 548.208 185.845542 
" style="fill:none;stroke:#b0b0b0;stroke-linecap:square;stroke-opacity:0.5;stroke-width:0.8;"/>
     </g>
     <g id="line2d_104"/>
    </g>
    <g id="ytick_7">
     <g id="line2d_105">
      <path clip-path="url(#p0ca13482d1)" d="M 76.14 151.94235 
L 548.208 151.94235 
" style="fill:none;stroke:#b0b0b0;stroke-linecap:square;stroke-opacity:0.5;stroke-width:0.8;"/>
     </g>
     <g id="line2d_106"/>
    </g>
    <g id="ytick_8">
     <g id="line2d_107">
      <path clip-path="url(#p0ca13482d1)" d="M 76.14 118.039157 
L 548.208 118.039157 
" style="fill:none;stroke:#b0b0b0;stroke-linecap:square;stroke-opacity:0.5;stroke-width:0.8;"/>
     </g>
     <g id="line2d_108"/>
    </g>
    <g id="ytick_9">
     <g id="line2d_109">
      <path clip-path="url(#p0ca13482d1)" d="M 76.14 84.135965 
L 548.208 84.135965 
" style="fill:none;stroke:#b0b0b0;stroke-linecap:square;stroke-opacity:0.5;stroke-width:0.8;"/>
     </g>
     <g id="line2d_110"/>
    </g>
    <g id="ytick_10">
     <g id="line2d_111">
      <path clip-path="url(#p0ca13482d1)" d="M 76.14 50.232772 
L 548.208 50.232772 
" style="fill:none;stroke:#b0b0b0;stroke-linecap:square;stroke-opacity:0.5;stroke-width:0.8;"/>
     </g>
     <g id="line2d_112"/>
    </g>
    <g id="text_2">
     <!-- $\longleftarrow$Antigenic Distance$\longrightarrow$ -->
     <g transform="translate(66.54 271.5232)rotate(-90)scale(0.1 -0.1)">
      <use transform="translate(19.482422 0.015625)" xlink:href="#DejaVuSans-10229"/>
      <use transform="translate(182.324219 0.015625)" xlink:href="#DejaVuSans-65"/>
      <use transform="translate(250.732422 0.015625)" xlink:href="#DejaVuSans-110"/>
      <use transform="translate(314.111328 0.015625)" xlink:href="#DejaVuSans-116"/>
      <use transform="translate(353.320312 0.015625)" xlink:href="#DejaVuSans-105"/>
      <use transform="translate(381.103516 0.015625)" xlink:href="#DejaVuSans-103"/>
      <use transform="translate(444.580078 0.015625)" xlink:href="#DejaVuSans-101"/>
      <use transform="translate(506.103516 0.015625)" xlink:href="#DejaVuSans-110"/>
      <use transform="translate(569.482422 0.015625)" xlink:href="#DejaVuSans-105"/>
      <use transform="translate(597.265625 0.015625)" xlink:href="#DejaVuSans-99"/>
      <use transform="translate(652.246094 0.015625)" xlink:href="#DejaVuSans-32"/>
      <use transform="translate(684.033203 0.015625)" xlink:href="#DejaVuSans-68"/>
      <use transform="translate(761.035156 0.015625)" xlink:href="#DejaVuSans-105"/>
      <use transform="translate(788.818359 0.015625)" xlink:href="#DejaVuSans-115"/>
      <use transform="translate(840.917969 0.015625)" xlink:href="#DejaVuSans-116"/>
      <use transform="translate(880.126953 0.015625)" xlink:href="#DejaVuSans-97"/>
      <use transform="translate(941.40625 0.015625)" xlink:href="#DejaVuSans-110"/>
      <use transform="translate(1004.785156 0.015625)" xlink:href="#DejaVuSans-99"/>
      <use transform="translate(1059.765625 0.015625)" xlink:href="#DejaVuSans-101"/>
      <use transform="translate(1140.771484 0.015625)" xlink:href="#DejaVuSans-10230"/>
     </g>
    </g>
   </g>
   <g id="PathCollection_1">
    <defs>
     <path d="M 0 7.905694 
C 2.096615 7.905694 4.10764 7.0727 5.59017 5.59017 
C 7.0727 4.10764 7.905694 2.096615 7.905694 0 
C 7.905694 -2.096615 7.0727 -4.10764 5.59017 -5.59017 
C 4.10764 -7.0727 2.096615 -7.905694 0 -7.905694 
C -2.096615 -7.905694 -4.10764 -7.0727 -5.59017 -5.59017 
C -7.0727 -4.10764 -7.905694 -2.096615 -7.905694 0 
C -7.905694 2.096615 -7.0727 4.10764 -5.59017 5.59017 
C -4.10764 7.0727 -2.096615 7.905694 0 7.905694 
z
" id="m0c8ee59476" style="stroke:#000000;stroke-opacity:0.8;stroke-width:0.5;"/>
    </defs>
    <g clip-path="url(#p0ca13482d1)">
     <use style="fill:#fcbba1;fill-opacity:0.8;stroke:#000000;stroke-opacity:0.8;stroke-width:0.5;" x="193.256851" xlink:href="#m0c8ee59476" y="163.351261"/>
    </g>
   </g>
   <g id="PathCollection_2">
    <defs>
     <path d="M 0 7.905694 
C 2.096615 7.905694 4.10764 7.0727 5.59017 5.59017 
C 7.0727 4.10764 7.905694 2.096615 7.905694 0 
C 7.905694 -2.096615 7.0727 -4.10764 5.59017 -5.59017 
C 4.10764 -7.0727 2.096615 -7.905694 0 -7.905694 
C -2.096615 -7.905694 -4.10764 -7.0727 -5.59017 -5.59017 
C -7.0727 -4.10764 -7.905694 -2.096615 -7.905694 0 
C -7.905694 2.096615 -7.0727 4.10764 -5.59017 5.59017 
C -4.10764 7.0727 -2.096615 7.905694 0 7.905694 
z
" id="m4d51f98ba6" style="stroke:#000000;stroke-opacity:0.8;stroke-width:0.5;"/>
    </defs>
    <g clip-path="url(#p0ca13482d1)">
     <use style="fill:#fdd0bc;fill-opacity:0.8;stroke:#000000;stroke-opacity:0.8;stroke-width:0.5;" x="141.476389" xlink:href="#m4d51f98ba6" y="177.630233"/>
    </g>
   </g>
   <g id="PathCollection_3">
    <defs>
     <path d="M 0 7.905694 
C 2.096615 7.905694 4.10764 7.0727 5.59017 5.59017 
C 7.0727 4.10764 7.905694 2.096615 7.905694 0 
C 7.905694 -2.096615 7.0727 -4.10764 5.59017 -5.59017 
C 4.10764 -7.0727 2.096615 -7.905694 0 -7.905694 
C -2.096615 -7.905694 -4.10764 -7.0727 -5.59017 -5.59017 
C -7.0727 -4.10764 -7.905694 -2.096615 -7.905694 0 
C -7.905694 2.096615 -7.0727 4.10764 -5.59017 5.59017 
C -4.10764 7.0727 -2.096615 7.905694 0 7.905694 
z
" id="m5d664c6cce" style="stroke:#000000;stroke-opacity:0.8;stroke-width:0.5;"/>
    </defs>
    <g clip-path="url(#p0ca13482d1)">
     <use style="fill:#fdc9b3;fill-opacity:0.8;stroke:#000000;stroke-opacity:0.8;stroke-width:0.5;" x="258.590125" xlink:href="#m5d664c6cce" y="246.978433"/>
    </g>
   </g>
   <g id="PathCollection_4">
    <defs>
     <path d="M 0 7.905694 
C 2.096615 7.905694 4.10764 7.0727 5.59017 5.59017 
C 7.0727 4.10764 7.905694 2.096615 7.905694 0 
C 7.905694 -2.096615 7.0727 -4.10764 5.59017 -5.59017 
C 4.10764 -7.0727 2.096615 -7.905694 0 -7.905694 
C -2.096615 -7.905694 -4.10764 -7.0727 -5.59017 -5.59017 
C -7.0727 -4.10764 -7.905694 -2.096615 -7.905694 0 
C -7.905694 2.096615 -7.0727 4.10764 -5.59017 5.59017 
C -4.10764 7.0727 -2.096615 7.905694 0 7.905694 
z
" id="m2dad5104e6" style="stroke:#000000;stroke-opacity:0.8;stroke-width:0.5;"/>
    </defs>
    <g clip-path="url(#p0ca13482d1)">
     <use style="fill:#fdd7c6;fill-opacity:0.8;stroke:#000000;stroke-opacity:0.8;stroke-width:0.5;" x="167.921824" xlink:href="#m2dad5104e6" y="180.340785"/>
    </g>
   </g>
   <g id="PathCollection_5">
    <defs>
     <path d="M 0 7.905694 
C 2.096615 7.905694 4.10764 7.0727 5.59017 5.59017 
C 7.0727 4.10764 7.905694 2.096615 7.905694 0 
C 7.905694 -2.096615 7.0727 -4.10764 5.59017 -5.59017 
C 4.10764 -7.0727 2.096615 -7.905694 0 -7.905694 
C -2.096615 -7.905694 -4.10764 -7.0727 -5.59017 -5.59017 
C -7.0727 -4.10764 -7.905694 -2.096615 -7.905694 0 
C -7.905694 2.096615 -7.0727 4.10764 -5.59017 5.59017 
C -4.10764 7.0727 -2.096615 7.905694 0 7.905694 
z
" id="mebb36184d9" style="stroke:#000000;stroke-opacity:0.8;stroke-width:0.5;"/>
    </defs>
    <g clip-path="url(#p0ca13482d1)">
     <use style="fill:#d82422;fill-opacity:0.8;stroke:#000000;stroke-opacity:0.8;stroke-width:0.5;" x="398.197391" xlink:href="#mebb36184d9" y="301.115938"/>
    </g>
   </g>
   <g id="PathCollection_6">
    <g clip-path="url(#p0ca13482d1)">
     <use style="fill:#d82422;fill-opacity:0.8;stroke:#000000;stroke-opacity:0.8;stroke-width:0.5;" x="368.838549" xlink:href="#mebb36184d9" y="322.9861"/>
    </g>
   </g>
   <g id="PathCollection_7">
    <g clip-path="url(#p0ca13482d1)">
     <use style="fill:#d82422;fill-opacity:0.8;stroke:#000000;stroke-opacity:0.8;stroke-width:0.5;" x="397.952505" xlink:href="#mebb36184d9" y="298.185848"/>
    </g>
   </g>
   <g id="PathCollection_8">
    <defs>
     <path d="M 0 7.905694 
C 2.096615 7.905694 4.10764 7.0727 5.59017 5.59017 
C 7.0727 4.10764 7.905694 2.096615 7.905694 0 
C 7.905694 -2.096615 7.0727 -4.10764 5.59017 -5.59017 
C 4.10764 -7.0727 2.096615 -7.905694 0 -7.905694 
C -2.096615 -7.905694 -4.10764 -7.0727 -5.59017 -5.59017 
C -7.0727 -4.10764 -7.905694 -2.096615 -7.905694 0 
C -7.905694 2.096615 -7.0727 4.10764 -5.59017 5.59017 
C -4.10764 7.0727 -2.096615 7.905694 0 7.905694 
z
" id="mbddb647e3b" style="stroke:#000000;stroke-opacity:0.8;stroke-width:0.5;"/>
    </defs>
    <g clip-path="url(#p0ca13482d1)">
     <use style="fill:#fff5f0;fill-opacity:0.8;stroke:#000000;stroke-opacity:0.8;stroke-width:0.5;" x="162.87773" xlink:href="#mbddb647e3b" y="183.638314"/>
    </g>
   </g>
   <g id="PathCollection_9">
    <defs>
     <path d="M 0 7.905694 
C 2.096615 7.905694 4.10764 7.0727 5.59017 5.59017 
C 7.0727 4.10764 7.905694 2.096615 7.905694 0 
C 7.905694 -2.096615 7.0727 -4.10764 5.59017 -5.59017 
C 4.10764 -7.0727 2.096615 -7.905694 0 -7.905694 
C -2.096615 -7.905694 -4.10764 -7.0727 -5.59017 -5.59017 
C -7.0727 -4.10764 -7.905694 -2.096615 -7.905694 0 
C -7.905694 2.096615 -7.0727 4.10764 -5.59017 5.59017 
C -4.10764 7.0727 -2.096615 7.905694 0 7.905694 
z
" id="mc81dacb450" style="stroke:#000000;stroke-opacity:0.8;stroke-width:0.5;"/>
    </defs>
    <g clip-path="url(#p0ca13482d1)">
     <use style="fill:#808080;fill-opacity:0.8;stroke:#000000;stroke-opacity:0.8;stroke-width:0.5;" x="366.178131" xlink:href="#mc81dacb450" y="321.546668"/>
    </g>
   </g>
   <g id="PathCollection_10">
    <defs>
     <path d="M 0 7.905694 
C 2.096615 7.905694 4.10764 7.0727 5.59017 5.59017 
C 7.0727 4.10764 7.905694 2.096615 7.905694 0 
C 7.905694 -2.096615 7.0727 -4.10764 5.59017 -5.59017 
C 4.10764 -7.0727 2.096615 -7.905694 0 -7.905694 
C -2.096615 -7.905694 -4.10764 -7.0727 -5.59017 -5.59017 
C -7.0727 -4.10764 -7.905694 -2.096615 -7.905694 0 
C -7.905694 2.096615 -7.0727 4.10764 -5.59017 5.59017 
C -4.10764 7.0727 -2.096615 7.905694 0 7.905694 
z
" id="m625d995109" style="stroke:#000000;stroke-opacity:0.8;stroke-width:0.5;"/>
    </defs>
    <g clip-path="url(#p0ca13482d1)">
     <use style="fill:#67000d;fill-opacity:0.8;stroke:#000000;stroke-opacity:0.8;stroke-width:0.5;" x="515.247877" xlink:href="#m625d995109" y="231.597601"/>
    </g>
   </g>
   <g id="PathCollection_11">
    <defs>
     <path d="M 0 7.905694 
C 2.096615 7.905694 4.10764 7.0727 5.59017 5.59017 
C 7.0727 4.10764 7.905694 2.096615 7.905694 0 
C 7.905694 -2.096615 7.0727 -4.10764 5.59017 -5.59017 
C 4.10764 -7.0727 2.096615 -7.905694 0 -7.905694 
C -2.096615 -7.905694 -4.10764 -7.0727 -5.59017 -5.59017 
C -7.0727 -4.10764 -7.905694 -2.096615 -7.905694 0 
C -7.905694 2.096615 -7.0727 4.10764 -5.59017 5.59017 
C -4.10764 7.0727 -2.096615 7.905694 0 7.905694 
z
" id="m3c85c9fe37" style="stroke:#000000;stroke-opacity:0.8;stroke-width:0.5;"/>
    </defs>
    <g clip-path="url(#p0ca13482d1)">
     <use style="fill:#71020e;fill-opacity:0.8;stroke:#000000;stroke-opacity:0.8;stroke-width:0.5;" x="473.494555" xlink:href="#m3c85c9fe37" y="106.153813"/>
    </g>
   </g>
   <g id="PathCollection_12">
    <defs>
     <path d="M 0 7.905694 
C 2.096615 7.905694 4.10764 7.0727 5.59017 5.59017 
C 7.0727 4.10764 7.905694 2.096615 7.905694 0 
C 7.905694 -2.096615 7.0727 -4.10764 5.59017 -5.59017 
C 4.10764 -7.0727 2.096615 -7.905694 0 -7.905694 
C -2.096615 -7.905694 -4.10764 -7.0727 -5.59017 -5.59017 
C -7.0727 -4.10764 -7.905694 -2.096615 -7.905694 0 
C -7.905694 2.096615 -7.0727 4.10764 -5.59017 5.59017 
C -4.10764 7.0727 -2.096615 7.905694 0 7.905694 
z
" id="m223673b0ed" style="stroke:#000000;stroke-opacity:0.8;stroke-width:0.5;"/>
    </defs>
    <g clip-path="url(#p0ca13482d1)">
     <use style="fill:#940b13;fill-opacity:0.8;stroke:#000000;stroke-opacity:0.8;stroke-width:0.5;" x="401.280583" xlink:href="#m223673b0ed" y="327.382919"/>
    </g>
   </g>
   <g id="PathCollection_13">
    <defs>
     <path d="M 0 7.905694 
C 2.096615 7.905694 4.10764 7.0727 5.59017 5.59017 
C 7.0727 4.10764 7.905694 2.096615 7.905694 0 
C 7.905694 -2.096615 7.0727 -4.10764 5.59017 -5.59017 
C 4.10764 -7.0727 2.096615 -7.905694 0 -7.905694 
C -2.096615 -7.905694 -4.10764 -7.0727 -5.59017 -5.59017 
C -7.0727 -4.10764 -7.905694 -2.096615 -7.905694 0 
C -7.905694 2.096615 -7.0727 4.10764 -5.59017 5.59017 
C -4.10764 7.0727 -2.096615 7.905694 0 7.905694 
z
" id="md377a9ffcc" style="stroke:#000000;stroke-opacity:0.8;stroke-width:0.5;"/>
    </defs>
    <g clip-path="url(#p0ca13482d1)">
     <use style="fill:#ca181d;fill-opacity:0.8;stroke:#000000;stroke-opacity:0.8;stroke-width:0.5;" x="477.664522" xlink:href="#md377a9ffcc" y="195.424299"/>
    </g>
   </g>
   <g id="PathCollection_14">
    <g clip-path="url(#p0ca13482d1)">
     <use style="fill:#d82422;fill-opacity:0.8;stroke:#000000;stroke-opacity:0.8;stroke-width:0.5;" x="351.736486" xlink:href="#mebb36184d9" y="161.877949"/>
    </g>
   </g>
   <g id="PathCollection_15">
    <g clip-path="url(#p0ca13482d1)">
     <use style="fill:#d82422;fill-opacity:0.8;stroke:#000000;stroke-opacity:0.8;stroke-width:0.5;" x="378.570072" xlink:href="#mebb36184d9" y="176.383116"/>
    </g>
   </g>
   <g id="PathCollection_16">
    <defs>
     <path d="M 0 7.905694 
C 2.096615 7.905694 4.10764 7.0727 5.59017 5.59017 
C 7.0727 4.10764 7.905694 2.096615 7.905694 0 
C 7.905694 -2.096615 7.0727 -4.10764 5.59017 -5.59017 
C 4.10764 -7.0727 2.096615 -7.905694 0 -7.905694 
C -2.096615 -7.905694 -4.10764 -7.0727 -5.59017 -5.59017 
C -7.0727 -4.10764 -7.905694 -2.096615 -7.905694 0 
C -7.905694 2.096615 -7.0727 4.10764 -5.59017 5.59017 
C -4.10764 7.0727 -2.096615 7.905694 0 7.905694 
z
" id="meea6ded7e0" style="stroke:#000000;stroke-opacity:0.8;stroke-width:0.5;"/>
    </defs>
    <g clip-path="url(#p0ca13482d1)">
     <use style="fill:#f96245;fill-opacity:0.8;stroke:#000000;stroke-opacity:0.8;stroke-width:0.5;" x="314.32652" xlink:href="#meea6ded7e0" y="169.871592"/>
    </g>
   </g>
   <g id="PathCollection_17">
    <defs>
     <path d="M 0 7.905694 
C 2.096615 7.905694 4.10764 7.0727 5.59017 5.59017 
C 7.0727 4.10764 7.905694 2.096615 7.905694 0 
C 7.905694 -2.096615 7.0727 -4.10764 5.59017 -5.59017 
C 4.10764 -7.0727 2.096615 -7.905694 0 -7.905694 
C -2.096615 -7.905694 -4.10764 -7.0727 -5.59017 -5.59017 
C -7.0727 -4.10764 -7.905694 -2.096615 -7.905694 0 
C -7.905694 2.096615 -7.0727 4.10764 -5.59017 5.59017 
C -4.10764 7.0727 -2.096615 7.905694 0 7.905694 
z
" id="m937523467d" style="stroke:#000000;stroke-opacity:0.8;stroke-width:0.5;"/>
    </defs>
    <g clip-path="url(#p0ca13482d1)">
     <use style="fill:#880811;fill-opacity:0.8;stroke:#000000;stroke-opacity:0.8;stroke-width:0.5;" x="398.73597" xlink:href="#m937523467d" y="322.865772"/>
    </g>
   </g>
   <g id="PathCollection_18">
    <defs>
     <path d="M 0 7.905694 
C 2.096615 7.905694 4.10764 7.0727 5.59017 5.59017 
C 7.0727 4.10764 7.905694 2.096615 7.905694 0 
C 7.905694 -2.096615 7.0727 -4.10764 5.59017 -5.59017 
C 4.10764 -7.0727 2.096615 -7.905694 0 -7.905694 
C -2.096615 -7.905694 -4.10764 -7.0727 -5.59017 -5.59017 
C -7.0727 -4.10764 -7.905694 -2.096615 -7.905694 0 
C -7.905694 2.096615 -7.0727 4.10764 -5.59017 5.59017 
C -4.10764 7.0727 -2.096615 7.905694 0 7.905694 
z
" id="m2194d428da" style="stroke:#000000;stroke-opacity:0.8;stroke-width:0.5;"/>
    </defs>
    <g clip-path="url(#p0ca13482d1)">
     <use style="fill:#ec382b;fill-opacity:0.8;stroke:#000000;stroke-opacity:0.8;stroke-width:0.5;" x="303.555184" xlink:href="#m2194d428da" y="240.089017"/>
    </g>
   </g>
   <g id="PathCollection_19">
    <defs>
     <path d="M 0 7.905694 
C 2.096615 7.905694 4.10764 7.0727 5.59017 5.59017 
C 7.0727 4.10764 7.905694 2.096615 7.905694 0 
C 7.905694 -2.096615 7.0727 -4.10764 5.59017 -5.59017 
C 4.10764 -7.0727 2.096615 -7.905694 0 -7.905694 
C -2.096615 -7.905694 -4.10764 -7.0727 -5.59017 -5.59017 
C -7.0727 -4.10764 -7.905694 -2.096615 -7.905694 0 
C -7.905694 2.096615 -7.0727 4.10764 -5.59017 5.59017 
C -4.10764 7.0727 -2.096615 7.905694 0 7.905694 
z
" id="m4448a623ad" style="stroke:#000000;stroke-opacity:0.8;stroke-width:0.5;"/>
    </defs>
    <g clip-path="url(#p0ca13482d1)">
     <use style="fill:#f03f2e;fill-opacity:0.8;stroke:#000000;stroke-opacity:0.8;stroke-width:0.5;" x="302.901482" xlink:href="#m4448a623ad" y="211.083207"/>
    </g>
   </g>
   <g id="PathCollection_20">
    <defs>
     <path d="M 0 7.905694 
C 2.096615 7.905694 4.10764 7.0727 5.59017 5.59017 
C 7.0727 4.10764 7.905694 2.096615 7.905694 0 
C 7.905694 -2.096615 7.0727 -4.10764 5.59017 -5.59017 
C 4.10764 -7.0727 2.096615 -7.905694 0 -7.905694 
C -2.096615 -7.905694 -4.10764 -7.0727 -5.59017 -5.59017 
C -7.0727 -4.10764 -7.905694 -2.096615 -7.905694 0 
C -7.905694 2.096615 -7.0727 4.10764 -5.59017 5.59017 
C -4.10764 7.0727 -2.096615 7.905694 0 7.905694 
z
" id="m09d97015cf" style="stroke:#000000;stroke-opacity:0.8;stroke-width:0.5;"/>
    </defs>
    <g clip-path="url(#p0ca13482d1)">
     <use style="fill:#fb694a;fill-opacity:0.8;stroke:#000000;stroke-opacity:0.8;stroke-width:0.5;" x="290.937217" xlink:href="#m09d97015cf" y="223.406464"/>
    </g>
   </g>
   <g id="PathCollection_21">
    <defs>
     <path d="M 0 7.905694 
C 2.096615 7.905694 4.10764 7.0727 5.59017 5.59017 
C 7.0727 4.10764 7.905694 2.096615 7.905694 0 
C 7.905694 -2.096615 7.0727 -4.10764 5.59017 -5.59017 
C 4.10764 -7.0727 2.096615 -7.905694 0 -7.905694 
C -2.096615 -7.905694 -4.10764 -7.0727 -5.59017 -5.59017 
C -7.0727 -4.10764 -7.905694 -2.096615 -7.905694 0 
C -7.905694 2.096615 -7.0727 4.10764 -5.59017 5.59017 
C -4.10764 7.0727 -2.096615 7.905694 0 7.905694 
z
" id="m53dc53a285" style="stroke:#000000;stroke-opacity:0.8;stroke-width:0.5;"/>
    </defs>
    <g clip-path="url(#p0ca13482d1)">
     <use style="fill:#fb7858;fill-opacity:0.8;stroke:#000000;stroke-opacity:0.8;stroke-width:0.5;" x="299.939767" xlink:href="#m53dc53a285" y="240.261613"/>
    </g>
   </g>
   <g id="PathCollection_22">
    <defs>
     <path d="M 0 -5 
L -5 5 
L 5 5 
z
" id="m08b26d7ea7" style="stroke:#000000;stroke-opacity:0.9;stroke-width:0.5;"/>
    </defs>
    <g clip-path="url(#p0ca13482d1)">
     <use style="fill:#fff5f0;fill-opacity:0.9;stroke:#000000;stroke-opacity:0.9;stroke-width:0.5;" x="180.562611" xlink:href="#m08b26d7ea7" y="122.796601"/>
    </g>
   </g>
   <g id="PathCollection_23">
    <g clip-path="url(#p0ca13482d1)">
     <use style="fill:#fff5f0;fill-opacity:0.9;stroke:#000000;stroke-opacity:0.9;stroke-width:0.5;" x="172.83741" xlink:href="#m08b26d7ea7" y="192.672563"/>
    </g>
   </g>
   <g id="PathCollection_24">
    <g clip-path="url(#p0ca13482d1)">
     <use style="fill:#fff5f0;fill-opacity:0.9;stroke:#000000;stroke-opacity:0.9;stroke-width:0.5;" x="182.483771" xlink:href="#m08b26d7ea7" y="144.932945"/>
    </g>
   </g>
   <g id="PathCollection_25">
    <g clip-path="url(#p0ca13482d1)">
     <use style="fill:#fff5f0;fill-opacity:0.9;stroke:#000000;stroke-opacity:0.9;stroke-width:0.5;" x="168.013504" xlink:href="#m08b26d7ea7" y="134.959499"/>
    </g>
   </g>
   <g id="PathCollection_26">
    <g clip-path="url(#p0ca13482d1)">
     <use style="fill:#fff5f0;fill-opacity:0.9;stroke:#000000;stroke-opacity:0.9;stroke-width:0.5;" x="168.689373" xlink:href="#m08b26d7ea7" y="149.316954"/>
    </g>
   </g>
   <g id="PathCollection_27">
    <g clip-path="url(#p0ca13482d1)">
     <use style="fill:#fff5f0;fill-opacity:0.9;stroke:#000000;stroke-opacity:0.9;stroke-width:0.5;" x="154.925975" xlink:href="#m08b26d7ea7" y="147.301491"/>
    </g>
   </g>
   <g id="PathCollection_28">
    <g clip-path="url(#p0ca13482d1)">
     <use style="fill:#fff5f0;fill-opacity:0.9;stroke:#000000;stroke-opacity:0.9;stroke-width:0.5;" x="180.538249" xlink:href="#m08b26d7ea7" y="127.711631"/>
    </g>
   </g>
   <g id="PathCollection_29">
    <g clip-path="url(#p0ca13482d1)">
     <use style="fill:#fff5f0;fill-opacity:0.9;stroke:#000000;stroke-opacity:0.9;stroke-width:0.5;" x="165.086064" xlink:href="#m08b26d7ea7" y="174.812985"/>
    </g>
   </g>
   <g id="PathCollection_30">
    <g clip-path="url(#p0ca13482d1)">
     <use style="fill:#fff5f0;fill-opacity:0.9;stroke:#000000;stroke-opacity:0.9;stroke-width:0.5;" x="179.050655" xlink:href="#m08b26d7ea7" y="152.893035"/>
    </g>
   </g>
   <g id="PathCollection_31">
    <g clip-path="url(#p0ca13482d1)">
     <use style="fill:#fff5f0;fill-opacity:0.9;stroke:#000000;stroke-opacity:0.9;stroke-width:0.5;" x="170.515591" xlink:href="#m08b26d7ea7" y="151.862341"/>
    </g>
   </g>
   <g id="PathCollection_32">
    <g clip-path="url(#p0ca13482d1)">
     <use style="fill:#fff5f0;fill-opacity:0.9;stroke:#000000;stroke-opacity:0.9;stroke-width:0.5;" x="171.70139" xlink:href="#m08b26d7ea7" y="190.15692"/>
    </g>
   </g>
   <g id="PathCollection_33">
    <g clip-path="url(#p0ca13482d1)">
     <use style="fill:#fff5f0;fill-opacity:0.9;stroke:#000000;stroke-opacity:0.9;stroke-width:0.5;" x="172.219781" xlink:href="#m08b26d7ea7" y="181.468098"/>
    </g>
   </g>
   <g id="PathCollection_34">
    <g clip-path="url(#p0ca13482d1)">
     <use style="fill:#fff5f0;fill-opacity:0.9;stroke:#000000;stroke-opacity:0.9;stroke-width:0.5;" x="173.016744" xlink:href="#m08b26d7ea7" y="185.391526"/>
    </g>
   </g>
   <g id="PathCollection_35">
    <g clip-path="url(#p0ca13482d1)">
     <use style="fill:#fff5f0;fill-opacity:0.9;stroke:#000000;stroke-opacity:0.9;stroke-width:0.5;" x="172.854425" xlink:href="#m08b26d7ea7" y="187.792797"/>
    </g>
   </g>
   <g id="PathCollection_36">
    <g clip-path="url(#p0ca13482d1)">
     <use style="fill:#fff5f0;fill-opacity:0.9;stroke:#000000;stroke-opacity:0.9;stroke-width:0.5;" x="167.81087" xlink:href="#m08b26d7ea7" y="150.651213"/>
    </g>
   </g>
   <g id="PathCollection_37">
    <g clip-path="url(#p0ca13482d1)">
     <use style="fill:#fff5f0;fill-opacity:0.9;stroke:#000000;stroke-opacity:0.9;stroke-width:0.5;" x="178.577926" xlink:href="#m08b26d7ea7" y="151.792479"/>
    </g>
   </g>
   <g id="PathCollection_38">
    <defs>
     <path d="M 0 -5 
L -5 5 
L 5 5 
z
" id="m4d34f98810" style="stroke:#000000;stroke-opacity:0.9;stroke-width:0.5;"/>
    </defs>
    <g clip-path="url(#p0ca13482d1)">
     <use style="fill:#f96245;fill-opacity:0.9;stroke:#000000;stroke-opacity:0.9;stroke-width:0.5;" x="317.58049" xlink:href="#m4d34f98810" y="129.233638"/>
    </g>
   </g>
   <g id="PathCollection_39">
    <g clip-path="url(#p0ca13482d1)">
     <use style="fill:#f96245;fill-opacity:0.9;stroke:#000000;stroke-opacity:0.9;stroke-width:0.5;" x="340.201106" xlink:href="#m4d34f98810" y="185.429874"/>
    </g>
   </g>
   <g id="PathCollection_40">
    <g clip-path="url(#p0ca13482d1)">
     <use style="fill:#f96245;fill-opacity:0.9;stroke:#000000;stroke-opacity:0.9;stroke-width:0.5;" x="345.266572" xlink:href="#m4d34f98810" y="148.353626"/>
    </g>
   </g>
   <g id="PathCollection_41">
    <g clip-path="url(#p0ca13482d1)">
     <use style="fill:#f96245;fill-opacity:0.9;stroke:#000000;stroke-opacity:0.9;stroke-width:0.5;" x="357.258135" xlink:href="#m4d34f98810" y="187.553974"/>
    </g>
   </g>
   <g id="PathCollection_42">
    <g clip-path="url(#p0ca13482d1)">
     <use style="fill:#f96245;fill-opacity:0.9;stroke:#000000;stroke-opacity:0.9;stroke-width:0.5;" x="341.015659" xlink:href="#m4d34f98810" y="147.984523"/>
    </g>
   </g>
   <g id="PathCollection_43">
    <g clip-path="url(#p0ca13482d1)">
     <use style="fill:#f96245;fill-opacity:0.9;stroke:#000000;stroke-opacity:0.9;stroke-width:0.5;" x="349.695703" xlink:href="#m4d34f98810" y="157.826553"/>
    </g>
   </g>
   <g id="PathCollection_44">
    <g clip-path="url(#p0ca13482d1)">
     <use style="fill:#f96245;fill-opacity:0.9;stroke:#000000;stroke-opacity:0.9;stroke-width:0.5;" x="316.562235" xlink:href="#m4d34f98810" y="129.821822"/>
    </g>
   </g>
   <g id="PathCollection_45">
    <g clip-path="url(#p0ca13482d1)">
     <use style="fill:#f96245;fill-opacity:0.9;stroke:#000000;stroke-opacity:0.9;stroke-width:0.5;" x="305.229358" xlink:href="#m4d34f98810" y="130.254802"/>
    </g>
   </g>
   <g id="PathCollection_46">
    <g clip-path="url(#p0ca13482d1)">
     <use style="fill:#f96245;fill-opacity:0.9;stroke:#000000;stroke-opacity:0.9;stroke-width:0.5;" x="315.146959" xlink:href="#m4d34f98810" y="120.462305"/>
    </g>
   </g>
   <g id="PathCollection_47">
    <g clip-path="url(#p0ca13482d1)">
     <use style="fill:#f96245;fill-opacity:0.9;stroke:#000000;stroke-opacity:0.9;stroke-width:0.5;" x="314.741519" xlink:href="#m4d34f98810" y="183.810748"/>
    </g>
   </g>
   <g id="PathCollection_48">
    <defs>
     <path d="M 0 -5 
L -5 5 
L 5 5 
z
" id="m5cd5544bff" style="stroke:#000000;stroke-opacity:0.9;stroke-width:0.5;"/>
    </defs>
    <g clip-path="url(#p0ca13482d1)">
     <use style="fill:#f03f2e;fill-opacity:0.9;stroke:#000000;stroke-opacity:0.9;stroke-width:0.5;" x="298.499321" xlink:href="#m5cd5544bff" y="135.326527"/>
    </g>
   </g>
   <g id="PathCollection_49">
    <g clip-path="url(#p0ca13482d1)">
     <use style="fill:#f03f2e;fill-opacity:0.9;stroke:#000000;stroke-opacity:0.9;stroke-width:0.5;" x="323.270988" xlink:href="#m5cd5544bff" y="160.987834"/>
    </g>
   </g>
   <g id="PathCollection_50">
    <g clip-path="url(#p0ca13482d1)">
     <use style="fill:#f03f2e;fill-opacity:0.9;stroke:#000000;stroke-opacity:0.9;stroke-width:0.5;" x="337.011119" xlink:href="#m5cd5544bff" y="169.458704"/>
    </g>
   </g>
   <g id="PathCollection_51">
    <g clip-path="url(#p0ca13482d1)">
     <use style="fill:#f03f2e;fill-opacity:0.9;stroke:#000000;stroke-opacity:0.9;stroke-width:0.5;" x="323.743918" xlink:href="#m5cd5544bff" y="170.57916"/>
    </g>
   </g>
   <g id="PathCollection_52">
    <g clip-path="url(#p0ca13482d1)">
     <use style="fill:#f03f2e;fill-opacity:0.9;stroke:#000000;stroke-opacity:0.9;stroke-width:0.5;" x="322.979712" xlink:href="#m5cd5544bff" y="205.891857"/>
    </g>
   </g>
   <g id="PathCollection_53">
    <g clip-path="url(#p0ca13482d1)">
     <use style="fill:#f03f2e;fill-opacity:0.9;stroke:#000000;stroke-opacity:0.9;stroke-width:0.5;" x="330.851968" xlink:href="#m5cd5544bff" y="163.855936"/>
    </g>
   </g>
   <g id="PathCollection_54">
    <g clip-path="url(#p0ca13482d1)">
     <use style="fill:#f03f2e;fill-opacity:0.9;stroke:#000000;stroke-opacity:0.9;stroke-width:0.5;" x="247.609426" xlink:href="#m5cd5544bff" y="114.052734"/>
    </g>
   </g>
   <g id="PathCollection_55">
    <g clip-path="url(#p0ca13482d1)">
     <use style="fill:#f03f2e;fill-opacity:0.9;stroke:#000000;stroke-opacity:0.9;stroke-width:0.5;" x="337.145893" xlink:href="#m5cd5544bff" y="164.619135"/>
    </g>
   </g>
   <g id="PathCollection_56">
    <g clip-path="url(#p0ca13482d1)">
     <use style="fill:#f03f2e;fill-opacity:0.9;stroke:#000000;stroke-opacity:0.9;stroke-width:0.5;" x="238.842025" xlink:href="#m5cd5544bff" y="119.826074"/>
    </g>
   </g>
   <g id="PathCollection_57">
    <g clip-path="url(#p0ca13482d1)">
     <use style="fill:#f03f2e;fill-opacity:0.9;stroke:#000000;stroke-opacity:0.9;stroke-width:0.5;" x="322.51141" xlink:href="#m5cd5544bff" y="254.870196"/>
    </g>
   </g>
   <g id="PathCollection_58">
    <defs>
     <path d="M 0 -5 
L -5 5 
L 5 5 
z
" id="m4054c14c89" style="stroke:#000000;stroke-opacity:0.9;stroke-width:0.5;"/>
    </defs>
    <g clip-path="url(#p0ca13482d1)">
     <use style="fill:#ec382b;fill-opacity:0.9;stroke:#000000;stroke-opacity:0.9;stroke-width:0.5;" x="334.806344" xlink:href="#m4054c14c89" y="293.945071"/>
    </g>
   </g>
   <g id="PathCollection_59">
    <g clip-path="url(#p0ca13482d1)">
     <use style="fill:#ec382b;fill-opacity:0.9;stroke:#000000;stroke-opacity:0.9;stroke-width:0.5;" x="291.623032" xlink:href="#m4054c14c89" y="228.935813"/>
    </g>
   </g>
   <g id="PathCollection_60">
    <g clip-path="url(#p0ca13482d1)">
     <use style="fill:#ec382b;fill-opacity:0.9;stroke:#000000;stroke-opacity:0.9;stroke-width:0.5;" x="327.581419" xlink:href="#m4054c14c89" y="267.082568"/>
    </g>
   </g>
   <g id="PathCollection_61">
    <g clip-path="url(#p0ca13482d1)">
     <use style="fill:#ec382b;fill-opacity:0.9;stroke:#000000;stroke-opacity:0.9;stroke-width:0.5;" x="313.043214" xlink:href="#m4054c14c89" y="278.218944"/>
    </g>
   </g>
   <g id="PathCollection_62">
    <g clip-path="url(#p0ca13482d1)">
     <use style="fill:#ec382b;fill-opacity:0.9;stroke:#000000;stroke-opacity:0.9;stroke-width:0.5;" x="308.582327" xlink:href="#m4054c14c89" y="236.335687"/>
    </g>
   </g>
   <g id="PathCollection_63">
    <g clip-path="url(#p0ca13482d1)">
     <use style="fill:#ec382b;fill-opacity:0.9;stroke:#000000;stroke-opacity:0.9;stroke-width:0.5;" x="367.071523" xlink:href="#m4054c14c89" y="275.773316"/>
    </g>
   </g>
   <g id="PathCollection_64">
    <g clip-path="url(#p0ca13482d1)">
     <use style="fill:#ec382b;fill-opacity:0.9;stroke:#000000;stroke-opacity:0.9;stroke-width:0.5;" x="322.330517" xlink:href="#m4054c14c89" y="292.914214"/>
    </g>
   </g>
   <g id="PathCollection_65">
    <g clip-path="url(#p0ca13482d1)">
     <use style="fill:#ec382b;fill-opacity:0.9;stroke:#000000;stroke-opacity:0.9;stroke-width:0.5;" x="299.646338" xlink:href="#m4054c14c89" y="263.414637"/>
    </g>
   </g>
   <g id="PathCollection_66">
    <g clip-path="url(#p0ca13482d1)">
     <use style="fill:#ec382b;fill-opacity:0.9;stroke:#000000;stroke-opacity:0.9;stroke-width:0.5;" x="321.991347" xlink:href="#m4054c14c89" y="313.704794"/>
    </g>
   </g>
   <g id="PathCollection_67">
    <g clip-path="url(#p0ca13482d1)">
     <use style="fill:#ec382b;fill-opacity:0.9;stroke:#000000;stroke-opacity:0.9;stroke-width:0.5;" x="320.578202" xlink:href="#m4054c14c89" y="300.871636"/>
    </g>
   </g>
   <g id="PathCollection_68">
    <g clip-path="url(#p0ca13482d1)">
     <use style="fill:#ec382b;fill-opacity:0.9;stroke:#000000;stroke-opacity:0.9;stroke-width:0.5;" x="323.628567" xlink:href="#m4054c14c89" y="271.197682"/>
    </g>
   </g>
   <g id="PathCollection_69">
    <g clip-path="url(#p0ca13482d1)">
     <use style="fill:#ec382b;fill-opacity:0.9;stroke:#000000;stroke-opacity:0.9;stroke-width:0.5;" x="360.911766" xlink:href="#m4054c14c89" y="260.36492"/>
    </g>
   </g>
   <g id="PathCollection_70">
    <g clip-path="url(#p0ca13482d1)">
     <use style="fill:#ec382b;fill-opacity:0.9;stroke:#000000;stroke-opacity:0.9;stroke-width:0.5;" x="332.457894" xlink:href="#m4054c14c89" y="348.647564"/>
    </g>
   </g>
   <g id="PathCollection_71">
    <g clip-path="url(#p0ca13482d1)">
     <use style="fill:#ec382b;fill-opacity:0.9;stroke:#000000;stroke-opacity:0.9;stroke-width:0.5;" x="328.109476" xlink:href="#m4054c14c89" y="336.268788"/>
    </g>
   </g>
   <g id="PathCollection_72">
    <g clip-path="url(#p0ca13482d1)">
     <use style="fill:#ec382b;fill-opacity:0.9;stroke:#000000;stroke-opacity:0.9;stroke-width:0.5;" x="362.333345" xlink:href="#m4054c14c89" y="286.864255"/>
    </g>
   </g>
   <g id="PathCollection_73">
    <g clip-path="url(#p0ca13482d1)">
     <use style="fill:#ec382b;fill-opacity:0.9;stroke:#000000;stroke-opacity:0.9;stroke-width:0.5;" x="338.517947" xlink:href="#m4054c14c89" y="262.550434"/>
    </g>
   </g>
   <g id="PathCollection_74">
    <defs>
     <path d="M 0 -5 
L -5 5 
L 5 5 
z
" id="m836bb475ae" style="stroke:#000000;stroke-opacity:0.9;stroke-width:0.5;"/>
    </defs>
    <g clip-path="url(#p0ca13482d1)">
     <use style="fill:#d82422;fill-opacity:0.9;stroke:#000000;stroke-opacity:0.9;stroke-width:0.5;" x="477.636709" xlink:href="#m836bb475ae" y="102.723642"/>
    </g>
   </g>
   <g id="PathCollection_75">
    <g clip-path="url(#p0ca13482d1)">
     <use style="fill:#d82422;fill-opacity:0.9;stroke:#000000;stroke-opacity:0.9;stroke-width:0.5;" x="491.465636" xlink:href="#m836bb475ae" y="134.264231"/>
    </g>
   </g>
   <g id="PathCollection_76">
    <g clip-path="url(#p0ca13482d1)">
     <use style="fill:#d82422;fill-opacity:0.9;stroke:#000000;stroke-opacity:0.9;stroke-width:0.5;" x="459.828157" xlink:href="#m836bb475ae" y="64.87197"/>
    </g>
   </g>
   <g id="PathCollection_77">
    <g clip-path="url(#p0ca13482d1)">
     <use style="fill:#d82422;fill-opacity:0.9;stroke:#000000;stroke-opacity:0.9;stroke-width:0.5;" x="464.449132" xlink:href="#m836bb475ae" y="63.998836"/>
    </g>
   </g>
   <g id="PathCollection_78">
    <g clip-path="url(#p0ca13482d1)">
     <use style="fill:#d82422;fill-opacity:0.9;stroke:#000000;stroke-opacity:0.9;stroke-width:0.5;" x="467.96376" xlink:href="#m836bb475ae" y="73.784845"/>
    </g>
   </g>
   <g id="PathCollection_79">
    <g clip-path="url(#p0ca13482d1)">
     <use style="fill:#d82422;fill-opacity:0.9;stroke:#000000;stroke-opacity:0.9;stroke-width:0.5;" x="471.084089" xlink:href="#m836bb475ae" y="65.334555"/>
    </g>
   </g>
   <g id="PathCollection_80">
    <g clip-path="url(#p0ca13482d1)">
     <use style="fill:#d82422;fill-opacity:0.9;stroke:#000000;stroke-opacity:0.9;stroke-width:0.5;" x="480.277199" xlink:href="#m836bb475ae" y="174.099781"/>
    </g>
   </g>
   <g id="PathCollection_81">
    <g clip-path="url(#p0ca13482d1)">
     <use style="fill:#d82422;fill-opacity:0.9;stroke:#000000;stroke-opacity:0.9;stroke-width:0.5;" x="451.570395" xlink:href="#m836bb475ae" y="230.399898"/>
    </g>
   </g>
   <g id="PathCollection_82">
    <g clip-path="url(#p0ca13482d1)">
     <use style="fill:#d82422;fill-opacity:0.9;stroke:#000000;stroke-opacity:0.9;stroke-width:0.5;" x="418.568294" xlink:href="#m836bb475ae" y="251.068224"/>
    </g>
   </g>
   <g id="PathCollection_83">
    <g clip-path="url(#p0ca13482d1)">
     <use style="fill:#d82422;fill-opacity:0.9;stroke:#000000;stroke-opacity:0.9;stroke-width:0.5;" x="442.52119" xlink:href="#m836bb475ae" y="236.786896"/>
    </g>
   </g>
   <g id="PathCollection_84">
    <g clip-path="url(#p0ca13482d1)">
     <use style="fill:#d82422;fill-opacity:0.9;stroke:#000000;stroke-opacity:0.9;stroke-width:0.5;" x="470.633943" xlink:href="#m836bb475ae" y="211.251999"/>
    </g>
   </g>
   <g id="PathCollection_85">
    <g clip-path="url(#p0ca13482d1)">
     <use style="fill:#d82422;fill-opacity:0.9;stroke:#000000;stroke-opacity:0.9;stroke-width:0.5;" x="464.112391" xlink:href="#m836bb475ae" y="239.054104"/>
    </g>
   </g>
   <g id="PathCollection_86">
    <g clip-path="url(#p0ca13482d1)">
     <use style="fill:#d82422;fill-opacity:0.9;stroke:#000000;stroke-opacity:0.9;stroke-width:0.5;" x="461.039778" xlink:href="#m836bb475ae" y="85.344875"/>
    </g>
   </g>
   <g id="PathCollection_87">
    <g clip-path="url(#p0ca13482d1)">
     <use style="fill:#d82422;fill-opacity:0.9;stroke:#000000;stroke-opacity:0.9;stroke-width:0.5;" x="501.907341" xlink:href="#m836bb475ae" y="198.439266"/>
    </g>
   </g>
   <g id="patch_3">
    <path d="M 76.14 362.88 
L 76.14 49.7664 
" style="fill:none;stroke:#000000;stroke-linecap:square;stroke-linejoin:miter;stroke-width:2;"/>
   </g>
   <g id="patch_4">
    <path d="M 548.208 362.88 
L 548.208 49.7664 
" style="fill:none;stroke:#000000;stroke-linecap:square;stroke-linejoin:miter;stroke-width:2;"/>
   </g>
   <g id="patch_5">
    <path d="M 76.14 362.88 
L 548.208 362.88 
" style="fill:none;stroke:#000000;stroke-linecap:square;stroke-linejoin:miter;stroke-width:2;"/>
   </g>
   <g id="patch_6">
    <path d="M 76.14 49.7664 
L 548.208 49.7664 
" style="fill:none;stroke:#000000;stroke-linecap:square;stroke-linejoin:miter;stroke-width:2;"/>
   </g>
   <g id="legend_1">
    <g id="patch_7">
     <path d="M 79.14 359.88 
L 175.182187 359.88 
L 175.182187 331.58625 
L 79.14 331.58625 
z
" style="fill:#ffffff;stroke:#ffffff;stroke-linejoin:miter;"/>
    </g>
    <g id="text_3">
     <!-- $\mathbf{Antigens}$ -->
     <defs>
      <path d="M 53.421875 13.28125 
L 24.03125 13.28125 
L 19.390625 0 
L 0.484375 0 
L 27.484375 72.90625 
L 49.90625 72.90625 
L 76.90625 0 
L 58.015625 0 
z
M 28.71875 26.8125 
L 48.6875 26.8125 
L 38.71875 55.8125 
z
" id="DejaVuSans-Bold-65"/>
      <path d="M 63.375 33.296875 
L 63.375 0 
L 45.796875 0 
L 45.796875 5.421875 
L 45.796875 25.484375 
Q 45.796875 32.5625 45.484375 35.25 
Q 45.171875 37.9375 44.390625 39.203125 
Q 43.359375 40.921875 41.59375 41.875 
Q 39.84375 42.828125 37.59375 42.828125 
Q 32.125 42.828125 29 38.59375 
Q 25.875 34.375 25.875 26.90625 
L 25.875 0 
L 8.40625 0 
L 8.40625 54.6875 
L 25.875 54.6875 
L 25.875 46.6875 
Q 29.828125 51.46875 34.265625 53.734375 
Q 38.71875 56 44.09375 56 
Q 53.5625 56 58.46875 50.1875 
Q 63.375 44.390625 63.375 33.296875 
z
" id="DejaVuSans-Bold-110"/>
      <path d="M 27.484375 70.21875 
L 27.484375 54.6875 
L 45.515625 54.6875 
L 45.515625 42.1875 
L 27.484375 42.1875 
L 27.484375 19 
Q 27.484375 15.1875 29 13.84375 
Q 30.515625 12.5 35.015625 12.5 
L 44 12.5 
L 44 0 
L 29 0 
Q 18.65625 0 14.328125 4.3125 
Q 10.015625 8.640625 10.015625 19 
L 10.015625 42.1875 
L 1.3125 42.1875 
L 1.3125 54.6875 
L 10.015625 54.6875 
L 10.015625 70.21875 
z
" id="DejaVuSans-Bold-116"/>
      <path d="M 8.40625 54.6875 
L 25.875 54.6875 
L 25.875 0 
L 8.40625 0 
z
M 8.40625 75.984375 
L 25.875 75.984375 
L 25.875 61.71875 
L 8.40625 61.71875 
z
" id="DejaVuSans-Bold-105"/>
      <path d="M 45.609375 9.28125 
Q 42 4.5 37.640625 2.25 
Q 33.296875 0 27.59375 0 
Q 17.578125 0 11.03125 7.875 
Q 4.5 15.765625 4.5 27.984375 
Q 4.5 40.234375 11.03125 48.0625 
Q 17.578125 55.90625 27.59375 55.90625 
Q 33.296875 55.90625 37.640625 53.65625 
Q 42 51.421875 45.609375 46.578125 
L 45.609375 54.6875 
L 63.1875 54.6875 
L 63.1875 5.515625 
Q 63.1875 -7.671875 54.859375 -14.625 
Q 46.53125 -21.578125 30.71875 -21.578125 
Q 25.59375 -21.578125 20.796875 -20.796875 
Q 16.015625 -20.015625 11.1875 -18.40625 
L 11.1875 -4.78125 
Q 15.765625 -7.421875 20.15625 -8.71875 
Q 24.5625 -10.015625 29 -10.015625 
Q 37.59375 -10.015625 41.59375 -6.25 
Q 45.609375 -2.484375 45.609375 5.515625 
z
M 34.078125 43.3125 
Q 28.65625 43.3125 25.625 39.296875 
Q 22.609375 35.296875 22.609375 27.984375 
Q 22.609375 20.453125 25.53125 16.578125 
Q 28.46875 12.703125 34.078125 12.703125 
Q 39.546875 12.703125 42.578125 16.703125 
Q 45.609375 20.703125 45.609375 27.984375 
Q 45.609375 35.296875 42.578125 39.296875 
Q 39.546875 43.3125 34.078125 43.3125 
z
" id="DejaVuSans-Bold-103"/>
      <path d="M 62.984375 27.484375 
L 62.984375 22.515625 
L 22.125 22.515625 
Q 22.75 16.359375 26.5625 13.28125 
Q 30.375 10.203125 37.203125 10.203125 
Q 42.71875 10.203125 48.5 11.84375 
Q 54.296875 13.484375 60.40625 16.796875 
L 60.40625 3.328125 
Q 54.203125 0.984375 48 -0.21875 
Q 41.796875 -1.421875 35.59375 -1.421875 
Q 20.75 -1.421875 12.515625 6.125 
Q 4.296875 13.671875 4.296875 27.296875 
Q 4.296875 40.671875 12.375 48.328125 
Q 20.453125 56 34.625 56 
Q 47.515625 56 55.25 48.234375 
Q 62.984375 40.484375 62.984375 27.484375 
z
M 45.015625 33.296875 
Q 45.015625 38.28125 42.109375 41.328125 
Q 39.203125 44.390625 34.515625 44.390625 
Q 29.4375 44.390625 26.265625 41.53125 
Q 23.09375 38.671875 22.3125 33.296875 
z
" id="DejaVuSans-Bold-101"/>
      <path d="M 51.125 52.984375 
L 51.125 39.703125 
Q 45.515625 42.046875 40.28125 43.21875 
Q 35.0625 44.390625 30.421875 44.390625 
Q 25.4375 44.390625 23.015625 43.140625 
Q 20.609375 41.890625 20.609375 39.3125 
Q 20.609375 37.203125 22.4375 36.078125 
Q 24.265625 34.96875 29 34.421875 
L 32.078125 33.984375 
Q 45.515625 32.28125 50.140625 28.375 
Q 54.78125 24.46875 54.78125 16.109375 
Q 54.78125 7.375 48.328125 2.96875 
Q 41.890625 -1.421875 29.109375 -1.421875 
Q 23.6875 -1.421875 17.890625 -0.5625 
Q 12.109375 0.296875 6 2 
L 6 15.28125 
Q 11.234375 12.75 16.71875 11.46875 
Q 22.21875 10.203125 27.875 10.203125 
Q 33.015625 10.203125 35.59375 11.609375 
Q 38.1875 13.03125 38.1875 15.828125 
Q 38.1875 18.171875 36.40625 19.3125 
Q 34.625 20.453125 29.296875 21.09375 
L 26.21875 21.484375 
Q 14.546875 22.953125 9.859375 26.90625 
Q 5.171875 30.859375 5.171875 38.921875 
Q 5.171875 47.609375 11.125 51.796875 
Q 17.09375 56 29.390625 56 
Q 34.234375 56 39.546875 55.265625 
Q 44.875 54.546875 51.125 52.984375 
z
" id="DejaVuSans-Bold-115"/>
     </defs>
     <g transform="translate(151.54 338.54625)scale(0.06 -0.06)">
      <use transform="translate(0 0.015625)" xlink:href="#DejaVuSans-Bold-65"/>
      <use transform="translate(77.392578 0.015625)" xlink:href="#DejaVuSans-Bold-110"/>
      <use transform="translate(148.583984 0.015625)" xlink:href="#DejaVuSans-Bold-116"/>
      <use transform="translate(196.386719 0.015625)" xlink:href="#DejaVuSans-Bold-105"/>
      <use transform="translate(230.664062 0.015625)" xlink:href="#DejaVuSans-Bold-103"/>
      <use transform="translate(302.246094 0.015625)" xlink:href="#DejaVuSans-Bold-101"/>
      <use transform="translate(370.068359 0.015625)" xlink:href="#DejaVuSans-Bold-110"/>
      <use transform="translate(441.259766 0.015625)" xlink:href="#DejaVuSans-Bold-115"/>
     </g>
    </g>
    <g id="line2d_113">
     <path d="M 81.54 345.325312 
L 93.54 345.325312 
" style="fill:none;stroke:#ffffff;stroke-linecap:square;stroke-width:1.5;"/>
    </g>
    <g id="line2d_114">
     <defs>
      <path d="M 0 4.5 
C 1.193414 4.5 2.338109 4.025852 3.181981 3.181981 
C 4.025852 2.338109 4.5 1.193414 4.5 0 
C 4.5 -1.193414 4.025852 -2.338109 3.181981 -3.181981 
C 2.338109 -4.025852 1.193414 -4.5 0 -4.5 
C -1.193414 -4.5 -2.338109 -4.025852 -3.181981 -3.181981 
C -4.025852 -2.338109 -4.5 -1.193414 -4.5 0 
C -4.5 1.193414 -4.025852 2.338109 -3.181981 3.181981 
C -2.338109 4.025852 -1.193414 4.5 0 4.5 
z
" id="mab57deeb68" style="stroke:#ffffff;"/>
     </defs>
     <g>
      <use style="fill:#7f7f7f;stroke:#ffffff;" x="87.54" xlink:href="#mab57deeb68" y="345.325312"/>
     </g>
    </g>
    <g id="text_4">
     <!-- VoCs -->
     <defs>
      <path d="M 28.609375 0 
L 0.78125 72.90625 
L 11.078125 72.90625 
L 34.1875 11.53125 
L 57.328125 72.90625 
L 67.578125 72.90625 
L 39.796875 0 
z
" id="DejaVuSans-86"/>
      <path d="M 30.609375 48.390625 
Q 23.390625 48.390625 19.1875 42.75 
Q 14.984375 37.109375 14.984375 27.296875 
Q 14.984375 17.484375 19.15625 11.84375 
Q 23.34375 6.203125 30.609375 6.203125 
Q 37.796875 6.203125 41.984375 11.859375 
Q 46.1875 17.53125 46.1875 27.296875 
Q 46.1875 37.015625 41.984375 42.703125 
Q 37.796875 48.390625 30.609375 48.390625 
z
M 30.609375 56 
Q 42.328125 56 49.015625 48.375 
Q 55.71875 40.765625 55.71875 27.296875 
Q 55.71875 13.875 49.015625 6.21875 
Q 42.328125 -1.421875 30.609375 -1.421875 
Q 18.84375 -1.421875 12.171875 6.21875 
Q 5.515625 13.875 5.515625 27.296875 
Q 5.515625 40.765625 12.171875 48.375 
Q 18.84375 56 30.609375 56 
z
" id="DejaVuSans-111"/>
      <path d="M 64.40625 67.28125 
L 64.40625 56.890625 
Q 59.421875 61.53125 53.78125 63.8125 
Q 48.140625 66.109375 41.796875 66.109375 
Q 29.296875 66.109375 22.65625 58.46875 
Q 16.015625 50.828125 16.015625 36.375 
Q 16.015625 21.96875 22.65625 14.328125 
Q 29.296875 6.6875 41.796875 6.6875 
Q 48.140625 6.6875 53.78125 8.984375 
Q 59.421875 11.28125 64.40625 15.921875 
L 64.40625 5.609375 
Q 59.234375 2.09375 53.4375 0.328125 
Q 47.65625 -1.421875 41.21875 -1.421875 
Q 24.65625 -1.421875 15.125 8.703125 
Q 5.609375 18.84375 5.609375 36.375 
Q 5.609375 53.953125 15.125 64.078125 
Q 24.65625 74.21875 41.21875 74.21875 
Q 47.75 74.21875 53.53125 72.484375 
Q 59.328125 70.75 64.40625 67.28125 
z
" id="DejaVuSans-67"/>
     </defs>
     <g transform="translate(98.34 347.425313)scale(0.06 -0.06)">
      <use xlink:href="#DejaVuSans-86"/>
      <use x="60.658203" xlink:href="#DejaVuSans-111"/>
      <use x="121.839844" xlink:href="#DejaVuSans-67"/>
      <use x="191.664062" xlink:href="#DejaVuSans-115"/>
     </g>
    </g>
    <g id="line2d_115">
     <path d="M 81.54 354.132187 
L 93.54 354.132187 
" style="fill:none;stroke:#ffffff;stroke-linecap:square;stroke-width:1.5;"/>
    </g>
    <g id="line2d_116">
     <defs>
      <path d="M 0 -3.5 
L -3.5 3.5 
L 3.5 3.5 
z
" id="md2ee3bddec" style="stroke:#ffffff;stroke-linejoin:miter;"/>
     </defs>
     <g>
      <use style="fill:#7f7f7f;stroke:#ffffff;stroke-linejoin:miter;" x="87.54" xlink:href="#md2ee3bddec" y="354.132187"/>
     </g>
    </g>
    <g id="text_5">
     <!-- Designed future variants -->
     <defs>
      <path d="M 45.40625 46.390625 
L 45.40625 75.984375 
L 54.390625 75.984375 
L 54.390625 0 
L 45.40625 0 
L 45.40625 8.203125 
Q 42.578125 3.328125 38.25 0.953125 
Q 33.9375 -1.421875 27.875 -1.421875 
Q 17.96875 -1.421875 11.734375 6.484375 
Q 5.515625 14.40625 5.515625 27.296875 
Q 5.515625 40.1875 11.734375 48.09375 
Q 17.96875 56 27.875 56 
Q 33.9375 56 38.25 53.625 
Q 42.578125 51.265625 45.40625 46.390625 
z
M 14.796875 27.296875 
Q 14.796875 17.390625 18.875 11.75 
Q 22.953125 6.109375 30.078125 6.109375 
Q 37.203125 6.109375 41.296875 11.75 
Q 45.40625 17.390625 45.40625 27.296875 
Q 45.40625 37.203125 41.296875 42.84375 
Q 37.203125 48.484375 30.078125 48.484375 
Q 22.953125 48.484375 18.875 42.84375 
Q 14.796875 37.203125 14.796875 27.296875 
z
" id="DejaVuSans-100"/>
      <path d="M 37.109375 75.984375 
L 37.109375 68.5 
L 28.515625 68.5 
Q 23.6875 68.5 21.796875 66.546875 
Q 19.921875 64.59375 19.921875 59.515625 
L 19.921875 54.6875 
L 34.71875 54.6875 
L 34.71875 47.703125 
L 19.921875 47.703125 
L 19.921875 0 
L 10.890625 0 
L 10.890625 47.703125 
L 2.296875 47.703125 
L 2.296875 54.6875 
L 10.890625 54.6875 
L 10.890625 58.5 
Q 10.890625 67.625 15.140625 71.796875 
Q 19.390625 75.984375 28.609375 75.984375 
z
" id="DejaVuSans-102"/>
      <path d="M 8.5 21.578125 
L 8.5 54.6875 
L 17.484375 54.6875 
L 17.484375 21.921875 
Q 17.484375 14.15625 20.5 10.265625 
Q 23.53125 6.390625 29.59375 6.390625 
Q 36.859375 6.390625 41.078125 11.03125 
Q 45.3125 15.671875 45.3125 23.6875 
L 45.3125 54.6875 
L 54.296875 54.6875 
L 54.296875 0 
L 45.3125 0 
L 45.3125 8.40625 
Q 42.046875 3.421875 37.71875 1 
Q 33.40625 -1.421875 27.6875 -1.421875 
Q 18.265625 -1.421875 13.375 4.4375 
Q 8.5 10.296875 8.5 21.578125 
z
M 31.109375 56 
z
" id="DejaVuSans-117"/>
      <path d="M 41.109375 46.296875 
Q 39.59375 47.171875 37.8125 47.578125 
Q 36.03125 48 33.890625 48 
Q 26.265625 48 22.1875 43.046875 
Q 18.109375 38.09375 18.109375 28.8125 
L 18.109375 0 
L 9.078125 0 
L 9.078125 54.6875 
L 18.109375 54.6875 
L 18.109375 46.1875 
Q 20.953125 51.171875 25.484375 53.578125 
Q 30.03125 56 36.53125 56 
Q 37.453125 56 38.578125 55.875 
Q 39.703125 55.765625 41.0625 55.515625 
z
" id="DejaVuSans-114"/>
      <path d="M 2.984375 54.6875 
L 12.5 54.6875 
L 29.59375 8.796875 
L 46.6875 54.6875 
L 56.203125 54.6875 
L 35.6875 0 
L 23.484375 0 
z
" id="DejaVuSans-118"/>
     </defs>
     <g transform="translate(98.34 356.232188)scale(0.06 -0.06)">
      <use xlink:href="#DejaVuSans-68"/>
      <use x="77.001953" xlink:href="#DejaVuSans-101"/>
      <use x="138.525391" xlink:href="#DejaVuSans-115"/>
      <use x="190.625" xlink:href="#DejaVuSans-105"/>
      <use x="218.408203" xlink:href="#DejaVuSans-103"/>
      <use x="281.884766" xlink:href="#DejaVuSans-110"/>
      <use x="345.263672" xlink:href="#DejaVuSans-101"/>
      <use x="406.787109" xlink:href="#DejaVuSans-100"/>
      <use x="470.263672" xlink:href="#DejaVuSans-32"/>
      <use x="502.050781" xlink:href="#DejaVuSans-102"/>
      <use x="537.255859" xlink:href="#DejaVuSans-117"/>
      <use x="600.634766" xlink:href="#DejaVuSans-116"/>
      <use x="639.84375" xlink:href="#DejaVuSans-117"/>
      <use x="703.222656" xlink:href="#DejaVuSans-114"/>
      <use x="742.085938" xlink:href="#DejaVuSans-101"/>
      <use x="803.609375" xlink:href="#DejaVuSans-32"/>
      <use x="835.396484" xlink:href="#DejaVuSans-118"/>
      <use x="894.576172" xlink:href="#DejaVuSans-97"/>
      <use x="955.855469" xlink:href="#DejaVuSans-114"/>
      <use x="996.96875" xlink:href="#DejaVuSans-105"/>
      <use x="1024.751953" xlink:href="#DejaVuSans-97"/>
      <use x="1086.03125" xlink:href="#DejaVuSans-110"/>
      <use x="1149.410156" xlink:href="#DejaVuSans-116"/>
      <use x="1188.619141" xlink:href="#DejaVuSans-115"/>
     </g>
    </g>
   </g>
  </g>
 </g>
 <defs>
  <clipPath id="p0ca13482d1">
   <rect height="313.1136" width="472.068" x="76.14" y="49.7664"/>
  </clipPath>
 </defs>
</svg>
