<?xml version="1.0" encoding="utf-8" standalone="no"?>
<!DOCTYPE svg PUBLIC "-//W3C//DTD SVG 1.1//EN"
  "http://www.w3.org/Graphics/SVG/1.1/DTD/svg11.dtd">
<!-- Created with matplotlib (https://matplotlib.org/) -->
<svg height="216pt" version="1.1" viewBox="0 0 216 216" width="216pt" xmlns="http://www.w3.org/2000/svg" xmlns:xlink="http://www.w3.org/1999/xlink">
 <defs>
  <style type="text/css">
*{stroke-linecap:butt;stroke-linejoin:round;}
  </style>
 </defs>
 <g id="figure_1">
  <g id="patch_1">
   <path d="M 0 216 
L 216 216 
L 216 0 
L 0 0 
z
" style="fill:#ffffff;"/>
  </g>
  <g id="axes_1">
   <g id="patch_2">
    <path d="M 27 189 
L 194.4 189 
L 194.4 25.92 
L 27 25.92 
z
" style="fill:#ffffff;"/>
   </g>
   <g id="patch_3">
    <path clip-path="url(#p0d7294208f)" d="M 43.74 80.10889 
L 66.06 80.10889 
L 66.06 80.10889 
L 43.74 80.10889 
L 43.74 80.10889 
z
" style="stroke:#000000;stroke-linejoin:miter;stroke-width:1.5;"/>
   </g>
   <g id="patch_4">
    <path clip-path="url(#p0d7294208f)" d="M 99.54 98.4608 
L 121.86 98.4608 
L 121.86 98.4608 
L 99.54 98.4608 
L 99.54 98.4608 
z
" style="stroke:#000000;stroke-linejoin:miter;stroke-width:1.5;"/>
   </g>
   <g id="patch_5">
    <path clip-path="url(#p0d7294208f)" d="M 155.34 106.952678 
L 177.66 106.952678 
L 177.66 106.952678 
L 155.34 106.952678 
L 155.34 106.952678 
z
" style="stroke:#000000;stroke-linejoin:miter;stroke-width:1.5;"/>
   </g>
   <g id="PathCollection_1"/>
   <g id="PathCollection_2"/>
   <g id="PathCollection_3"/>
   <g id="matplotlib.axis_1">
    <g id="xtick_1">
     <g id="line2d_1">
      <defs>
       <path d="M 0 0 
L 0 3.5 
" id="m013a933828" style="stroke:#000000;stroke-width:0.8;"/>
      </defs>
      <g>
       <use style="stroke:#000000;stroke-width:0.8;" x="54.9" xlink:href="#m013a933828" y="189"/>
      </g>
     </g>
    </g>
    <g id="xtick_2">
     <g id="line2d_2">
      <g>
       <use style="stroke:#000000;stroke-width:0.8;" x="110.7" xlink:href="#m013a933828" y="189"/>
      </g>
     </g>
    </g>
    <g id="xtick_3">
     <g id="line2d_3">
      <g>
       <use style="stroke:#000000;stroke-width:0.8;" x="166.5" xlink:href="#m013a933828" y="189"/>
      </g>
     </g>
    </g>
   </g>
   <g id="matplotlib.axis_2">
    <g id="ytick_1">
     <g id="line2d_4">
      <defs>
       <path d="M 0 0 
L -3.5 0 
" id="m68d424d3c6" style="stroke:#000000;stroke-width:0.8;"/>
      </defs>
      <g>
       <use style="stroke:#000000;stroke-width:0.8;" x="27" xlink:href="#m68d424d3c6" y="176.42228"/>
      </g>
     </g>
     <g id="text_1">
      <!-- $\mathdefault{10^{1}}$ -->
      <defs>
       <path d="M 12.40625 8.296875 
L 28.515625 8.296875 
L 28.515625 63.921875 
L 10.984375 60.40625 
L 10.984375 69.390625 
L 28.421875 72.90625 
L 38.28125 72.90625 
L 38.28125 8.296875 
L 54.390625 8.296875 
L 54.390625 0 
L 12.40625 0 
z
" id="DejaVuSans-49"/>
       <path d="M 31.78125 66.40625 
Q 24.171875 66.40625 20.328125 58.90625 
Q 16.5 51.421875 16.5 36.375 
Q 16.5 21.390625 20.328125 13.890625 
Q 24.171875 6.390625 31.78125 6.390625 
Q 39.453125 6.390625 43.28125 13.890625 
Q 47.125 21.390625 47.125 36.375 
Q 47.125 51.421875 43.28125 58.90625 
Q 39.453125 66.40625 31.78125 66.40625 
z
M 31.78125 74.21875 
Q 44.046875 74.21875 50.515625 64.515625 
Q 56.984375 54.828125 56.984375 36.375 
Q 56.984375 17.96875 50.515625 8.265625 
Q 44.046875 -1.421875 31.78125 -1.421875 
Q 19.53125 -1.421875 13.0625 8.265625 
Q 6.59375 17.96875 6.59375 36.375 
Q 6.59375 54.828125 13.0625 64.515625 
Q 19.53125 74.21875 31.78125 74.21875 
z
" id="DejaVuSans-48"/>
      </defs>
      <g transform="translate(2.4 180.221499)scale(0.1 -0.1)">
       <use transform="translate(0 0.684375)" xlink:href="#DejaVuSans-49"/>
       <use transform="translate(63.623047 0.684375)" xlink:href="#DejaVuSans-48"/>
       <use transform="translate(128.203125 38.965625)scale(0.7)" xlink:href="#DejaVuSans-49"/>
      </g>
     </g>
    </g>
    <g id="ytick_2">
     <g id="line2d_5">
      <g>
       <use style="stroke:#000000;stroke-width:0.8;" x="27" xlink:href="#m68d424d3c6" y="134.64"/>
      </g>
     </g>
     <g id="text_2">
      <!-- $\mathdefault{10^{2}}$ -->
      <defs>
       <path d="M 19.1875 8.296875 
L 53.609375 8.296875 
L 53.609375 0 
L 7.328125 0 
L 7.328125 8.296875 
Q 12.9375 14.109375 22.625 23.890625 
Q 32.328125 33.6875 34.8125 36.53125 
Q 39.546875 41.84375 41.421875 45.53125 
Q 43.3125 49.21875 43.3125 52.78125 
Q 43.3125 58.59375 39.234375 62.25 
Q 35.15625 65.921875 28.609375 65.921875 
Q 23.96875 65.921875 18.8125 64.3125 
Q 13.671875 62.703125 7.8125 59.421875 
L 7.8125 69.390625 
Q 13.765625 71.78125 18.9375 73 
Q 24.125 74.21875 28.421875 74.21875 
Q 39.75 74.21875 46.484375 68.546875 
Q 53.21875 62.890625 53.21875 53.421875 
Q 53.21875 48.921875 51.53125 44.890625 
Q 49.859375 40.875 45.40625 35.40625 
Q 44.1875 33.984375 37.640625 27.21875 
Q 31.109375 20.453125 19.1875 8.296875 
z
" id="DejaVuSans-50"/>
      </defs>
      <g transform="translate(2.4 138.439219)scale(0.1 -0.1)">
       <use transform="translate(0 0.765625)" xlink:href="#DejaVuSans-49"/>
       <use transform="translate(63.623047 0.765625)" xlink:href="#DejaVuSans-48"/>
       <use transform="translate(128.203125 39.046875)scale(0.7)" xlink:href="#DejaVuSans-50"/>
      </g>
     </g>
    </g>
    <g id="ytick_3">
     <g id="line2d_6">
      <g>
       <use style="stroke:#000000;stroke-width:0.8;" x="27" xlink:href="#m68d424d3c6" y="92.85772"/>
      </g>
     </g>
     <g id="text_3">
      <!-- $\mathdefault{10^{3}}$ -->
      <defs>
       <path d="M 40.578125 39.3125 
Q 47.65625 37.796875 51.625 33 
Q 55.609375 28.21875 55.609375 21.1875 
Q 55.609375 10.40625 48.1875 4.484375 
Q 40.765625 -1.421875 27.09375 -1.421875 
Q 22.515625 -1.421875 17.65625 -0.515625 
Q 12.796875 0.390625 7.625 2.203125 
L 7.625 11.71875 
Q 11.71875 9.328125 16.59375 8.109375 
Q 21.484375 6.890625 26.8125 6.890625 
Q 36.078125 6.890625 40.9375 10.546875 
Q 45.796875 14.203125 45.796875 21.1875 
Q 45.796875 27.640625 41.28125 31.265625 
Q 36.765625 34.90625 28.71875 34.90625 
L 20.21875 34.90625 
L 20.21875 43.015625 
L 29.109375 43.015625 
Q 36.375 43.015625 40.234375 45.921875 
Q 44.09375 48.828125 44.09375 54.296875 
Q 44.09375 59.90625 40.109375 62.90625 
Q 36.140625 65.921875 28.71875 65.921875 
Q 24.65625 65.921875 20.015625 65.03125 
Q 15.375 64.15625 9.8125 62.3125 
L 9.8125 71.09375 
Q 15.4375 72.65625 20.34375 73.4375 
Q 25.25 74.21875 29.59375 74.21875 
Q 40.828125 74.21875 47.359375 69.109375 
Q 53.90625 64.015625 53.90625 55.328125 
Q 53.90625 49.265625 50.4375 45.09375 
Q 46.96875 40.921875 40.578125 39.3125 
z
" id="DejaVuSans-51"/>
      </defs>
      <g transform="translate(2.4 96.656938)scale(0.1 -0.1)">
       <use transform="translate(0 0.765625)" xlink:href="#DejaVuSans-49"/>
       <use transform="translate(63.623047 0.765625)" xlink:href="#DejaVuSans-48"/>
       <use transform="translate(128.203125 39.046875)scale(0.7)" xlink:href="#DejaVuSans-51"/>
      </g>
     </g>
    </g>
    <g id="ytick_4">
     <g id="line2d_7">
      <g>
       <use style="stroke:#000000;stroke-width:0.8;" x="27" xlink:href="#m68d424d3c6" y="51.075439"/>
      </g>
     </g>
     <g id="text_4">
      <!-- $\mathdefault{10^{4}}$ -->
      <defs>
       <path d="M 37.796875 64.3125 
L 12.890625 25.390625 
L 37.796875 25.390625 
z
M 35.203125 72.90625 
L 47.609375 72.90625 
L 47.609375 25.390625 
L 58.015625 25.390625 
L 58.015625 17.1875 
L 47.609375 17.1875 
L 47.609375 0 
L 37.796875 0 
L 37.796875 17.1875 
L 4.890625 17.1875 
L 4.890625 26.703125 
z
" id="DejaVuSans-52"/>
      </defs>
      <g transform="translate(2.4 54.874658)scale(0.1 -0.1)">
       <use transform="translate(0 0.684375)" xlink:href="#DejaVuSans-49"/>
       <use transform="translate(63.623047 0.684375)" xlink:href="#DejaVuSans-48"/>
       <use transform="translate(128.203125 38.965625)scale(0.7)" xlink:href="#DejaVuSans-52"/>
      </g>
     </g>
    </g>
    <g id="ytick_5">
     <g id="line2d_8">
      <defs>
       <path d="M 0 0 
L -2 0 
" id="md643a84af4" style="stroke:#000000;stroke-width:0.6;"/>
      </defs>
      <g>
       <use style="stroke:#000000;stroke-width:0.6;" x="27" xlink:href="#md643a84af4" y="189"/>
      </g>
     </g>
    </g>
    <g id="ytick_6">
     <g id="line2d_9">
      <g>
       <use style="stroke:#000000;stroke-width:0.6;" x="27" xlink:href="#md643a84af4" y="185.691627"/>
      </g>
     </g>
    </g>
    <g id="ytick_7">
     <g id="line2d_10">
      <g>
       <use style="stroke:#000000;stroke-width:0.6;" x="27" xlink:href="#md643a84af4" y="182.894437"/>
      </g>
     </g>
    </g>
    <g id="ytick_8">
     <g id="line2d_11">
      <g>
       <use style="stroke:#000000;stroke-width:0.6;" x="27" xlink:href="#md643a84af4" y="180.471402"/>
      </g>
     </g>
    </g>
    <g id="ytick_9">
     <g id="line2d_12">
      <g>
       <use style="stroke:#000000;stroke-width:0.6;" x="27" xlink:href="#md643a84af4" y="178.334133"/>
      </g>
     </g>
    </g>
    <g id="ytick_10">
     <g id="line2d_13">
      <g>
       <use style="stroke:#000000;stroke-width:0.6;" x="27" xlink:href="#md643a84af4" y="163.844561"/>
      </g>
     </g>
    </g>
    <g id="ytick_11">
     <g id="line2d_14">
      <g>
       <use style="stroke:#000000;stroke-width:0.6;" x="27" xlink:href="#md643a84af4" y="156.487066"/>
      </g>
     </g>
    </g>
    <g id="ytick_12">
     <g id="line2d_15">
      <g>
       <use style="stroke:#000000;stroke-width:0.6;" x="27" xlink:href="#md643a84af4" y="151.266841"/>
      </g>
     </g>
    </g>
    <g id="ytick_13">
     <g id="line2d_16">
      <g>
       <use style="stroke:#000000;stroke-width:0.6;" x="27" xlink:href="#md643a84af4" y="147.21772"/>
      </g>
     </g>
    </g>
    <g id="ytick_14">
     <g id="line2d_17">
      <g>
       <use style="stroke:#000000;stroke-width:0.6;" x="27" xlink:href="#md643a84af4" y="143.909347"/>
      </g>
     </g>
    </g>
    <g id="ytick_15">
     <g id="line2d_18">
      <g>
       <use style="stroke:#000000;stroke-width:0.6;" x="27" xlink:href="#md643a84af4" y="141.112157"/>
      </g>
     </g>
    </g>
    <g id="ytick_16">
     <g id="line2d_19">
      <g>
       <use style="stroke:#000000;stroke-width:0.6;" x="27" xlink:href="#md643a84af4" y="138.689121"/>
      </g>
     </g>
    </g>
    <g id="ytick_17">
     <g id="line2d_20">
      <g>
       <use style="stroke:#000000;stroke-width:0.6;" x="27" xlink:href="#md643a84af4" y="136.551852"/>
      </g>
     </g>
    </g>
    <g id="ytick_18">
     <g id="line2d_21">
      <g>
       <use style="stroke:#000000;stroke-width:0.6;" x="27" xlink:href="#md643a84af4" y="122.06228"/>
      </g>
     </g>
    </g>
    <g id="ytick_19">
     <g id="line2d_22">
      <g>
       <use style="stroke:#000000;stroke-width:0.6;" x="27" xlink:href="#md643a84af4" y="114.704786"/>
      </g>
     </g>
    </g>
    <g id="ytick_20">
     <g id="line2d_23">
      <g>
       <use style="stroke:#000000;stroke-width:0.6;" x="27" xlink:href="#md643a84af4" y="109.484561"/>
      </g>
     </g>
    </g>
    <g id="ytick_21">
     <g id="line2d_24">
      <g>
       <use style="stroke:#000000;stroke-width:0.6;" x="27" xlink:href="#md643a84af4" y="105.435439"/>
      </g>
     </g>
    </g>
    <g id="ytick_22">
     <g id="line2d_25">
      <g>
       <use style="stroke:#000000;stroke-width:0.6;" x="27" xlink:href="#md643a84af4" y="102.127066"/>
      </g>
     </g>
    </g>
    <g id="ytick_23">
     <g id="line2d_26">
      <g>
       <use style="stroke:#000000;stroke-width:0.6;" x="27" xlink:href="#md643a84af4" y="99.329877"/>
      </g>
     </g>
    </g>
    <g id="ytick_24">
     <g id="line2d_27">
      <g>
       <use style="stroke:#000000;stroke-width:0.6;" x="27" xlink:href="#md643a84af4" y="96.906841"/>
      </g>
     </g>
    </g>
    <g id="ytick_25">
     <g id="line2d_28">
      <g>
       <use style="stroke:#000000;stroke-width:0.6;" x="27" xlink:href="#md643a84af4" y="94.769572"/>
      </g>
     </g>
    </g>
    <g id="ytick_26">
     <g id="line2d_29">
      <g>
       <use style="stroke:#000000;stroke-width:0.6;" x="27" xlink:href="#md643a84af4" y="80.28"/>
      </g>
     </g>
    </g>
    <g id="ytick_27">
     <g id="line2d_30">
      <g>
       <use style="stroke:#000000;stroke-width:0.6;" x="27" xlink:href="#md643a84af4" y="72.922506"/>
      </g>
     </g>
    </g>
    <g id="ytick_28">
     <g id="line2d_31">
      <g>
       <use style="stroke:#000000;stroke-width:0.6;" x="27" xlink:href="#md643a84af4" y="67.70228"/>
      </g>
     </g>
    </g>
    <g id="ytick_29">
     <g id="line2d_32">
      <g>
       <use style="stroke:#000000;stroke-width:0.6;" x="27" xlink:href="#md643a84af4" y="63.653159"/>
      </g>
     </g>
    </g>
    <g id="ytick_30">
     <g id="line2d_33">
      <g>
       <use style="stroke:#000000;stroke-width:0.6;" x="27" xlink:href="#md643a84af4" y="60.344786"/>
      </g>
     </g>
    </g>
    <g id="ytick_31">
     <g id="line2d_34">
      <g>
       <use style="stroke:#000000;stroke-width:0.6;" x="27" xlink:href="#md643a84af4" y="57.547596"/>
      </g>
     </g>
    </g>
    <g id="ytick_32">
     <g id="line2d_35">
      <g>
       <use style="stroke:#000000;stroke-width:0.6;" x="27" xlink:href="#md643a84af4" y="55.124561"/>
      </g>
     </g>
    </g>
    <g id="ytick_33">
     <g id="line2d_36">
      <g>
       <use style="stroke:#000000;stroke-width:0.6;" x="27" xlink:href="#md643a84af4" y="52.987292"/>
      </g>
     </g>
    </g>
    <g id="ytick_34">
     <g id="line2d_37">
      <g>
       <use style="stroke:#000000;stroke-width:0.6;" x="27" xlink:href="#md643a84af4" y="38.49772"/>
      </g>
     </g>
    </g>
    <g id="ytick_35">
     <g id="line2d_38">
      <g>
       <use style="stroke:#000000;stroke-width:0.6;" x="27" xlink:href="#md643a84af4" y="31.140225"/>
      </g>
     </g>
    </g>
    <g id="ytick_36">
     <g id="line2d_39">
      <g>
       <use style="stroke:#000000;stroke-width:0.6;" x="27" xlink:href="#md643a84af4" y="25.92"/>
      </g>
     </g>
    </g>
    <g id="text_5">
     <!-- ID50 titer -->
     <defs>
      <path d="M 9.8125 72.90625 
L 19.671875 72.90625 
L 19.671875 0 
L 9.8125 0 
z
" id="DejaVuSans-73"/>
      <path d="M 19.671875 64.796875 
L 19.671875 8.109375 
L 31.59375 8.109375 
Q 46.6875 8.109375 53.6875 14.9375 
Q 60.6875 21.78125 60.6875 36.53125 
Q 60.6875 51.171875 53.6875 57.984375 
Q 46.6875 64.796875 31.59375 64.796875 
z
M 9.8125 72.90625 
L 30.078125 72.90625 
Q 51.265625 72.90625 61.171875 64.09375 
Q 71.09375 55.28125 71.09375 36.53125 
Q 71.09375 17.671875 61.125 8.828125 
Q 51.171875 0 30.078125 0 
L 9.8125 0 
z
" id="DejaVuSans-68"/>
      <path d="M 10.796875 72.90625 
L 49.515625 72.90625 
L 49.515625 64.59375 
L 19.828125 64.59375 
L 19.828125 46.734375 
Q 21.96875 47.46875 24.109375 47.828125 
Q 26.265625 48.1875 28.421875 48.1875 
Q 40.625 48.1875 47.75 41.5 
Q 54.890625 34.8125 54.890625 23.390625 
Q 54.890625 11.625 47.5625 5.09375 
Q 40.234375 -1.421875 26.90625 -1.421875 
Q 22.3125 -1.421875 17.546875 -0.640625 
Q 12.796875 0.140625 7.71875 1.703125 
L 7.71875 11.625 
Q 12.109375 9.234375 16.796875 8.0625 
Q 21.484375 6.890625 26.703125 6.890625 
Q 35.15625 6.890625 40.078125 11.328125 
Q 45.015625 15.765625 45.015625 23.390625 
Q 45.015625 31 40.078125 35.4375 
Q 35.15625 39.890625 26.703125 39.890625 
Q 22.75 39.890625 18.8125 39.015625 
Q 14.890625 38.140625 10.796875 36.28125 
z
" id="DejaVuSans-53"/>
      <path id="DejaVuSans-32"/>
      <path d="M 18.3125 70.21875 
L 18.3125 54.6875 
L 36.8125 54.6875 
L 36.8125 47.703125 
L 18.3125 47.703125 
L 18.3125 18.015625 
Q 18.3125 11.328125 20.140625 9.421875 
Q 21.96875 7.515625 27.59375 7.515625 
L 36.8125 7.515625 
L 36.8125 0 
L 27.59375 0 
Q 17.1875 0 13.234375 3.875 
Q 9.28125 7.765625 9.28125 18.015625 
L 9.28125 47.703125 
L 2.6875 47.703125 
L 2.6875 54.6875 
L 9.28125 54.6875 
L 9.28125 70.21875 
z
" id="DejaVuSans-116"/>
      <path d="M 9.421875 54.6875 
L 18.40625 54.6875 
L 18.40625 0 
L 9.421875 0 
z
M 9.421875 75.984375 
L 18.40625 75.984375 
L 18.40625 64.59375 
L 9.421875 64.59375 
z
" id="DejaVuSans-105"/>
      <path d="M 56.203125 29.59375 
L 56.203125 25.203125 
L 14.890625 25.203125 
Q 15.484375 15.921875 20.484375 11.0625 
Q 25.484375 6.203125 34.421875 6.203125 
Q 39.59375 6.203125 44.453125 7.46875 
Q 49.3125 8.734375 54.109375 11.28125 
L 54.109375 2.78125 
Q 49.265625 0.734375 44.1875 -0.34375 
Q 39.109375 -1.421875 33.890625 -1.421875 
Q 20.796875 -1.421875 13.15625 6.1875 
Q 5.515625 13.8125 5.515625 26.8125 
Q 5.515625 40.234375 12.765625 48.109375 
Q 20.015625 56 32.328125 56 
Q 43.359375 56 49.78125 48.890625 
Q 56.203125 41.796875 56.203125 29.59375 
z
M 47.21875 32.234375 
Q 47.125 39.59375 43.09375 43.984375 
Q 39.0625 48.390625 32.421875 48.390625 
Q 24.90625 48.390625 20.390625 44.140625 
Q 15.875 39.890625 15.1875 32.171875 
z
" id="DejaVuSans-101"/>
      <path d="M 41.109375 46.296875 
Q 39.59375 47.171875 37.8125 47.578125 
Q 36.03125 48 33.890625 48 
Q 26.265625 48 22.1875 43.046875 
Q 18.109375 38.09375 18.109375 28.8125 
L 18.109375 0 
L 9.078125 0 
L 9.078125 54.6875 
L 18.109375 54.6875 
L 18.109375 46.1875 
Q 20.953125 51.171875 25.484375 53.578125 
Q 30.03125 56 36.53125 56 
Q 37.453125 56 38.578125 55.875 
Q 39.703125 55.765625 41.0625 55.515625 
z
" id="DejaVuSans-114"/>
     </defs>
     <g transform="translate(-3.679688 131.177969)rotate(-90)scale(0.1 -0.1)">
      <use xlink:href="#DejaVuSans-73"/>
      <use x="29.492188" xlink:href="#DejaVuSans-68"/>
      <use x="106.494141" xlink:href="#DejaVuSans-53"/>
      <use x="170.117188" xlink:href="#DejaVuSans-48"/>
      <use x="233.740234" xlink:href="#DejaVuSans-32"/>
      <use x="265.527344" xlink:href="#DejaVuSans-116"/>
      <use x="304.736328" xlink:href="#DejaVuSans-105"/>
      <use x="332.519531" xlink:href="#DejaVuSans-116"/>
      <use x="371.728516" xlink:href="#DejaVuSans-101"/>
      <use x="433.251953" xlink:href="#DejaVuSans-114"/>
     </g>
    </g>
   </g>
   <g id="patch_6">
    <path d="M 27 189 
L 27 25.92 
" style="fill:none;stroke:#000000;stroke-linecap:square;stroke-linejoin:miter;stroke-width:0.8;"/>
   </g>
   <g id="patch_7">
    <path d="M 194.4 189 
L 194.4 25.92 
" style="fill:none;stroke:#000000;stroke-linecap:square;stroke-linejoin:miter;stroke-width:0.8;"/>
   </g>
   <g id="patch_8">
    <path d="M 27 189 
L 194.4 189 
" style="fill:none;stroke:#000000;stroke-linecap:square;stroke-linejoin:miter;stroke-width:0.8;"/>
   </g>
   <g id="patch_9">
    <path d="M 27 25.92 
L 194.4 25.92 
" style="fill:none;stroke:#000000;stroke-linecap:square;stroke-linejoin:miter;stroke-width:0.8;"/>
   </g>
   <g id="PathCollection_4">
    <defs>
     <path d="M 0 3 
C 0.795609 3 1.55874 2.683901 2.12132 2.12132 
C 2.683901 1.55874 3 0.795609 3 0 
C 3 -0.795609 2.683901 -1.55874 2.12132 -2.12132 
C 1.55874 -2.683901 0.795609 -3 0 -3 
C -0.795609 -3 -1.55874 -2.683901 -2.12132 -2.12132 
C -2.683901 -1.55874 -3 -0.795609 -3 0 
C -3 0.795609 -2.683901 1.55874 -2.12132 2.12132 
C -1.55874 2.683901 -0.795609 3 0 3 
z
" id="C0_0_35292f37e4"/>
    </defs>
    <g clip-path="url(#p0d7294208f)">
     <use style="fill:#d3d3d3;fill-opacity:0.5;stroke:#000000;stroke-opacity:0.5;stroke-width:0.5;" x="54.809289" xlink:href="#C0_0_35292f37e4" y="72.345077"/>
    </g>
    <g clip-path="url(#p0d7294208f)">
     <use style="fill:#d3d3d3;fill-opacity:0.5;stroke:#000000;stroke-opacity:0.5;stroke-width:0.5;" x="50.895227" xlink:href="#C0_0_35292f37e4" y="75.456483"/>
    </g>
    <g clip-path="url(#p0d7294208f)">
     <use style="fill:#d3d3d3;fill-opacity:0.5;stroke:#000000;stroke-opacity:0.5;stroke-width:0.5;" x="58.730976" xlink:href="#C0_0_35292f37e4" y="72.04293"/>
    </g>
    <g clip-path="url(#p0d7294208f)">
     <use style="fill:#d3d3d3;fill-opacity:0.5;stroke:#000000;stroke-opacity:0.5;stroke-width:0.5;" x="51.148152" xlink:href="#C0_0_35292f37e4" y="100.591069"/>
    </g>
   </g>
   <g id="PathCollection_5">
    <defs>
     <path d="M 0 3 
C 0.795609 3 1.55874 2.683901 2.12132 2.12132 
C 2.683901 1.55874 3 0.795609 3 0 
C 3 -0.795609 2.683901 -1.55874 2.12132 -2.12132 
C 1.55874 -2.683901 0.795609 -3 0 -3 
C -0.795609 -3 -1.55874 -2.683901 -2.12132 -2.12132 
C -2.683901 -1.55874 -3 -0.795609 -3 0 
C -3 0.795609 -2.683901 1.55874 -2.12132 2.12132 
C -1.55874 2.683901 -0.795609 3 0 3 
z
" id="C1_0_e7c625d9ef"/>
    </defs>
    <g clip-path="url(#p0d7294208f)">
     <use style="fill:#8b0000;fill-opacity:0.5;stroke:#000000;stroke-opacity:0.5;stroke-width:0.5;" x="112.245865" xlink:href="#C1_0_e7c625d9ef" y="91.920611"/>
    </g>
    <g clip-path="url(#p0d7294208f)">
     <use style="fill:#8b0000;fill-opacity:0.5;stroke:#000000;stroke-opacity:0.5;stroke-width:0.5;" x="115.837841" xlink:href="#C1_0_e7c625d9ef" y="67.571198"/>
    </g>
    <g clip-path="url(#p0d7294208f)">
     <use style="fill:#8b0000;fill-opacity:0.5;stroke:#000000;stroke-opacity:0.5;stroke-width:0.5;" x="110.291004" xlink:href="#C1_0_e7c625d9ef" y="87.026406"/>
    </g>
    <g clip-path="url(#p0d7294208f)">
     <use style="fill:#8b0000;fill-opacity:0.5;stroke:#000000;stroke-opacity:0.5;stroke-width:0.5;" x="116.015106" xlink:href="#C1_0_e7c625d9ef" y="85.06987"/>
    </g>
    <g clip-path="url(#p0d7294208f)">
     <use style="fill:#8b0000;fill-opacity:0.5;stroke:#000000;stroke-opacity:0.5;stroke-width:0.5;" x="112.96535" xlink:href="#C1_0_e7c625d9ef" y="81.991344"/>
    </g>
    <g clip-path="url(#p0d7294208f)">
     <use style="fill:#8b0000;fill-opacity:0.5;stroke:#000000;stroke-opacity:0.5;stroke-width:0.5;" x="110.509833" xlink:href="#C1_0_e7c625d9ef" y="92.74917"/>
    </g>
    <g clip-path="url(#p0d7294208f)">
     <use style="fill:#8b0000;fill-opacity:0.5;stroke:#000000;stroke-opacity:0.5;stroke-width:0.5;" x="112.215764" xlink:href="#C1_0_e7c625d9ef" y="99.329877"/>
    </g>
    <g clip-path="url(#p0d7294208f)">
     <use style="fill:#8b0000;fill-opacity:0.5;stroke:#000000;stroke-opacity:0.5;stroke-width:0.5;" x="111.160561" xlink:href="#C1_0_e7c625d9ef" y="98.843913"/>
    </g>
    <g clip-path="url(#p0d7294208f)">
     <use style="fill:#8b0000;fill-opacity:0.5;stroke:#000000;stroke-opacity:0.5;stroke-width:0.5;" x="110.611965" xlink:href="#C1_0_e7c625d9ef" y="97.8376"/>
    </g>
    <g clip-path="url(#p0d7294208f)">
     <use style="fill:#8b0000;fill-opacity:0.5;stroke:#000000;stroke-opacity:0.5;stroke-width:0.5;" x="106.580114" xlink:href="#C1_0_e7c625d9ef" y="79.35151"/>
    </g>
    <g clip-path="url(#p0d7294208f)">
     <use style="fill:#8b0000;fill-opacity:0.5;stroke:#000000;stroke-opacity:0.5;stroke-width:0.5;" x="106.868095" xlink:href="#C1_0_e7c625d9ef" y="81.201211"/>
    </g>
    <g clip-path="url(#p0d7294208f)">
     <use style="fill:#8b0000;fill-opacity:0.5;stroke:#000000;stroke-opacity:0.5;stroke-width:0.5;" x="106.970143" xlink:href="#C1_0_e7c625d9ef" y="75.057507"/>
    </g>
    <g clip-path="url(#p0d7294208f)">
     <use style="fill:#8b0000;fill-opacity:0.5;stroke:#000000;stroke-opacity:0.5;stroke-width:0.5;" x="115.191444" xlink:href="#C1_0_e7c625d9ef" y="82.415001"/>
    </g>
    <g clip-path="url(#p0d7294208f)">
     <use style="fill:#8b0000;fill-opacity:0.5;stroke:#000000;stroke-opacity:0.5;stroke-width:0.5;" x="107.124696" xlink:href="#C1_0_e7c625d9ef" y="91.095276"/>
    </g>
    <g clip-path="url(#p0d7294208f)">
     <use style="fill:#8b0000;fill-opacity:0.5;stroke:#000000;stroke-opacity:0.5;stroke-width:0.5;" x="115.527333" xlink:href="#C1_0_e7c625d9ef" y="87.506412"/>
    </g>
    <g clip-path="url(#p0d7294208f)">
     <use style="fill:#8b0000;fill-opacity:0.5;stroke:#000000;stroke-opacity:0.5;stroke-width:0.5;" x="108.544946" xlink:href="#C1_0_e7c625d9ef" y="82.364044"/>
    </g>
    <g clip-path="url(#p0d7294208f)">
     <use style="fill:#8b0000;fill-opacity:0.5;stroke:#000000;stroke-opacity:0.5;stroke-width:0.5;" x="113.869216" xlink:href="#C1_0_e7c625d9ef" y="111.096475"/>
    </g>
    <g clip-path="url(#p0d7294208f)">
     <use style="fill:#8b0000;fill-opacity:0.5;stroke:#000000;stroke-opacity:0.5;stroke-width:0.5;" x="114.117499" xlink:href="#C1_0_e7c625d9ef" y="102.77355"/>
    </g>
    <g clip-path="url(#p0d7294208f)">
     <use style="fill:#8b0000;fill-opacity:0.5;stroke:#000000;stroke-opacity:0.5;stroke-width:0.5;" x="105.301339" xlink:href="#C1_0_e7c625d9ef" y="89.428776"/>
    </g>
    <g clip-path="url(#p0d7294208f)">
     <use style="fill:#8b0000;fill-opacity:0.5;stroke:#000000;stroke-opacity:0.5;stroke-width:0.5;" x="105.694677" xlink:href="#C1_0_e7c625d9ef" y="96.884173"/>
    </g>
    <g clip-path="url(#p0d7294208f)">
     <use style="fill:#8b0000;fill-opacity:0.5;stroke:#000000;stroke-opacity:0.5;stroke-width:0.5;" x="109.720157" xlink:href="#C1_0_e7c625d9ef" y="118.45397"/>
    </g>
    <g clip-path="url(#p0d7294208f)">
     <use style="fill:#8b0000;fill-opacity:0.5;stroke:#000000;stroke-opacity:0.5;stroke-width:0.5;" x="106.010585" xlink:href="#C1_0_e7c625d9ef" y="116.48272"/>
    </g>
    <g clip-path="url(#p0d7294208f)">
     <use style="fill:#8b0000;fill-opacity:0.5;stroke:#000000;stroke-opacity:0.5;stroke-width:0.5;" x="109.489154" xlink:href="#C1_0_e7c625d9ef" y="109.666932"/>
    </g>
    <g clip-path="url(#p0d7294208f)">
     <use style="fill:#8b0000;fill-opacity:0.5;stroke:#000000;stroke-opacity:0.5;stroke-width:0.5;" x="112.098854" xlink:href="#C1_0_e7c625d9ef" y="109.036493"/>
    </g>
    <g clip-path="url(#p0d7294208f)">
     <use style="fill:#8b0000;fill-opacity:0.5;stroke:#000000;stroke-opacity:0.5;stroke-width:0.5;" x="112.158341" xlink:href="#C1_0_e7c625d9ef" y="117.024427"/>
    </g>
    <g clip-path="url(#p0d7294208f)">
     <use style="fill:#8b0000;fill-opacity:0.5;stroke:#000000;stroke-opacity:0.5;stroke-width:0.5;" x="108.660652" xlink:href="#C1_0_e7c625d9ef" y="122.708764"/>
    </g>
    <g clip-path="url(#p0d7294208f)">
     <use style="fill:#8b0000;fill-opacity:0.5;stroke:#000000;stroke-opacity:0.5;stroke-width:0.5;" x="115.222734" xlink:href="#C1_0_e7c625d9ef" y="122.153237"/>
    </g>
    <g clip-path="url(#p0d7294208f)">
     <use style="fill:#8b0000;fill-opacity:0.5;stroke:#000000;stroke-opacity:0.5;stroke-width:0.5;" x="106.167067" xlink:href="#C1_0_e7c625d9ef" y="117.653824"/>
    </g>
    <g clip-path="url(#p0d7294208f)">
     <use style="fill:#8b0000;fill-opacity:0.5;stroke:#000000;stroke-opacity:0.5;stroke-width:0.5;" x="114.552613" xlink:href="#C1_0_e7c625d9ef" y="118.379754"/>
    </g>
    <g clip-path="url(#p0d7294208f)">
     <use style="fill:#8b0000;fill-opacity:0.5;stroke:#000000;stroke-opacity:0.5;stroke-width:0.5;" x="110.472224" xlink:href="#C1_0_e7c625d9ef" y="120.749963"/>
    </g>
   </g>
   <g id="PathCollection_6">
    <defs>
     <path d="M 0 3 
C 0.795609 3 1.55874 2.683901 2.12132 2.12132 
C 2.683901 1.55874 3 0.795609 3 0 
C 3 -0.795609 2.683901 -1.55874 2.12132 -2.12132 
C 1.55874 -2.683901 0.795609 -3 0 -3 
C -0.795609 -3 -1.55874 -2.683901 -2.12132 -2.12132 
C -2.683901 -1.55874 -3 -0.795609 -3 0 
C -3 0.795609 -2.683901 1.55874 -2.12132 2.12132 
C -1.55874 2.683901 -0.795609 3 0 3 
z
" id="C2_0_571d83ce4e"/>
    </defs>
    <g clip-path="url(#p0d7294208f)">
     <use style="fill:#d3d3d3;fill-opacity:0.5;stroke:#000000;stroke-opacity:0.5;stroke-width:0.5;" x="162.596798" xlink:href="#C2_0_571d83ce4e" y="104.10625"/>
    </g>
    <g clip-path="url(#p0d7294208f)">
     <use style="fill:#d3d3d3;fill-opacity:0.5;stroke:#000000;stroke-opacity:0.5;stroke-width:0.5;" x="161.484094" xlink:href="#C2_0_571d83ce4e" y="102.524547"/>
    </g>
    <g clip-path="url(#p0d7294208f)">
     <use style="fill:#d3d3d3;fill-opacity:0.5;stroke:#000000;stroke-opacity:0.5;stroke-width:0.5;" x="170.412433" xlink:href="#C2_0_571d83ce4e" y="114.227237"/>
    </g>
   </g>
   <g id="text_6">
    <!-- Bi-valent Boost -->
    <defs>
     <path d="M 19.671875 34.8125 
L 19.671875 8.109375 
L 35.5 8.109375 
Q 43.453125 8.109375 47.28125 11.40625 
Q 51.125 14.703125 51.125 21.484375 
Q 51.125 28.328125 47.28125 31.5625 
Q 43.453125 34.8125 35.5 34.8125 
z
M 19.671875 64.796875 
L 19.671875 42.828125 
L 34.28125 42.828125 
Q 41.5 42.828125 45.03125 45.53125 
Q 48.578125 48.25 48.578125 53.8125 
Q 48.578125 59.328125 45.03125 62.0625 
Q 41.5 64.796875 34.28125 64.796875 
z
M 9.8125 72.90625 
L 35.015625 72.90625 
Q 46.296875 72.90625 52.390625 68.21875 
Q 58.5 63.53125 58.5 54.890625 
Q 58.5 48.1875 55.375 44.234375 
Q 52.25 40.28125 46.1875 39.3125 
Q 53.46875 37.75 57.5 32.78125 
Q 61.53125 27.828125 61.53125 20.40625 
Q 61.53125 10.640625 54.890625 5.3125 
Q 48.25 0 35.984375 0 
L 9.8125 0 
z
" id="DejaVuSans-66"/>
     <path d="M 4.890625 31.390625 
L 31.203125 31.390625 
L 31.203125 23.390625 
L 4.890625 23.390625 
z
" id="DejaVuSans-45"/>
     <path d="M 2.984375 54.6875 
L 12.5 54.6875 
L 29.59375 8.796875 
L 46.6875 54.6875 
L 56.203125 54.6875 
L 35.6875 0 
L 23.484375 0 
z
" id="DejaVuSans-118"/>
     <path d="M 34.28125 27.484375 
Q 23.390625 27.484375 19.1875 25 
Q 14.984375 22.515625 14.984375 16.5 
Q 14.984375 11.71875 18.140625 8.90625 
Q 21.296875 6.109375 26.703125 6.109375 
Q 34.1875 6.109375 38.703125 11.40625 
Q 43.21875 16.703125 43.21875 25.484375 
L 43.21875 27.484375 
z
M 52.203125 31.203125 
L 52.203125 0 
L 43.21875 0 
L 43.21875 8.296875 
Q 40.140625 3.328125 35.546875 0.953125 
Q 30.953125 -1.421875 24.3125 -1.421875 
Q 15.921875 -1.421875 10.953125 3.296875 
Q 6 8.015625 6 15.921875 
Q 6 25.140625 12.171875 29.828125 
Q 18.359375 34.515625 30.609375 34.515625 
L 43.21875 34.515625 
L 43.21875 35.40625 
Q 43.21875 41.609375 39.140625 45 
Q 35.0625 48.390625 27.6875 48.390625 
Q 23 48.390625 18.546875 47.265625 
Q 14.109375 46.140625 10.015625 43.890625 
L 10.015625 52.203125 
Q 14.9375 54.109375 19.578125 55.046875 
Q 24.21875 56 28.609375 56 
Q 40.484375 56 46.34375 49.84375 
Q 52.203125 43.703125 52.203125 31.203125 
z
" id="DejaVuSans-97"/>
     <path d="M 9.421875 75.984375 
L 18.40625 75.984375 
L 18.40625 0 
L 9.421875 0 
z
" id="DejaVuSans-108"/>
     <path d="M 54.890625 33.015625 
L 54.890625 0 
L 45.90625 0 
L 45.90625 32.71875 
Q 45.90625 40.484375 42.875 44.328125 
Q 39.84375 48.1875 33.796875 48.1875 
Q 26.515625 48.1875 22.3125 43.546875 
Q 18.109375 38.921875 18.109375 30.90625 
L 18.109375 0 
L 9.078125 0 
L 9.078125 54.6875 
L 18.109375 54.6875 
L 18.109375 46.1875 
Q 21.34375 51.125 25.703125 53.5625 
Q 30.078125 56 35.796875 56 
Q 45.21875 56 50.046875 50.171875 
Q 54.890625 44.34375 54.890625 33.015625 
z
" id="DejaVuSans-110"/>
     <path d="M 30.609375 48.390625 
Q 23.390625 48.390625 19.1875 42.75 
Q 14.984375 37.109375 14.984375 27.296875 
Q 14.984375 17.484375 19.15625 11.84375 
Q 23.34375 6.203125 30.609375 6.203125 
Q 37.796875 6.203125 41.984375 11.859375 
Q 46.1875 17.53125 46.1875 27.296875 
Q 46.1875 37.015625 41.984375 42.703125 
Q 37.796875 48.390625 30.609375 48.390625 
z
M 30.609375 56 
Q 42.328125 56 49.015625 48.375 
Q 55.71875 40.765625 55.71875 27.296875 
Q 55.71875 13.875 49.015625 6.21875 
Q 42.328125 -1.421875 30.609375 -1.421875 
Q 18.84375 -1.421875 12.171875 6.21875 
Q 5.515625 13.875 5.515625 27.296875 
Q 5.515625 40.765625 12.171875 48.375 
Q 18.84375 56 30.609375 56 
z
" id="DejaVuSans-111"/>
     <path d="M 44.28125 53.078125 
L 44.28125 44.578125 
Q 40.484375 46.53125 36.375 47.5 
Q 32.28125 48.484375 27.875 48.484375 
Q 21.1875 48.484375 17.84375 46.4375 
Q 14.5 44.390625 14.5 40.28125 
Q 14.5 37.15625 16.890625 35.375 
Q 19.28125 33.59375 26.515625 31.984375 
L 29.59375 31.296875 
Q 39.15625 29.25 43.1875 25.515625 
Q 47.21875 21.78125 47.21875 15.09375 
Q 47.21875 7.46875 41.1875 3.015625 
Q 35.15625 -1.421875 24.609375 -1.421875 
Q 20.21875 -1.421875 15.453125 -0.5625 
Q 10.6875 0.296875 5.421875 2 
L 5.421875 11.28125 
Q 10.40625 8.6875 15.234375 7.390625 
Q 20.0625 6.109375 24.8125 6.109375 
Q 31.15625 6.109375 34.5625 8.28125 
Q 37.984375 10.453125 37.984375 14.40625 
Q 37.984375 18.0625 35.515625 20.015625 
Q 33.0625 21.96875 24.703125 23.78125 
L 21.578125 24.515625 
Q 13.234375 26.265625 9.515625 29.90625 
Q 5.8125 33.546875 5.8125 39.890625 
Q 5.8125 47.609375 11.28125 51.796875 
Q 16.75 56 26.8125 56 
Q 31.78125 56 36.171875 55.265625 
Q 40.578125 54.546875 44.28125 53.078125 
z
" id="DejaVuSans-115"/>
    </defs>
    <g transform="translate(65.324062 19.92)scale(0.12 -0.12)">
     <use xlink:href="#DejaVuSans-66"/>
     <use x="68.603516" xlink:href="#DejaVuSans-105"/>
     <use x="96.386719" xlink:href="#DejaVuSans-45"/>
     <use x="129.845703" xlink:href="#DejaVuSans-118"/>
     <use x="189.025391" xlink:href="#DejaVuSans-97"/>
     <use x="250.304688" xlink:href="#DejaVuSans-108"/>
     <use x="278.087891" xlink:href="#DejaVuSans-101"/>
     <use x="339.611328" xlink:href="#DejaVuSans-110"/>
     <use x="402.990234" xlink:href="#DejaVuSans-116"/>
     <use x="442.199219" xlink:href="#DejaVuSans-32"/>
     <use x="473.986328" xlink:href="#DejaVuSans-66"/>
     <use x="542.589844" xlink:href="#DejaVuSans-111"/>
     <use x="603.771484" xlink:href="#DejaVuSans-111"/>
     <use x="664.953125" xlink:href="#DejaVuSans-115"/>
     <use x="717.052734" xlink:href="#DejaVuSans-116"/>
    </g>
   </g>
   <g id="legend_1"/>
   <g id="line2d_40">
    <path clip-path="url(#p0d7294208f)" d="M 54.9 80.10889 
L 54.9 80.10889 
" style="fill:none;stroke:#000000;stroke-linecap:square;stroke-width:1.5;"/>
   </g>
   <g id="line2d_41">
    <path clip-path="url(#p0d7294208f)" d="M 54.9 80.10889 
L 54.9 80.10889 
" style="fill:none;stroke:#000000;stroke-linecap:square;stroke-width:1.5;"/>
   </g>
   <g id="line2d_42">
    <path clip-path="url(#p0d7294208f)" d="M 49.32 80.10889 
L 60.48 80.10889 
" style="fill:none;stroke:#000000;stroke-linecap:square;stroke-width:1.5;"/>
   </g>
   <g id="line2d_43">
    <path clip-path="url(#p0d7294208f)" d="M 49.32 80.10889 
L 60.48 80.10889 
" style="fill:none;stroke:#000000;stroke-linecap:square;stroke-width:1.5;"/>
   </g>
   <g id="line2d_44"/>
   <g id="line2d_45">
    <path clip-path="url(#p0d7294208f)" d="M 110.7 98.4608 
L 110.7 98.4608 
" style="fill:none;stroke:#000000;stroke-linecap:square;stroke-width:1.5;"/>
   </g>
   <g id="line2d_46">
    <path clip-path="url(#p0d7294208f)" d="M 110.7 98.4608 
L 110.7 98.4608 
" style="fill:none;stroke:#000000;stroke-linecap:square;stroke-width:1.5;"/>
   </g>
   <g id="line2d_47">
    <path clip-path="url(#p0d7294208f)" d="M 105.12 98.4608 
L 116.28 98.4608 
" style="fill:none;stroke:#000000;stroke-linecap:square;stroke-width:1.5;"/>
   </g>
   <g id="line2d_48">
    <path clip-path="url(#p0d7294208f)" d="M 105.12 98.4608 
L 116.28 98.4608 
" style="fill:none;stroke:#000000;stroke-linecap:square;stroke-width:1.5;"/>
   </g>
   <g id="line2d_49"/>
   <g id="line2d_50">
    <path clip-path="url(#p0d7294208f)" d="M 166.5 106.952678 
L 166.5 106.952678 
" style="fill:none;stroke:#000000;stroke-linecap:square;stroke-width:1.5;"/>
   </g>
   <g id="line2d_51">
    <path clip-path="url(#p0d7294208f)" d="M 166.5 106.952678 
L 166.5 106.952678 
" style="fill:none;stroke:#000000;stroke-linecap:square;stroke-width:1.5;"/>
   </g>
   <g id="line2d_52">
    <path clip-path="url(#p0d7294208f)" d="M 160.92 106.952678 
L 172.08 106.952678 
" style="fill:none;stroke:#000000;stroke-linecap:square;stroke-width:1.5;"/>
   </g>
   <g id="line2d_53">
    <path clip-path="url(#p0d7294208f)" d="M 160.92 106.952678 
L 172.08 106.952678 
" style="fill:none;stroke:#000000;stroke-linecap:square;stroke-width:1.5;"/>
   </g>
   <g id="line2d_54"/>
   <g id="line2d_55">
    <path clip-path="url(#p0d7294208f)" d="M 43.74 80.10889 
L 66.06 80.10889 
" style="fill:none;stroke:#000000;stroke-linecap:square;stroke-width:1.5;"/>
   </g>
   <g id="line2d_56">
    <path clip-path="url(#p0d7294208f)" d="M 99.54 98.4608 
L 121.86 98.4608 
" style="fill:none;stroke:#000000;stroke-linecap:square;stroke-width:1.5;"/>
   </g>
   <g id="line2d_57">
    <path clip-path="url(#p0d7294208f)" d="M 155.34 106.952678 
L 177.66 106.952678 
" style="fill:none;stroke:#000000;stroke-linecap:square;stroke-width:1.5;"/>
   </g>
  </g>
 </g>
 <defs>
  <clipPath id="p0d7294208f">
   <rect height="163.08" width="167.4" x="27" y="25.92"/>
  </clipPath>
 </defs>
</svg>
