<?xml version="1.0" encoding="utf-8" standalone="no"?>
<!DOCTYPE svg PUBLIC "-//W3C//DTD SVG 1.1//EN"
  "http://www.w3.org/Graphics/SVG/1.1/DTD/svg11.dtd">
<!-- Created with matplotlib (https://matplotlib.org/) -->
<svg height="432pt" version="1.1" viewBox="0 0 432 432" width="432pt" xmlns="http://www.w3.org/2000/svg" xmlns:xlink="http://www.w3.org/1999/xlink">
 <defs>
  <style type="text/css">
*{stroke-linecap:butt;stroke-linejoin:round;}
  </style>
 </defs>
 <g id="figure_1">
  <g id="patch_1">
   <path d="M 0 432 
L 432 432 
L 432 0 
L 0 0 
z
" style="fill:#ffffff;"/>
  </g>
  <g id="axes_1">
   <g id="patch_2">
    <path d="M 384.48 214.92 
C 384.48 193.504531 380.261619 172.2973 372.066274 152.511986 
C 363.870929 132.726672 351.857997 114.74805 336.714974 99.605026 
C 321.57195 84.462003 303.593328 72.449071 283.808014 64.253726 
C 264.0227 56.058381 242.815469 51.84 221.4 51.84 
C 199.984531 51.84 178.7773 56.058381 158.991986 64.253726 
C 139.206672 72.449071 121.22805 84.462003 106.085026 99.605026 
C 90.942003 114.74805 78.929071 132.726672 70.733726 152.511986 
C 62.538381 172.2973 58.32 193.504531 58.32 214.92 
C 58.32 236.335469 62.538381 257.5427 70.733726 277.328014 
C 78.929071 297.113328 90.942003 315.09195 106.085026 330.234974 
C 121.22805 345.377997 139.206672 357.390929 158.991986 365.586274 
C 178.7773 373.781619 199.984531 378 221.4 378 
C 242.815469 378 264.0227 373.781619 283.808014 365.586274 
C 303.593328 357.390929 321.57195 345.377997 336.714974 330.234974 
C 351.857997 315.09195 363.870929 297.113328 372.066274 277.328014 
C 380.261619 257.5427 384.48 236.335469 384.48 214.92 
M 221.4 214.92 
C 221.4 214.92 221.4 214.92 221.4 214.92 
C 221.4 214.92 221.4 214.92 221.4 214.92 
C 221.4 214.92 221.4 214.92 221.4 214.92 
C 221.4 214.92 221.4 214.92 221.4 214.92 
C 221.4 214.92 221.4 214.92 221.4 214.92 
C 221.4 214.92 221.4 214.92 221.4 214.92 
C 221.4 214.92 221.4 214.92 221.4 214.92 
C 221.4 214.92 221.4 214.92 221.4 214.92 
C 221.4 214.92 221.4 214.92 221.4 214.92 
C 221.4 214.92 221.4 214.92 221.4 214.92 
C 221.4 214.92 221.4 214.92 221.4 214.92 
C 221.4 214.92 221.4 214.92 221.4 214.92 
C 221.4 214.92 221.4 214.92 221.4 214.92 
C 221.4 214.92 221.4 214.92 221.4 214.92 
C 221.4 214.92 221.4 214.92 221.4 214.92 
C 221.4 214.92 221.4 214.92 221.4 214.92 
M 384.48 214.92 
z
" style="fill:#fafafa;"/>
   </g>
   <g id="patch_3">
    <path clip-path="url(#p69865c087b)" d="M 221.4 81.560976 
L 358.57379 214.92 
L 221.4 358.006851 
L 127.068576 214.92 
L 221.4 81.560976 
z
" style="fill:#ff0000;opacity:0.15;stroke:#ff0000;stroke-linejoin:miter;"/>
   </g>
   <g id="patch_4">
    <path clip-path="url(#p69865c087b)" d="M 221.4 73.65096 
L 370.16428 214.92 
L 221.4 368.838027 
L 127.833194 214.92 
L 221.4 73.65096 
z
" style="fill:#8b0000;opacity:0.15;stroke:#8b0000;stroke-linejoin:miter;"/>
   </g>
   <g id="patch_5">
    <path clip-path="url(#p69865c087b)" d="M 221.4 104.925548 
L 345.871731 214.92 
L 221.4 351.315883 
L 154.337474 214.92 
L 221.4 104.925548 
z
" style="opacity:0.15;stroke:#000000;stroke-linejoin:miter;"/>
   </g>
   <g id="matplotlib.axis_1">
    <g id="xtick_1">
     <g id="line2d_1">
      <path clip-path="url(#p69865c087b)" d="M 221.4 214.92 
L 221.4 51.84 
" style="fill:none;stroke:#aaaaaa;stroke-linecap:square;stroke-width:0.8;"/>
     </g>
     <g id="text_1">
      <!-- BA.5 -->
      <defs>
       <path d="M 19.671875 34.8125 
L 19.671875 8.109375 
L 35.5 8.109375 
Q 43.453125 8.109375 47.28125 11.40625 
Q 51.125 14.703125 51.125 21.484375 
Q 51.125 28.328125 47.28125 31.5625 
Q 43.453125 34.8125 35.5 34.8125 
z
M 19.671875 64.796875 
L 19.671875 42.828125 
L 34.28125 42.828125 
Q 41.5 42.828125 45.03125 45.53125 
Q 48.578125 48.25 48.578125 53.8125 
Q 48.578125 59.328125 45.03125 62.0625 
Q 41.5 64.796875 34.28125 64.796875 
z
M 9.8125 72.90625 
L 35.015625 72.90625 
Q 46.296875 72.90625 52.390625 68.21875 
Q 58.5 63.53125 58.5 54.890625 
Q 58.5 48.1875 55.375 44.234375 
Q 52.25 40.28125 46.1875 39.3125 
Q 53.46875 37.75 57.5 32.78125 
Q 61.53125 27.828125 61.53125 20.40625 
Q 61.53125 10.640625 54.890625 5.3125 
Q 48.25 0 35.984375 0 
L 9.8125 0 
z
" id="DejaVuSans-66"/>
       <path d="M 34.1875 63.1875 
L 20.796875 26.90625 
L 47.609375 26.90625 
z
M 28.609375 72.90625 
L 39.796875 72.90625 
L 67.578125 0 
L 57.328125 0 
L 50.6875 18.703125 
L 17.828125 18.703125 
L 11.1875 0 
L 0.78125 0 
z
" id="DejaVuSans-65"/>
       <path d="M 10.6875 12.40625 
L 21 12.40625 
L 21 0 
L 10.6875 0 
z
" id="DejaVuSans-46"/>
       <path d="M 10.796875 72.90625 
L 49.515625 72.90625 
L 49.515625 64.59375 
L 19.828125 64.59375 
L 19.828125 46.734375 
Q 21.96875 47.46875 24.109375 47.828125 
Q 26.265625 48.1875 28.421875 48.1875 
Q 40.625 48.1875 47.75 41.5 
Q 54.890625 34.8125 54.890625 23.390625 
Q 54.890625 11.625 47.5625 5.09375 
Q 40.234375 -1.421875 26.90625 -1.421875 
Q 22.3125 -1.421875 17.546875 -0.640625 
Q 12.796875 0.140625 7.71875 1.703125 
L 7.71875 11.625 
Q 12.109375 9.234375 16.796875 8.0625 
Q 21.484375 6.890625 26.703125 6.890625 
Q 35.15625 6.890625 40.078125 11.328125 
Q 45.015625 15.765625 45.015625 23.390625 
Q 45.015625 31 40.078125 35.4375 
Q 35.15625 39.890625 26.703125 39.890625 
Q 22.75 39.890625 18.8125 39.015625 
Q 14.890625 38.140625 10.796875 36.28125 
z
" id="DejaVuSans-53"/>
      </defs>
      <g style="fill:#222222;" transform="translate(198.332813 40.599375)scale(0.1 -0.1)">
       <use xlink:href="#DejaVuSans-66"/>
       <use x="68.603516" xlink:href="#DejaVuSans-65"/>
       <use x="135.261719" xlink:href="#DejaVuSans-46"/>
       <use x="167.048828" xlink:href="#DejaVuSans-53"/>
      </g>
     </g>
    </g>
    <g id="xtick_2">
     <g id="line2d_2">
      <path clip-path="url(#p69865c087b)" d="M 221.4 214.92 
L 384.48 214.92 
" style="fill:none;stroke:#aaaaaa;stroke-linecap:square;stroke-width:0.8;"/>
     </g>
     <g id="text_2">
      <!-- BA.2.12.1 -->
      <defs>
       <path d="M 19.1875 8.296875 
L 53.609375 8.296875 
L 53.609375 0 
L 7.328125 0 
L 7.328125 8.296875 
Q 12.9375 14.109375 22.625 23.890625 
Q 32.328125 33.6875 34.8125 36.53125 
Q 39.546875 41.84375 41.421875 45.53125 
Q 43.3125 49.21875 43.3125 52.78125 
Q 43.3125 58.59375 39.234375 62.25 
Q 35.15625 65.921875 28.609375 65.921875 
Q 23.96875 65.921875 18.8125 64.3125 
Q 13.671875 62.703125 7.8125 59.421875 
L 7.8125 69.390625 
Q 13.765625 71.78125 18.9375 73 
Q 24.125 74.21875 28.421875 74.21875 
Q 39.75 74.21875 46.484375 68.546875 
Q 53.21875 62.890625 53.21875 53.421875 
Q 53.21875 48.921875 51.53125 44.890625 
Q 49.859375 40.875 45.40625 35.40625 
Q 44.1875 33.984375 37.640625 27.21875 
Q 31.109375 20.453125 19.1875 8.296875 
z
" id="DejaVuSans-50"/>
       <path d="M 12.40625 8.296875 
L 28.515625 8.296875 
L 28.515625 63.921875 
L 10.984375 60.40625 
L 10.984375 69.390625 
L 28.421875 72.90625 
L 38.28125 72.90625 
L 38.28125 8.296875 
L 54.390625 8.296875 
L 54.390625 0 
L 12.40625 0 
z
" id="DejaVuSans-49"/>
      </defs>
      <g style="fill:#222222;" transform="translate(398.48 217.679375)scale(0.1 -0.1)">
       <use xlink:href="#DejaVuSans-66"/>
       <use x="68.603516" xlink:href="#DejaVuSans-65"/>
       <use x="135.261719" xlink:href="#DejaVuSans-46"/>
       <use x="167.048828" xlink:href="#DejaVuSans-50"/>
       <use x="230.671875" xlink:href="#DejaVuSans-46"/>
       <use x="262.458984" xlink:href="#DejaVuSans-49"/>
       <use x="326.082031" xlink:href="#DejaVuSans-50"/>
       <use x="389.705078" xlink:href="#DejaVuSans-46"/>
       <use x="421.492188" xlink:href="#DejaVuSans-49"/>
      </g>
     </g>
    </g>
    <g id="xtick_3">
     <g id="line2d_3">
      <path clip-path="url(#p69865c087b)" d="M 221.4 214.92 
L 221.4 378 
" style="fill:none;stroke:#aaaaaa;stroke-linecap:square;stroke-width:0.8;"/>
     </g>
     <g id="text_3">
      <!-- BA.2.75 -->
      <defs>
       <path d="M 8.203125 72.90625 
L 55.078125 72.90625 
L 55.078125 68.703125 
L 28.609375 0 
L 18.3125 0 
L 43.21875 64.59375 
L 8.203125 64.59375 
z
" id="DejaVuSans-55"/>
      </defs>
      <g style="fill:#222222;" transform="translate(182.429688 394.759375)scale(0.1 -0.1)">
       <use xlink:href="#DejaVuSans-66"/>
       <use x="68.603516" xlink:href="#DejaVuSans-65"/>
       <use x="135.261719" xlink:href="#DejaVuSans-46"/>
       <use x="167.048828" xlink:href="#DejaVuSans-50"/>
       <use x="230.671875" xlink:href="#DejaVuSans-46"/>
       <use x="262.458984" xlink:href="#DejaVuSans-55"/>
       <use x="326.082031" xlink:href="#DejaVuSans-53"/>
      </g>
     </g>
    </g>
    <g id="xtick_4">
     <g id="line2d_4">
      <path clip-path="url(#p69865c087b)" d="M 221.4 214.92 
L 58.32 214.92 
" style="fill:none;stroke:#aaaaaa;stroke-linecap:square;stroke-width:0.8;"/>
     </g>
     <g id="text_4">
      <!-- XBB -->
      <defs>
       <path d="M 6.296875 72.90625 
L 16.890625 72.90625 
L 35.015625 45.796875 
L 53.21875 72.90625 
L 63.8125 72.90625 
L 40.375 37.890625 
L 65.375 0 
L 54.78125 0 
L 34.28125 31 
L 13.625 0 
L 2.984375 0 
L 29 38.921875 
z
" id="DejaVuSans-88"/>
      </defs>
      <g style="fill:#222222;" transform="translate(23.748125 217.679375)scale(0.1 -0.1)">
       <use xlink:href="#DejaVuSans-88"/>
       <use x="68.505859" xlink:href="#DejaVuSans-66"/>
       <use x="137.109375" xlink:href="#DejaVuSans-66"/>
      </g>
     </g>
    </g>
    <g id="xtick_5">
     <g id="line2d_5">
      <path clip-path="url(#p69865c087b)" d="M 221.4 214.92 
L 221.4 51.84 
" style="fill:none;stroke:#aaaaaa;stroke-linecap:square;stroke-width:0.8;"/>
     </g>
     <g id="text_5">
      <!-- BA.5 -->
      <g style="fill:#222222;" transform="translate(198.332812 40.599375)scale(0.1 -0.1)">
       <use xlink:href="#DejaVuSans-66"/>
       <use x="68.603516" xlink:href="#DejaVuSans-65"/>
       <use x="135.261719" xlink:href="#DejaVuSans-46"/>
       <use x="167.048828" xlink:href="#DejaVuSans-53"/>
      </g>
     </g>
    </g>
   </g>
   <g id="matplotlib.axis_2">
    <g id="ytick_1">
     <g id="line2d_6">
      <path clip-path="url(#p69865c087b)" d="M 221.4 214.92 
L 221.4 214.92 
" style="fill:none;stroke:#aaaaaa;stroke-linecap:square;stroke-width:0.8;"/>
     </g>
     <g id="text_6">
      <!-- 0.5 -->
      <defs>
       <path d="M 31.78125 66.40625 
Q 24.171875 66.40625 20.328125 58.90625 
Q 16.5 51.421875 16.5 36.375 
Q 16.5 21.390625 20.328125 13.890625 
Q 24.171875 6.390625 31.78125 6.390625 
Q 39.453125 6.390625 43.28125 13.890625 
Q 47.125 21.390625 47.125 36.375 
Q 47.125 51.421875 43.28125 58.90625 
Q 39.453125 66.40625 31.78125 66.40625 
z
M 31.78125 74.21875 
Q 44.046875 74.21875 50.515625 64.515625 
Q 56.984375 54.828125 56.984375 36.375 
Q 56.984375 17.96875 50.515625 8.265625 
Q 44.046875 -1.421875 31.78125 -1.421875 
Q 19.53125 -1.421875 13.0625 8.265625 
Q 6.59375 17.96875 6.59375 36.375 
Q 6.59375 54.828125 13.0625 64.515625 
Q 19.53125 74.21875 31.78125 74.21875 
z
" id="DejaVuSans-48"/>
      </defs>
      <g style="fill:#222222;" transform="translate(221.4 213.25625)scale(0.08 -0.08)">
       <use xlink:href="#DejaVuSans-48"/>
       <use x="63.623047" xlink:href="#DejaVuSans-46"/>
       <use x="95.410156" xlink:href="#DejaVuSans-53"/>
      </g>
     </g>
    </g>
    <g id="ytick_2">
     <g id="line2d_7">
      <path clip-path="url(#p69865c087b)" d="M 221.4 189.43875 
L 224.063516 189.578339 
L 226.69785 189.995576 
L 229.274139 190.685891 
L 231.764158 191.64172 
L 234.140625 192.85259 
L 236.377503 194.305236 
L 238.450284 195.983741 
L 240.336259 197.869716 
L 242.014764 199.942497 
L 243.46741 202.179375 
L 244.67828 204.555842 
L 245.634109 207.045861 
L 246.324424 209.62215 
L 246.741661 212.256484 
L 246.88125 214.92 
L 246.741661 217.583516 
L 246.324424 220.21785 
L 245.634109 222.794139 
L 244.67828 225.284158 
L 243.46741 227.660625 
L 242.014764 229.897503 
L 240.336259 231.970284 
L 238.450284 233.856259 
L 236.377503 235.534764 
L 234.140625 236.98741 
L 231.764158 238.19828 
L 229.274139 239.154109 
L 226.69785 239.844424 
L 224.063516 240.261661 
L 221.4 240.40125 
L 218.736484 240.261661 
L 216.10215 239.844424 
L 213.525861 239.154109 
L 211.035842 238.19828 
L 208.659375 236.98741 
L 206.422497 235.534764 
L 204.349716 233.856259 
L 202.463741 231.970284 
L 200.785236 229.897503 
L 199.33259 227.660625 
L 198.12172 225.284158 
L 197.165891 222.794139 
L 196.475576 220.21785 
L 196.058339 217.583516 
L 195.91875 214.92 
L 196.058339 212.256484 
L 196.475576 209.62215 
L 197.165891 207.045861 
L 198.12172 204.555842 
L 199.33259 202.179375 
L 200.785236 199.942497 
L 202.463741 197.869716 
L 204.349716 195.983741 
L 206.422497 194.305236 
L 208.659375 192.85259 
L 211.035842 191.64172 
L 213.525861 190.685891 
L 216.10215 189.995576 
L 218.736484 189.578339 
L 221.4 189.43875 
L 221.4 189.43875 
" style="fill:none;stroke:#aaaaaa;stroke-linecap:square;stroke-width:0.8;"/>
     </g>
     <g id="text_7">
      <!-- 1.0 -->
      <g style="fill:#222222;" transform="translate(231.151252 189.714645)scale(0.08 -0.08)">
       <use xlink:href="#DejaVuSans-49"/>
       <use x="63.623047" xlink:href="#DejaVuSans-46"/>
       <use x="95.410156" xlink:href="#DejaVuSans-48"/>
      </g>
     </g>
    </g>
    <g id="ytick_3">
     <g id="line2d_8">
      <path clip-path="url(#p69865c087b)" d="M 221.4 163.9575 
L 224.954964 164.081642 
L 228.492609 164.453464 
L 231.9957 165.071153 
L 235.447169 165.931701 
L 238.830202 167.030915 
L 242.128316 168.36344 
L 245.325445 169.922783 
L 248.406011 171.701349 
L 251.355006 173.690471 
L 254.158064 175.88046 
L 256.801527 178.260645 
L 259.272518 180.819431 
L 261.558998 183.544352 
L 263.649827 186.422132 
L 265.53482 189.43875 
L 267.204792 192.57951 
L 268.651607 195.829111 
L 269.868218 199.171721 
L 270.848696 202.591055 
L 271.588265 206.070455 
L 272.083322 209.592968 
L 272.331455 213.141434 
L 272.331455 216.698566 
L 272.083322 220.247032 
L 271.588265 223.769545 
L 270.848696 227.248945 
L 269.868218 230.668279 
L 268.651607 234.010889 
L 267.204792 237.26049 
L 265.53482 240.40125 
L 263.649827 243.417868 
L 261.558998 246.295648 
L 259.272518 249.020569 
L 256.801527 251.579355 
L 254.158064 253.95954 
L 251.355006 256.149529 
L 248.406011 258.138651 
L 245.325445 259.917217 
L 242.128316 261.47656 
L 238.830202 262.809085 
L 235.447169 263.908299 
L 231.9957 264.768847 
L 228.492609 265.386536 
L 224.954964 265.758358 
L 221.4 265.8825 
L 217.845036 265.758358 
L 214.307391 265.386536 
L 210.8043 264.768847 
L 207.352831 263.908299 
L 203.969798 262.809085 
L 200.671684 261.47656 
L 197.474555 259.917217 
L 194.393989 258.138651 
L 191.444994 256.149529 
L 188.641936 253.95954 
L 185.998473 251.579355 
L 183.527482 249.020569 
L 181.241002 246.295648 
L 179.150173 243.417868 
L 177.26518 240.40125 
L 175.595208 237.26049 
L 174.148393 234.010889 
L 172.931782 230.668279 
L 171.951304 227.248945 
L 171.211735 223.769545 
L 170.716678 220.247032 
L 170.468545 216.698566 
L 170.468545 213.141434 
L 170.716678 209.592968 
L 171.211735 206.070455 
L 171.951304 202.591055 
L 172.931782 199.171721 
L 174.148393 195.829111 
L 175.595208 192.57951 
L 177.26518 189.43875 
L 179.150173 186.422132 
L 181.241002 183.544352 
L 183.527482 180.819431 
L 185.998473 178.260645 
L 188.641936 175.88046 
L 191.444994 173.690471 
L 194.393989 171.701349 
L 197.474555 169.922783 
L 200.671684 168.36344 
L 203.969798 167.030915 
L 207.352831 165.931701 
L 210.8043 165.071153 
L 214.307391 164.453464 
L 217.845036 164.081642 
L 221.4 163.9575 
L 221.4 163.9575 
" style="fill:none;stroke:#aaaaaa;stroke-linecap:square;stroke-width:0.8;"/>
     </g>
     <g id="text_8">
      <!-- 1.5 -->
      <g style="fill:#222222;" transform="translate(240.902504 166.173039)scale(0.08 -0.08)">
       <use xlink:href="#DejaVuSans-49"/>
       <use x="63.623047" xlink:href="#DejaVuSans-46"/>
       <use x="95.410156" xlink:href="#DejaVuSans-53"/>
      </g>
     </g>
    </g>
    <g id="ytick_4">
     <g id="line2d_9">
      <path clip-path="url(#p69865c087b)" d="M 221.4 138.47625 
L 226.732446 138.662463 
L 232.038914 139.220195 
L 237.293549 140.146729 
L 242.470753 141.437551 
L 247.545302 143.086372 
L 252.492474 145.085159 
L 257.288167 147.424175 
L 261.909016 150.092023 
L 266.332509 153.075707 
L 270.537095 156.36069 
L 274.502291 159.930968 
L 278.208777 163.769147 
L 281.638497 167.856528 
L 284.774741 172.173197 
L 287.602229 176.698125 
L 290.107187 181.409266 
L 292.277411 186.283667 
L 294.102327 191.297582 
L 295.573044 196.426583 
L 296.682398 201.645682 
L 297.424983 206.929452 
L 297.797183 212.252152 
L 297.797183 217.587848 
L 297.424983 222.910548 
L 296.682398 228.194318 
L 295.573044 233.413417 
L 294.102327 238.542418 
L 292.277411 243.556333 
L 290.107187 248.430734 
L 287.602229 253.141875 
L 284.774741 257.666803 
L 281.638497 261.983472 
L 278.208777 266.070853 
L 274.502291 269.909032 
L 270.537095 273.47931 
L 266.332509 276.764293 
L 261.909016 279.747977 
L 257.288167 282.415825 
L 252.492474 284.754841 
L 247.545302 286.753628 
L 242.470753 288.402449 
L 237.293549 289.693271 
L 232.038914 290.619805 
L 226.732446 291.177537 
L 221.4 291.36375 
L 216.067554 291.177537 
L 210.761086 290.619805 
L 205.506451 289.693271 
L 200.329247 288.402449 
L 195.254698 286.753628 
L 190.307526 284.754841 
L 185.511833 282.415825 
L 180.890984 279.747977 
L 176.467491 276.764293 
L 172.262905 273.47931 
L 168.297709 269.909032 
L 164.591223 266.070853 
L 161.161503 261.983472 
L 158.025259 257.666803 
L 155.197771 253.141875 
L 152.692813 248.430734 
L 150.522589 243.556333 
L 148.697673 238.542418 
L 147.226956 233.413417 
L 146.117602 228.194318 
L 145.375017 222.910548 
L 145.002817 217.587848 
L 145.002817 212.252152 
L 145.375017 206.929452 
L 146.117602 201.645682 
L 147.226956 196.426583 
L 148.697673 191.297582 
L 150.522589 186.283667 
L 152.692813 181.409266 
L 155.197771 176.698125 
L 158.025259 172.173197 
L 161.161503 167.856528 
L 164.591223 163.769147 
L 168.297709 159.930968 
L 172.262905 156.36069 
L 176.467491 153.075707 
L 180.890984 150.092023 
L 185.511833 147.424175 
L 190.307526 145.085159 
L 195.254698 143.086372 
L 200.329247 141.437551 
L 205.506451 140.146729 
L 210.761086 139.220195 
L 216.067554 138.662463 
L 221.4 138.47625 
L 221.4 138.47625 
" style="fill:none;stroke:#aaaaaa;stroke-linecap:square;stroke-width:0.8;"/>
     </g>
     <g id="text_9">
      <!-- 2.0 -->
      <g style="fill:#222222;" transform="translate(250.653757 142.631434)scale(0.08 -0.08)">
       <use xlink:href="#DejaVuSans-50"/>
       <use x="63.623047" xlink:href="#DejaVuSans-46"/>
       <use x="95.410156" xlink:href="#DejaVuSans-48"/>
      </g>
     </g>
    </g>
    <g id="ytick_5">
     <g id="line2d_10">
      <path clip-path="url(#p69865c087b)" d="M 221.4 112.995 
L 224.957131 113.05709 
L 228.509929 113.243284 
L 232.054064 113.553356 
L 235.585218 113.986927 
L 239.099091 114.54347 
L 242.591399 115.222306 
L 246.057889 116.022608 
L 249.494337 116.943402 
L 252.896557 117.983565 
L 256.260403 119.14183 
L 259.581777 120.416786 
L 262.856632 121.806879 
L 266.080979 123.310417 
L 269.250889 124.925567 
L 272.3625 126.650361 
L 275.412021 128.482698 
L 278.395737 130.420345 
L 281.310012 132.460943 
L 284.151296 134.602004 
L 286.916127 136.84092 
L 289.601137 139.174964 
L 292.203054 141.601291 
L 294.718709 144.116946 
L 297.145036 146.718863 
L 299.47908 149.403873 
L 301.717996 152.168704 
L 303.859057 155.009988 
L 305.899655 157.924263 
L 307.837302 160.907979 
L 309.669639 163.9575 
L 311.394433 167.069111 
L 313.009583 170.239021 
L 314.513121 173.463368 
L 315.903214 176.738223 
L 317.17817 180.059597 
L 318.336435 183.423443 
L 319.376598 186.825663 
L 320.297392 190.262111 
L 321.097694 193.728601 
L 321.77653 197.220909 
L 322.333073 200.734782 
L 322.766644 204.265936 
L 323.076716 207.810071 
L 323.26291 211.362869 
L 323.325 214.92 
L 323.26291 218.477131 
L 323.076716 222.029929 
L 322.766644 225.574064 
L 322.333073 229.105218 
L 321.77653 232.619091 
L 321.097694 236.111399 
L 320.297392 239.577889 
L 319.376598 243.014337 
L 318.336435 246.416557 
L 317.17817 249.780403 
L 315.903214 253.101777 
L 314.513121 256.376632 
L 313.009583 259.600979 
L 311.394433 262.770889 
L 309.669639 265.8825 
L 307.837302 268.932021 
L 305.899655 271.915737 
L 303.859057 274.830012 
L 301.717996 277.671296 
L 299.47908 280.436127 
L 297.145036 283.121137 
L 294.718709 285.723054 
L 292.203054 288.238709 
L 289.601137 290.665036 
L 286.916127 292.99908 
L 284.151296 295.237996 
L 281.310012 297.379057 
L 278.395737 299.419655 
L 275.412021 301.357302 
L 272.3625 303.189639 
L 269.250889 304.914433 
L 266.080979 306.529583 
L 262.856632 308.033121 
L 259.581777 309.423214 
L 256.260403 310.69817 
L 252.896557 311.856435 
L 249.494337 312.896598 
L 246.057889 313.817392 
L 242.591399 314.617694 
L 239.099091 315.29653 
L 235.585218 315.853073 
L 232.054064 316.286644 
L 228.509929 316.596716 
L 224.957131 316.78291 
L 221.4 316.845 
L 217.842869 316.78291 
L 214.290071 316.596716 
L 210.745936 316.286644 
L 207.214782 315.853073 
L 203.700909 315.29653 
L 200.208601 314.617694 
L 196.742111 313.817392 
L 193.305663 312.896598 
L 189.903443 311.856435 
L 186.539597 310.69817 
L 183.218223 309.423214 
L 179.943368 308.033121 
L 176.719021 306.529583 
L 173.549111 304.914433 
L 170.4375 303.189639 
L 167.387979 301.357302 
L 164.404263 299.419655 
L 161.489988 297.379057 
L 158.648704 295.237996 
L 155.883873 292.99908 
L 153.198863 290.665036 
L 150.596946 288.238709 
L 148.081291 285.723054 
L 145.654964 283.121137 
L 143.32092 280.436127 
L 141.082004 277.671296 
L 138.940943 274.830012 
L 136.900345 271.915737 
L 134.962698 268.932021 
L 133.130361 265.8825 
L 131.405567 262.770889 
L 129.790417 259.600979 
L 128.286879 256.376632 
L 126.896786 253.101777 
L 125.62183 249.780403 
L 124.463565 246.416557 
L 123.423402 243.014337 
L 122.502608 239.577889 
L 121.702306 236.111399 
L 121.02347 232.619091 
L 120.466927 229.105218 
L 120.033356 225.574064 
L 119.723284 222.029929 
L 119.53709 218.477131 
L 119.475 214.92 
L 119.53709 211.362869 
L 119.723284 207.810071 
L 120.033356 204.265936 
L 120.466927 200.734782 
L 121.02347 197.220909 
L 121.702306 193.728601 
L 122.502608 190.262111 
L 123.423402 186.825663 
L 124.463565 183.423443 
L 125.62183 180.059597 
L 126.896786 176.738223 
L 128.286879 173.463368 
L 129.790417 170.239021 
L 131.405567 167.069111 
L 133.130361 163.9575 
L 134.962698 160.907979 
L 136.900345 157.924263 
L 138.940943 155.009988 
L 141.082004 152.168704 
L 143.32092 149.403873 
L 145.654964 146.718863 
L 148.081291 144.116946 
L 150.596946 141.601291 
L 153.198863 139.174964 
L 155.883873 136.84092 
L 158.648704 134.602004 
L 161.489988 132.460943 
L 164.404263 130.420345 
L 167.387979 128.482698 
L 170.4375 126.650361 
L 173.549111 124.925567 
L 176.719021 123.310417 
L 179.943368 121.806879 
L 183.218223 120.416786 
L 186.539597 119.14183 
L 189.903443 117.983565 
L 193.305663 116.943402 
L 196.742111 116.022608 
L 200.208601 115.222306 
L 203.700909 114.54347 
L 207.214782 113.986927 
L 210.745936 113.553356 
L 214.290071 113.243284 
L 217.842869 113.05709 
L 221.4 112.995 
L 221.4 112.995 
" style="fill:none;stroke:#aaaaaa;stroke-linecap:square;stroke-width:0.8;"/>
     </g>
     <g id="text_10">
      <!-- 2.5 -->
      <g style="fill:#222222;" transform="translate(260.405009 119.089829)scale(0.08 -0.08)">
       <use xlink:href="#DejaVuSans-50"/>
       <use x="63.623047" xlink:href="#DejaVuSans-46"/>
       <use x="95.410156" xlink:href="#DejaVuSans-53"/>
      </g>
     </g>
    </g>
    <g id="ytick_6">
     <g id="line2d_11">
      <path clip-path="url(#p69865c087b)" d="M 221.4 87.51375 
L 225.846414 87.591362 
L 230.287411 87.824105 
L 234.71758 88.211695 
L 239.131523 88.753659 
L 243.523863 89.449337 
L 247.889249 90.297882 
L 252.222362 91.29826 
L 256.517922 92.449252 
L 260.770696 93.749456 
L 264.975504 95.197287 
L 269.127221 96.790982 
L 273.22079 98.528599 
L 277.251224 100.408021 
L 281.213611 102.426958 
L 285.103125 104.582951 
L 288.915026 106.873372 
L 292.644671 109.295432 
L 296.287515 111.846179 
L 299.83912 114.522505 
L 303.295159 117.32115 
L 306.651421 120.238705 
L 309.903818 123.271614 
L 313.048386 126.416182 
L 316.081295 129.668579 
L 318.99885 133.024841 
L 321.797495 136.48088 
L 324.473821 140.032485 
L 327.024568 143.675329 
L 329.446628 147.404974 
L 331.737049 151.216875 
L 333.893042 155.106389 
L 335.911979 159.068776 
L 337.791401 163.09921 
L 339.529018 167.192779 
L 341.122713 171.344496 
L 342.570544 175.549304 
L 343.870748 179.802078 
L 345.02174 184.097638 
L 346.022118 188.430751 
L 346.870663 192.796137 
L 347.566341 197.188477 
L 348.108305 201.60242 
L 348.495895 206.032589 
L 348.728638 210.473586 
L 348.80625 214.92 
L 348.728638 219.366414 
L 348.495895 223.807411 
L 348.108305 228.23758 
L 347.566341 232.651523 
L 346.870663 237.043863 
L 346.022118 241.409249 
L 345.02174 245.742362 
L 343.870748 250.037922 
L 342.570544 254.290696 
L 341.122713 258.495504 
L 339.529018 262.647221 
L 337.791401 266.74079 
L 335.911979 270.771224 
L 333.893042 274.733611 
L 331.737049 278.623125 
L 329.446628 282.435026 
L 327.024568 286.164671 
L 324.473821 289.807515 
L 321.797495 293.35912 
L 318.99885 296.815159 
L 316.081295 300.171421 
L 313.048386 303.423818 
L 309.903818 306.568386 
L 306.651421 309.601295 
L 303.295159 312.51885 
L 299.83912 315.317495 
L 296.287515 317.993821 
L 292.644671 320.544568 
L 288.915026 322.966628 
L 285.103125 325.257049 
L 281.213611 327.413042 
L 277.251224 329.431979 
L 273.22079 331.311401 
L 269.127221 333.049018 
L 264.975504 334.642713 
L 260.770696 336.090544 
L 256.517922 337.390748 
L 252.222362 338.54174 
L 247.889249 339.542118 
L 243.523863 340.390663 
L 239.131523 341.086341 
L 234.71758 341.628305 
L 230.287411 342.015895 
L 225.846414 342.248638 
L 221.4 342.32625 
L 216.953586 342.248638 
L 212.512589 342.015895 
L 208.08242 341.628305 
L 203.668477 341.086341 
L 199.276137 340.390663 
L 194.910751 339.542118 
L 190.577638 338.54174 
L 186.282078 337.390748 
L 182.029304 336.090544 
L 177.824496 334.642713 
L 173.672779 333.049018 
L 169.57921 331.311401 
L 165.548776 329.431979 
L 161.586389 327.413042 
L 157.696875 325.257049 
L 153.884974 322.966628 
L 150.155329 320.544568 
L 146.512485 317.993821 
L 142.96088 315.317495 
L 139.504841 312.51885 
L 136.148579 309.601295 
L 132.896182 306.568386 
L 129.751614 303.423818 
L 126.718705 300.171421 
L 123.80115 296.815159 
L 121.002505 293.35912 
L 118.326179 289.807515 
L 115.775432 286.164671 
L 113.353372 282.435026 
L 111.062951 278.623125 
L 108.906958 274.733611 
L 106.888021 270.771224 
L 105.008599 266.74079 
L 103.270982 262.647221 
L 101.677287 258.495504 
L 100.229456 254.290696 
L 98.929252 250.037922 
L 97.77826 245.742362 
L 96.777882 241.409249 
L 95.929337 237.043863 
L 95.233659 232.651523 
L 94.691695 228.23758 
L 94.304105 223.807411 
L 94.071362 219.366414 
L 93.99375 214.92 
L 94.071362 210.473586 
L 94.304105 206.032589 
L 94.691695 201.60242 
L 95.233659 197.188477 
L 95.929337 192.796137 
L 96.777882 188.430751 
L 97.77826 184.097638 
L 98.929252 179.802078 
L 100.229456 175.549304 
L 101.677287 171.344496 
L 103.270982 167.192779 
L 105.008599 163.09921 
L 106.888021 159.068776 
L 108.906958 155.106389 
L 111.062951 151.216875 
L 113.353372 147.404974 
L 115.775432 143.675329 
L 118.326179 140.032485 
L 121.002505 136.48088 
L 123.80115 133.024841 
L 126.718705 129.668579 
L 129.751614 126.416182 
L 132.896182 123.271614 
L 136.148579 120.238705 
L 139.504841 117.32115 
L 142.96088 114.522505 
L 146.512485 111.846179 
L 150.155329 109.295432 
L 153.884974 106.873372 
L 157.696875 104.582951 
L 161.586389 102.426958 
L 165.548776 100.408021 
L 169.57921 98.528599 
L 173.672779 96.790982 
L 177.824496 95.197287 
L 182.029304 93.749456 
L 186.282078 92.449252 
L 190.577638 91.29826 
L 194.910751 90.297882 
L 199.276137 89.449337 
L 203.668477 88.753659 
L 208.08242 88.211695 
L 212.512589 87.824105 
L 216.953586 87.591362 
L 221.4 87.51375 
L 221.4 87.51375 
" style="fill:none;stroke:#aaaaaa;stroke-linecap:square;stroke-width:0.8;"/>
     </g>
     <g id="text_11">
      <!-- 3.0 -->
      <defs>
       <path d="M 40.578125 39.3125 
Q 47.65625 37.796875 51.625 33 
Q 55.609375 28.21875 55.609375 21.1875 
Q 55.609375 10.40625 48.1875 4.484375 
Q 40.765625 -1.421875 27.09375 -1.421875 
Q 22.515625 -1.421875 17.65625 -0.515625 
Q 12.796875 0.390625 7.625 2.203125 
L 7.625 11.71875 
Q 11.71875 9.328125 16.59375 8.109375 
Q 21.484375 6.890625 26.8125 6.890625 
Q 36.078125 6.890625 40.9375 10.546875 
Q 45.796875 14.203125 45.796875 21.1875 
Q 45.796875 27.640625 41.28125 31.265625 
Q 36.765625 34.90625 28.71875 34.90625 
L 20.21875 34.90625 
L 20.21875 43.015625 
L 29.109375 43.015625 
Q 36.375 43.015625 40.234375 45.921875 
Q 44.09375 48.828125 44.09375 54.296875 
Q 44.09375 59.90625 40.109375 62.90625 
Q 36.140625 65.921875 28.71875 65.921875 
Q 24.65625 65.921875 20.015625 65.03125 
Q 15.375 64.15625 9.8125 62.3125 
L 9.8125 71.09375 
Q 15.4375 72.65625 20.34375 73.4375 
Q 25.25 74.21875 29.59375 74.21875 
Q 40.828125 74.21875 47.359375 69.109375 
Q 53.90625 64.015625 53.90625 55.328125 
Q 53.90625 49.265625 50.4375 45.09375 
Q 46.96875 40.921875 40.578125 39.3125 
z
" id="DejaVuSans-51"/>
      </defs>
      <g style="fill:#222222;" transform="translate(270.156261 95.548223)scale(0.08 -0.08)">
       <use xlink:href="#DejaVuSans-51"/>
       <use x="63.623047" xlink:href="#DejaVuSans-46"/>
       <use x="95.410156" xlink:href="#DejaVuSans-48"/>
      </g>
     </g>
    </g>
   </g>
   <g id="line2d_12">
    <path clip-path="url(#p69865c087b)" d="M 221.4 81.560976 
L 358.57379 214.92 
L 221.4 358.006851 
L 127.068576 214.92 
L 221.4 81.560976 
" style="fill:none;stroke:#ff0000;stroke-linecap:square;"/>
   </g>
   <g id="line2d_13">
    <path clip-path="url(#p69865c087b)" d="M 221.4 73.65096 
L 370.16428 214.92 
L 221.4 368.838027 
L 127.833194 214.92 
L 221.4 73.65096 
" style="fill:none;stroke:#8b0000;stroke-linecap:square;"/>
   </g>
   <g id="line2d_14">
    <path clip-path="url(#p69865c087b)" d="M 221.4 104.925548 
L 345.871731 214.92 
L 221.4 351.315883 
L 154.337474 214.92 
L 221.4 104.925548 
" style="fill:none;stroke:#000000;stroke-linecap:square;"/>
   </g>
   <g id="patch_6">
    <path d="M 221.4 51.84 
C 199.984531 51.84 178.7773 56.058381 158.991986 64.253726 
C 139.206672 72.449071 121.22805 84.462003 106.085026 99.605026 
C 90.942003 114.74805 78.929071 132.726672 70.733726 152.511986 
C 62.538381 172.2973 58.32 193.504531 58.32 214.92 
C 58.32 236.335469 62.538381 257.5427 70.733726 277.328014 
C 78.929071 297.113328 90.942003 315.09195 106.085026 330.234974 
C 121.22805 345.377997 139.206672 357.390929 158.991986 365.586274 
C 178.7773 373.781619 199.984531 378 221.4 378 
C 242.815469 378 264.0227 373.781619 283.808014 365.586274 
C 303.593328 357.390929 321.57195 345.377997 336.714974 330.234974 
C 351.857997 315.09195 363.870929 297.113328 372.066274 277.328014 
C 380.261619 257.5427 384.48 236.335469 384.48 214.92 
C 384.48 193.504531 380.261619 172.2973 372.066274 152.511986 
C 363.870929 132.726672 351.857997 114.74805 336.714974 99.605026 
C 321.57195 84.462003 303.593328 72.449071 283.808014 64.253726 
C 264.0227 56.058381 242.815469 51.84 221.4 51.84 
" style="fill:none;stroke:#222222;stroke-linecap:square;stroke-linejoin:miter;stroke-width:0.8;"/>
   </g>
  </g>
 </g>
 <defs>
  <clipPath id="p69865c087b">
   <path d="M 384.48 214.92 
C 384.48 193.504531 380.261619 172.2973 372.066274 152.511986 
C 363.870929 132.726672 351.857997 114.74805 336.714974 99.605026 
C 321.57195 84.462003 303.593328 72.449071 283.808014 64.253726 
C 264.0227 56.058381 242.815469 51.84 221.4 51.84 
C 199.984531 51.84 178.7773 56.058381 158.991986 64.253726 
C 139.206672 72.449071 121.22805 84.462003 106.085026 99.605026 
C 90.942003 114.74805 78.929071 132.726672 70.733726 152.511986 
C 62.538381 172.2973 58.32 193.504531 58.32 214.92 
C 58.32 236.335469 62.538381 257.5427 70.733726 277.328014 
C 78.929071 297.113328 90.942003 315.09195 106.085026 330.234974 
C 121.22805 345.377997 139.206672 357.390929 158.991986 365.586274 
C 178.7773 373.781619 199.984531 378 221.4 378 
C 242.815469 378 264.0227 373.781619 283.808014 365.586274 
C 303.593328 357.390929 321.57195 345.377997 336.714974 330.234974 
C 351.857997 315.09195 363.870929 297.113328 372.066274 277.328014 
C 380.261619 257.5427 384.48 236.335469 384.48 214.92 
M 221.4 214.92 
C 221.4 214.92 221.4 214.92 221.4 214.92 
C 221.4 214.92 221.4 214.92 221.4 214.92 
C 221.4 214.92 221.4 214.92 221.4 214.92 
C 221.4 214.92 221.4 214.92 221.4 214.92 
C 221.4 214.92 221.4 214.92 221.4 214.92 
C 221.4 214.92 221.4 214.92 221.4 214.92 
C 221.4 214.92 221.4 214.92 221.4 214.92 
C 221.4 214.92 221.4 214.92 221.4 214.92 
C 221.4 214.92 221.4 214.92 221.4 214.92 
C 221.4 214.92 221.4 214.92 221.4 214.92 
C 221.4 214.92 221.4 214.92 221.4 214.92 
C 221.4 214.92 221.4 214.92 221.4 214.92 
C 221.4 214.92 221.4 214.92 221.4 214.92 
C 221.4 214.92 221.4 214.92 221.4 214.92 
C 221.4 214.92 221.4 214.92 221.4 214.92 
C 221.4 214.92 221.4 214.92 221.4 214.92 
M 384.48 214.92 
z
"/>
  </clipPath>
 </defs>
</svg>
