<?xml version="1.0" encoding="utf-8" standalone="no"?>
<!DOCTYPE svg PUBLIC "-//W3C//DTD SVG 1.1//EN"
  "http://www.w3.org/Graphics/SVG/1.1/DTD/svg11.dtd">
<!-- Created with matplotlib (https://matplotlib.org/) -->
<svg height="288pt" version="1.1" viewBox="0 0 360 288" width="360pt" xmlns="http://www.w3.org/2000/svg" xmlns:xlink="http://www.w3.org/1999/xlink">
 <defs>
  <style type="text/css">
*{stroke-linecap:butt;stroke-linejoin:round;}
  </style>
 </defs>
 <g id="figure_1">
  <g id="patch_1">
   <path d="M 0 288 
L 360 288 
L 360 0 
L 0 0 
z
" style="fill:#ffffff;"/>
  </g>
  <g id="axes_1">
   <g id="patch_2">
    <path d="M 33.73 233.904209 
L 349.014454 233.904209 
L 349.014454 25.92 
L 33.73 25.92 
z
" style="fill:#ffffff;"/>
   </g>
   <g id="matplotlib.axis_1">
    <g id="xtick_1">
     <g id="line2d_1">
      <defs>
       <path d="M 0 0 
L 0 3.5 
" id="m50eec524d3" style="stroke:#000000;stroke-width:0.8;"/>
      </defs>
      <g>
       <use style="stroke:#000000;stroke-width:0.8;" x="48.061112" xlink:href="#m50eec524d3" y="233.904209"/>
      </g>
     </g>
     <g id="text_1">
      <!-- 2020-01 -->
      <defs>
       <path d="M 19.1875 8.296875 
L 53.609375 8.296875 
L 53.609375 0 
L 7.328125 0 
L 7.328125 8.296875 
Q 12.9375 14.109375 22.625 23.890625 
Q 32.328125 33.6875 34.8125 36.53125 
Q 39.546875 41.84375 41.421875 45.53125 
Q 43.3125 49.21875 43.3125 52.78125 
Q 43.3125 58.59375 39.234375 62.25 
Q 35.15625 65.921875 28.609375 65.921875 
Q 23.96875 65.921875 18.8125 64.3125 
Q 13.671875 62.703125 7.8125 59.421875 
L 7.8125 69.390625 
Q 13.765625 71.78125 18.9375 73 
Q 24.125 74.21875 28.421875 74.21875 
Q 39.75 74.21875 46.484375 68.546875 
Q 53.21875 62.890625 53.21875 53.421875 
Q 53.21875 48.921875 51.53125 44.890625 
Q 49.859375 40.875 45.40625 35.40625 
Q 44.1875 33.984375 37.640625 27.21875 
Q 31.109375 20.453125 19.1875 8.296875 
z
" id="DejaVuSans-50"/>
       <path d="M 31.78125 66.40625 
Q 24.171875 66.40625 20.328125 58.90625 
Q 16.5 51.421875 16.5 36.375 
Q 16.5 21.390625 20.328125 13.890625 
Q 24.171875 6.390625 31.78125 6.390625 
Q 39.453125 6.390625 43.28125 13.890625 
Q 47.125 21.390625 47.125 36.375 
Q 47.125 51.421875 43.28125 58.90625 
Q 39.453125 66.40625 31.78125 66.40625 
z
M 31.78125 74.21875 
Q 44.046875 74.21875 50.515625 64.515625 
Q 56.984375 54.828125 56.984375 36.375 
Q 56.984375 17.96875 50.515625 8.265625 
Q 44.046875 -1.421875 31.78125 -1.421875 
Q 19.53125 -1.421875 13.0625 8.265625 
Q 6.59375 17.96875 6.59375 36.375 
Q 6.59375 54.828125 13.0625 64.515625 
Q 19.53125 74.21875 31.78125 74.21875 
z
" id="DejaVuSans-48"/>
       <path d="M 4.890625 31.390625 
L 31.203125 31.390625 
L 31.203125 23.390625 
L 4.890625 23.390625 
z
" id="DejaVuSans-45"/>
       <path d="M 12.40625 8.296875 
L 28.515625 8.296875 
L 28.515625 63.921875 
L 10.984375 60.40625 
L 10.984375 69.390625 
L 28.421875 72.90625 
L 38.28125 72.90625 
L 38.28125 8.296875 
L 54.390625 8.296875 
L 54.390625 0 
L 12.40625 0 
z
" id="DejaVuSans-49"/>
      </defs>
      <g transform="translate(35.239829 275.822026)rotate(-45)scale(0.1 -0.1)">
       <use xlink:href="#DejaVuSans-50"/>
       <use x="63.623047" xlink:href="#DejaVuSans-48"/>
       <use x="127.246094" xlink:href="#DejaVuSans-50"/>
       <use x="190.869141" xlink:href="#DejaVuSans-48"/>
       <use x="254.492188" xlink:href="#DejaVuSans-45"/>
       <use x="290.576172" xlink:href="#DejaVuSans-48"/>
       <use x="354.199219" xlink:href="#DejaVuSans-49"/>
      </g>
     </g>
    </g>
    <g id="xtick_2">
     <g id="line2d_2">
      <g>
       <use style="stroke:#000000;stroke-width:0.8;" x="83.024413" xlink:href="#m50eec524d3" y="233.904209"/>
      </g>
     </g>
     <g id="text_2">
      <!-- 2020-07 -->
      <defs>
       <path d="M 8.203125 72.90625 
L 55.078125 72.90625 
L 55.078125 68.703125 
L 28.609375 0 
L 18.3125 0 
L 43.21875 64.59375 
L 8.203125 64.59375 
z
" id="DejaVuSans-55"/>
      </defs>
      <g transform="translate(70.203131 275.822026)rotate(-45)scale(0.1 -0.1)">
       <use xlink:href="#DejaVuSans-50"/>
       <use x="63.623047" xlink:href="#DejaVuSans-48"/>
       <use x="127.246094" xlink:href="#DejaVuSans-50"/>
       <use x="190.869141" xlink:href="#DejaVuSans-48"/>
       <use x="254.492188" xlink:href="#DejaVuSans-45"/>
       <use x="290.576172" xlink:href="#DejaVuSans-48"/>
       <use x="354.199219" xlink:href="#DejaVuSans-55"/>
      </g>
     </g>
    </g>
    <g id="xtick_3">
     <g id="line2d_3">
      <g>
       <use style="stroke:#000000;stroke-width:0.8;" x="118.371927" xlink:href="#m50eec524d3" y="233.904209"/>
      </g>
     </g>
     <g id="text_3">
      <!-- 2021-01 -->
      <g transform="translate(105.550645 275.822026)rotate(-45)scale(0.1 -0.1)">
       <use xlink:href="#DejaVuSans-50"/>
       <use x="63.623047" xlink:href="#DejaVuSans-48"/>
       <use x="127.246094" xlink:href="#DejaVuSans-50"/>
       <use x="190.869141" xlink:href="#DejaVuSans-49"/>
       <use x="254.492188" xlink:href="#DejaVuSans-45"/>
       <use x="290.576172" xlink:href="#DejaVuSans-48"/>
       <use x="354.199219" xlink:href="#DejaVuSans-49"/>
      </g>
     </g>
    </g>
    <g id="xtick_4">
     <g id="line2d_4">
      <g>
       <use style="stroke:#000000;stroke-width:0.8;" x="153.143122" xlink:href="#m50eec524d3" y="233.904209"/>
      </g>
     </g>
     <g id="text_4">
      <!-- 2021-07 -->
      <g transform="translate(140.32184 275.822026)rotate(-45)scale(0.1 -0.1)">
       <use xlink:href="#DejaVuSans-50"/>
       <use x="63.623047" xlink:href="#DejaVuSans-48"/>
       <use x="127.246094" xlink:href="#DejaVuSans-50"/>
       <use x="190.869141" xlink:href="#DejaVuSans-49"/>
       <use x="254.492188" xlink:href="#DejaVuSans-45"/>
       <use x="290.576172" xlink:href="#DejaVuSans-48"/>
       <use x="354.199219" xlink:href="#DejaVuSans-55"/>
      </g>
     </g>
    </g>
    <g id="xtick_5">
     <g id="line2d_5">
      <g>
       <use style="stroke:#000000;stroke-width:0.8;" x="188.490636" xlink:href="#m50eec524d3" y="233.904209"/>
      </g>
     </g>
     <g id="text_5">
      <!-- 2022-01 -->
      <g transform="translate(175.669354 275.822026)rotate(-45)scale(0.1 -0.1)">
       <use xlink:href="#DejaVuSans-50"/>
       <use x="63.623047" xlink:href="#DejaVuSans-48"/>
       <use x="127.246094" xlink:href="#DejaVuSans-50"/>
       <use x="190.869141" xlink:href="#DejaVuSans-50"/>
       <use x="254.492188" xlink:href="#DejaVuSans-45"/>
       <use x="290.576172" xlink:href="#DejaVuSans-48"/>
       <use x="354.199219" xlink:href="#DejaVuSans-49"/>
      </g>
     </g>
    </g>
    <g id="xtick_6">
     <g id="line2d_6">
      <g>
       <use style="stroke:#000000;stroke-width:0.8;" x="223.261832" xlink:href="#m50eec524d3" y="233.904209"/>
      </g>
     </g>
     <g id="text_6">
      <!-- 2022-07 -->
      <g transform="translate(210.440549 275.822026)rotate(-45)scale(0.1 -0.1)">
       <use xlink:href="#DejaVuSans-50"/>
       <use x="63.623047" xlink:href="#DejaVuSans-48"/>
       <use x="127.246094" xlink:href="#DejaVuSans-50"/>
       <use x="190.869141" xlink:href="#DejaVuSans-50"/>
       <use x="254.492188" xlink:href="#DejaVuSans-45"/>
       <use x="290.576172" xlink:href="#DejaVuSans-48"/>
       <use x="354.199219" xlink:href="#DejaVuSans-55"/>
      </g>
     </g>
    </g>
    <g id="xtick_7">
     <g id="line2d_7">
      <g>
       <use style="stroke:#000000;stroke-width:0.8;" x="258.609345" xlink:href="#m50eec524d3" y="233.904209"/>
      </g>
     </g>
     <g id="text_7">
      <!-- 2023-01 -->
      <defs>
       <path d="M 40.578125 39.3125 
Q 47.65625 37.796875 51.625 33 
Q 55.609375 28.21875 55.609375 21.1875 
Q 55.609375 10.40625 48.1875 4.484375 
Q 40.765625 -1.421875 27.09375 -1.421875 
Q 22.515625 -1.421875 17.65625 -0.515625 
Q 12.796875 0.390625 7.625 2.203125 
L 7.625 11.71875 
Q 11.71875 9.328125 16.59375 8.109375 
Q 21.484375 6.890625 26.8125 6.890625 
Q 36.078125 6.890625 40.9375 10.546875 
Q 45.796875 14.203125 45.796875 21.1875 
Q 45.796875 27.640625 41.28125 31.265625 
Q 36.765625 34.90625 28.71875 34.90625 
L 20.21875 34.90625 
L 20.21875 43.015625 
L 29.109375 43.015625 
Q 36.375 43.015625 40.234375 45.921875 
Q 44.09375 48.828125 44.09375 54.296875 
Q 44.09375 59.90625 40.109375 62.90625 
Q 36.140625 65.921875 28.71875 65.921875 
Q 24.65625 65.921875 20.015625 65.03125 
Q 15.375 64.15625 9.8125 62.3125 
L 9.8125 71.09375 
Q 15.4375 72.65625 20.34375 73.4375 
Q 25.25 74.21875 29.59375 74.21875 
Q 40.828125 74.21875 47.359375 69.109375 
Q 53.90625 64.015625 53.90625 55.328125 
Q 53.90625 49.265625 50.4375 45.09375 
Q 46.96875 40.921875 40.578125 39.3125 
z
" id="DejaVuSans-51"/>
      </defs>
      <g transform="translate(245.788063 275.822026)rotate(-45)scale(0.1 -0.1)">
       <use xlink:href="#DejaVuSans-50"/>
       <use x="63.623047" xlink:href="#DejaVuSans-48"/>
       <use x="127.246094" xlink:href="#DejaVuSans-50"/>
       <use x="190.869141" xlink:href="#DejaVuSans-51"/>
       <use x="254.492188" xlink:href="#DejaVuSans-45"/>
       <use x="290.576172" xlink:href="#DejaVuSans-48"/>
       <use x="354.199219" xlink:href="#DejaVuSans-49"/>
      </g>
     </g>
    </g>
    <g id="xtick_8">
     <g id="line2d_8">
      <g>
       <use style="stroke:#000000;stroke-width:0.8;" x="293.380541" xlink:href="#m50eec524d3" y="233.904209"/>
      </g>
     </g>
     <g id="text_8">
      <!-- 2023-07 -->
      <g transform="translate(280.559259 275.822026)rotate(-45)scale(0.1 -0.1)">
       <use xlink:href="#DejaVuSans-50"/>
       <use x="63.623047" xlink:href="#DejaVuSans-48"/>
       <use x="127.246094" xlink:href="#DejaVuSans-50"/>
       <use x="190.869141" xlink:href="#DejaVuSans-51"/>
       <use x="254.492188" xlink:href="#DejaVuSans-45"/>
       <use x="290.576172" xlink:href="#DejaVuSans-48"/>
       <use x="354.199219" xlink:href="#DejaVuSans-55"/>
      </g>
     </g>
    </g>
    <g id="xtick_9">
     <g id="line2d_9">
      <g>
       <use style="stroke:#000000;stroke-width:0.8;" x="328.728055" xlink:href="#m50eec524d3" y="233.904209"/>
      </g>
     </g>
     <g id="text_9">
      <!-- 2024-01 -->
      <defs>
       <path d="M 37.796875 64.3125 
L 12.890625 25.390625 
L 37.796875 25.390625 
z
M 35.203125 72.90625 
L 47.609375 72.90625 
L 47.609375 25.390625 
L 58.015625 25.390625 
L 58.015625 17.1875 
L 47.609375 17.1875 
L 47.609375 0 
L 37.796875 0 
L 37.796875 17.1875 
L 4.890625 17.1875 
L 4.890625 26.703125 
z
" id="DejaVuSans-52"/>
      </defs>
      <g transform="translate(315.906772 275.822026)rotate(-45)scale(0.1 -0.1)">
       <use xlink:href="#DejaVuSans-50"/>
       <use x="63.623047" xlink:href="#DejaVuSans-48"/>
       <use x="127.246094" xlink:href="#DejaVuSans-50"/>
       <use x="190.869141" xlink:href="#DejaVuSans-52"/>
       <use x="254.492188" xlink:href="#DejaVuSans-45"/>
       <use x="290.576172" xlink:href="#DejaVuSans-48"/>
       <use x="354.199219" xlink:href="#DejaVuSans-49"/>
      </g>
     </g>
    </g>
   </g>
   <g id="matplotlib.axis_2">
    <g id="ytick_1">
     <g id="text_10">
      <!-- 0.0 -->
      <defs>
       <path d="M 10.6875 12.40625 
L 21 12.40625 
L 21 0 
L 10.6875 0 
z
" id="DejaVuSans-46"/>
      </defs>
      <g transform="translate(10.826875 228.2496)scale(0.1 -0.1)">
       <use xlink:href="#DejaVuSans-48"/>
       <use x="63.623047" xlink:href="#DejaVuSans-46"/>
       <use x="95.410156" xlink:href="#DejaVuSans-48"/>
      </g>
     </g>
    </g>
    <g id="ytick_2">
     <g id="text_11">
      <!-- 0.1 -->
      <g transform="translate(10.826875 189.130313)scale(0.1 -0.1)">
       <use xlink:href="#DejaVuSans-48"/>
       <use x="63.623047" xlink:href="#DejaVuSans-46"/>
       <use x="95.410156" xlink:href="#DejaVuSans-49"/>
      </g>
     </g>
    </g>
    <g id="ytick_3">
     <g id="text_12">
      <!-- 0.2 -->
      <g transform="translate(10.826875 150.011026)scale(0.1 -0.1)">
       <use xlink:href="#DejaVuSans-48"/>
       <use x="63.623047" xlink:href="#DejaVuSans-46"/>
       <use x="95.410156" xlink:href="#DejaVuSans-50"/>
      </g>
     </g>
    </g>
    <g id="ytick_4">
     <g id="text_13">
      <!-- 0.3 -->
      <g transform="translate(10.826875 110.891739)scale(0.1 -0.1)">
       <use xlink:href="#DejaVuSans-48"/>
       <use x="63.623047" xlink:href="#DejaVuSans-46"/>
       <use x="95.410156" xlink:href="#DejaVuSans-51"/>
      </g>
     </g>
    </g>
    <g id="ytick_5">
     <g id="text_14">
      <!-- 0.4 -->
      <g transform="translate(10.826875 71.772452)scale(0.1 -0.1)">
       <use xlink:href="#DejaVuSans-48"/>
       <use x="63.623047" xlink:href="#DejaVuSans-46"/>
       <use x="95.410156" xlink:href="#DejaVuSans-52"/>
      </g>
     </g>
    </g>
    <g id="ytick_6">
     <g id="text_15">
      <!-- 0.5 -->
      <defs>
       <path d="M 10.796875 72.90625 
L 49.515625 72.90625 
L 49.515625 64.59375 
L 19.828125 64.59375 
L 19.828125 46.734375 
Q 21.96875 47.46875 24.109375 47.828125 
Q 26.265625 48.1875 28.421875 48.1875 
Q 40.625 48.1875 47.75 41.5 
Q 54.890625 34.8125 54.890625 23.390625 
Q 54.890625 11.625 47.5625 5.09375 
Q 40.234375 -1.421875 26.90625 -1.421875 
Q 22.3125 -1.421875 17.546875 -0.640625 
Q 12.796875 0.140625 7.71875 1.703125 
L 7.71875 11.625 
Q 12.109375 9.234375 16.796875 8.0625 
Q 21.484375 6.890625 26.703125 6.890625 
Q 35.15625 6.890625 40.078125 11.328125 
Q 45.015625 15.765625 45.015625 23.390625 
Q 45.015625 31 40.078125 35.4375 
Q 35.15625 39.890625 26.703125 39.890625 
Q 22.75 39.890625 18.8125 39.015625 
Q 14.890625 38.140625 10.796875 36.28125 
z
" id="DejaVuSans-53"/>
      </defs>
      <g transform="translate(10.826875 32.653165)scale(0.1 -0.1)">
       <use xlink:href="#DejaVuSans-48"/>
       <use x="63.623047" xlink:href="#DejaVuSans-46"/>
       <use x="95.410156" xlink:href="#DejaVuSans-53"/>
      </g>
     </g>
    </g>
    <g id="text_16">
     <!-- Proportion of RBD  -->
     <defs>
      <path d="M 19.671875 64.796875 
L 19.671875 37.40625 
L 32.078125 37.40625 
Q 38.96875 37.40625 42.71875 40.96875 
Q 46.484375 44.53125 46.484375 51.125 
Q 46.484375 57.671875 42.71875 61.234375 
Q 38.96875 64.796875 32.078125 64.796875 
z
M 9.8125 72.90625 
L 32.078125 72.90625 
Q 44.34375 72.90625 50.609375 67.359375 
Q 56.890625 61.8125 56.890625 51.125 
Q 56.890625 40.328125 50.609375 34.8125 
Q 44.34375 29.296875 32.078125 29.296875 
L 19.671875 29.296875 
L 19.671875 0 
L 9.8125 0 
z
" id="DejaVuSans-80"/>
      <path d="M 41.109375 46.296875 
Q 39.59375 47.171875 37.8125 47.578125 
Q 36.03125 48 33.890625 48 
Q 26.265625 48 22.1875 43.046875 
Q 18.109375 38.09375 18.109375 28.8125 
L 18.109375 0 
L 9.078125 0 
L 9.078125 54.6875 
L 18.109375 54.6875 
L 18.109375 46.1875 
Q 20.953125 51.171875 25.484375 53.578125 
Q 30.03125 56 36.53125 56 
Q 37.453125 56 38.578125 55.875 
Q 39.703125 55.765625 41.0625 55.515625 
z
" id="DejaVuSans-114"/>
      <path d="M 30.609375 48.390625 
Q 23.390625 48.390625 19.1875 42.75 
Q 14.984375 37.109375 14.984375 27.296875 
Q 14.984375 17.484375 19.15625 11.84375 
Q 23.34375 6.203125 30.609375 6.203125 
Q 37.796875 6.203125 41.984375 11.859375 
Q 46.1875 17.53125 46.1875 27.296875 
Q 46.1875 37.015625 41.984375 42.703125 
Q 37.796875 48.390625 30.609375 48.390625 
z
M 30.609375 56 
Q 42.328125 56 49.015625 48.375 
Q 55.71875 40.765625 55.71875 27.296875 
Q 55.71875 13.875 49.015625 6.21875 
Q 42.328125 -1.421875 30.609375 -1.421875 
Q 18.84375 -1.421875 12.171875 6.21875 
Q 5.515625 13.875 5.515625 27.296875 
Q 5.515625 40.765625 12.171875 48.375 
Q 18.84375 56 30.609375 56 
z
" id="DejaVuSans-111"/>
      <path d="M 18.109375 8.203125 
L 18.109375 -20.796875 
L 9.078125 -20.796875 
L 9.078125 54.6875 
L 18.109375 54.6875 
L 18.109375 46.390625 
Q 20.953125 51.265625 25.265625 53.625 
Q 29.59375 56 35.59375 56 
Q 45.5625 56 51.78125 48.09375 
Q 58.015625 40.1875 58.015625 27.296875 
Q 58.015625 14.40625 51.78125 6.484375 
Q 45.5625 -1.421875 35.59375 -1.421875 
Q 29.59375 -1.421875 25.265625 0.953125 
Q 20.953125 3.328125 18.109375 8.203125 
z
M 48.6875 27.296875 
Q 48.6875 37.203125 44.609375 42.84375 
Q 40.53125 48.484375 33.40625 48.484375 
Q 26.265625 48.484375 22.1875 42.84375 
Q 18.109375 37.203125 18.109375 27.296875 
Q 18.109375 17.390625 22.1875 11.75 
Q 26.265625 6.109375 33.40625 6.109375 
Q 40.53125 6.109375 44.609375 11.75 
Q 48.6875 17.390625 48.6875 27.296875 
z
" id="DejaVuSans-112"/>
      <path d="M 18.3125 70.21875 
L 18.3125 54.6875 
L 36.8125 54.6875 
L 36.8125 47.703125 
L 18.3125 47.703125 
L 18.3125 18.015625 
Q 18.3125 11.328125 20.140625 9.421875 
Q 21.96875 7.515625 27.59375 7.515625 
L 36.8125 7.515625 
L 36.8125 0 
L 27.59375 0 
Q 17.1875 0 13.234375 3.875 
Q 9.28125 7.765625 9.28125 18.015625 
L 9.28125 47.703125 
L 2.6875 47.703125 
L 2.6875 54.6875 
L 9.28125 54.6875 
L 9.28125 70.21875 
z
" id="DejaVuSans-116"/>
      <path d="M 9.421875 54.6875 
L 18.40625 54.6875 
L 18.40625 0 
L 9.421875 0 
z
M 9.421875 75.984375 
L 18.40625 75.984375 
L 18.40625 64.59375 
L 9.421875 64.59375 
z
" id="DejaVuSans-105"/>
      <path d="M 54.890625 33.015625 
L 54.890625 0 
L 45.90625 0 
L 45.90625 32.71875 
Q 45.90625 40.484375 42.875 44.328125 
Q 39.84375 48.1875 33.796875 48.1875 
Q 26.515625 48.1875 22.3125 43.546875 
Q 18.109375 38.921875 18.109375 30.90625 
L 18.109375 0 
L 9.078125 0 
L 9.078125 54.6875 
L 18.109375 54.6875 
L 18.109375 46.1875 
Q 21.34375 51.125 25.703125 53.5625 
Q 30.078125 56 35.796875 56 
Q 45.21875 56 50.046875 50.171875 
Q 54.890625 44.34375 54.890625 33.015625 
z
" id="DejaVuSans-110"/>
      <path id="DejaVuSans-32"/>
      <path d="M 37.109375 75.984375 
L 37.109375 68.5 
L 28.515625 68.5 
Q 23.6875 68.5 21.796875 66.546875 
Q 19.921875 64.59375 19.921875 59.515625 
L 19.921875 54.6875 
L 34.71875 54.6875 
L 34.71875 47.703125 
L 19.921875 47.703125 
L 19.921875 0 
L 10.890625 0 
L 10.890625 47.703125 
L 2.296875 47.703125 
L 2.296875 54.6875 
L 10.890625 54.6875 
L 10.890625 58.5 
Q 10.890625 67.625 15.140625 71.796875 
Q 19.390625 75.984375 28.609375 75.984375 
z
" id="DejaVuSans-102"/>
      <path d="M 44.390625 34.1875 
Q 47.5625 33.109375 50.5625 29.59375 
Q 53.5625 26.078125 56.59375 19.921875 
L 66.609375 0 
L 56 0 
L 46.6875 18.703125 
Q 43.0625 26.03125 39.671875 28.421875 
Q 36.28125 30.8125 30.421875 30.8125 
L 19.671875 30.8125 
L 19.671875 0 
L 9.8125 0 
L 9.8125 72.90625 
L 32.078125 72.90625 
Q 44.578125 72.90625 50.734375 67.671875 
Q 56.890625 62.453125 56.890625 51.90625 
Q 56.890625 45.015625 53.6875 40.46875 
Q 50.484375 35.9375 44.390625 34.1875 
z
M 19.671875 64.796875 
L 19.671875 38.921875 
L 32.078125 38.921875 
Q 39.203125 38.921875 42.84375 42.21875 
Q 46.484375 45.515625 46.484375 51.90625 
Q 46.484375 58.296875 42.84375 61.546875 
Q 39.203125 64.796875 32.078125 64.796875 
z
" id="DejaVuSans-82"/>
      <path d="M 19.671875 34.8125 
L 19.671875 8.109375 
L 35.5 8.109375 
Q 43.453125 8.109375 47.28125 11.40625 
Q 51.125 14.703125 51.125 21.484375 
Q 51.125 28.328125 47.28125 31.5625 
Q 43.453125 34.8125 35.5 34.8125 
z
M 19.671875 64.796875 
L 19.671875 42.828125 
L 34.28125 42.828125 
Q 41.5 42.828125 45.03125 45.53125 
Q 48.578125 48.25 48.578125 53.8125 
Q 48.578125 59.328125 45.03125 62.0625 
Q 41.5 64.796875 34.28125 64.796875 
z
M 9.8125 72.90625 
L 35.015625 72.90625 
Q 46.296875 72.90625 52.390625 68.21875 
Q 58.5 63.53125 58.5 54.890625 
Q 58.5 48.1875 55.375 44.234375 
Q 52.25 40.28125 46.1875 39.3125 
Q 53.46875 37.75 57.5 32.78125 
Q 61.53125 27.828125 61.53125 20.40625 
Q 61.53125 10.640625 54.890625 5.3125 
Q 48.25 0 35.984375 0 
L 9.8125 0 
z
" id="DejaVuSans-66"/>
      <path d="M 19.671875 64.796875 
L 19.671875 8.109375 
L 31.59375 8.109375 
Q 46.6875 8.109375 53.6875 14.9375 
Q 60.6875 21.78125 60.6875 36.53125 
Q 60.6875 51.171875 53.6875 57.984375 
Q 46.6875 64.796875 31.59375 64.796875 
z
M 9.8125 72.90625 
L 30.078125 72.90625 
Q 51.265625 72.90625 61.171875 64.09375 
Q 71.09375 55.28125 71.09375 36.53125 
Q 71.09375 17.671875 61.125 8.828125 
Q 51.171875 0 30.078125 0 
L 9.8125 0 
z
" id="DejaVuSans-68"/>
     </defs>
     <g transform="translate(-6.450625 176.049604)rotate(-90)scale(0.1 -0.1)">
      <use xlink:href="#DejaVuSans-80"/>
      <use x="58.552734" xlink:href="#DejaVuSans-114"/>
      <use x="97.416016" xlink:href="#DejaVuSans-111"/>
      <use x="158.597656" xlink:href="#DejaVuSans-112"/>
      <use x="222.074219" xlink:href="#DejaVuSans-111"/>
      <use x="283.255859" xlink:href="#DejaVuSans-114"/>
      <use x="324.369141" xlink:href="#DejaVuSans-116"/>
      <use x="363.578125" xlink:href="#DejaVuSans-105"/>
      <use x="391.361328" xlink:href="#DejaVuSans-111"/>
      <use x="452.542969" xlink:href="#DejaVuSans-110"/>
      <use x="515.921875" xlink:href="#DejaVuSans-32"/>
      <use x="547.708984" xlink:href="#DejaVuSans-111"/>
      <use x="608.890625" xlink:href="#DejaVuSans-102"/>
      <use x="644.095703" xlink:href="#DejaVuSans-32"/>
      <use x="675.882812" xlink:href="#DejaVuSans-82"/>
      <use x="745.365234" xlink:href="#DejaVuSans-66"/>
      <use x="813.96875" xlink:href="#DejaVuSans-68"/>
      <use x="890.970703" xlink:href="#DejaVuSans-32"/>
     </g>
     <!-- Escape Mutations Seen in Pandemic -->
     <defs>
      <path d="M 9.8125 72.90625 
L 55.90625 72.90625 
L 55.90625 64.59375 
L 19.671875 64.59375 
L 19.671875 43.015625 
L 54.390625 43.015625 
L 54.390625 34.71875 
L 19.671875 34.71875 
L 19.671875 8.296875 
L 56.78125 8.296875 
L 56.78125 0 
L 9.8125 0 
z
" id="DejaVuSans-69"/>
      <path d="M 44.28125 53.078125 
L 44.28125 44.578125 
Q 40.484375 46.53125 36.375 47.5 
Q 32.28125 48.484375 27.875 48.484375 
Q 21.1875 48.484375 17.84375 46.4375 
Q 14.5 44.390625 14.5 40.28125 
Q 14.5 37.15625 16.890625 35.375 
Q 19.28125 33.59375 26.515625 31.984375 
L 29.59375 31.296875 
Q 39.15625 29.25 43.1875 25.515625 
Q 47.21875 21.78125 47.21875 15.09375 
Q 47.21875 7.46875 41.1875 3.015625 
Q 35.15625 -1.421875 24.609375 -1.421875 
Q 20.21875 -1.421875 15.453125 -0.5625 
Q 10.6875 0.296875 5.421875 2 
L 5.421875 11.28125 
Q 10.40625 8.6875 15.234375 7.390625 
Q 20.0625 6.109375 24.8125 6.109375 
Q 31.15625 6.109375 34.5625 8.28125 
Q 37.984375 10.453125 37.984375 14.40625 
Q 37.984375 18.0625 35.515625 20.015625 
Q 33.0625 21.96875 24.703125 23.78125 
L 21.578125 24.515625 
Q 13.234375 26.265625 9.515625 29.90625 
Q 5.8125 33.546875 5.8125 39.890625 
Q 5.8125 47.609375 11.28125 51.796875 
Q 16.75 56 26.8125 56 
Q 31.78125 56 36.171875 55.265625 
Q 40.578125 54.546875 44.28125 53.078125 
z
" id="DejaVuSans-115"/>
      <path d="M 48.78125 52.59375 
L 48.78125 44.1875 
Q 44.96875 46.296875 41.140625 47.34375 
Q 37.3125 48.390625 33.40625 48.390625 
Q 24.65625 48.390625 19.8125 42.84375 
Q 14.984375 37.3125 14.984375 27.296875 
Q 14.984375 17.28125 19.8125 11.734375 
Q 24.65625 6.203125 33.40625 6.203125 
Q 37.3125 6.203125 41.140625 7.25 
Q 44.96875 8.296875 48.78125 10.40625 
L 48.78125 2.09375 
Q 45.015625 0.34375 40.984375 -0.53125 
Q 36.96875 -1.421875 32.421875 -1.421875 
Q 20.0625 -1.421875 12.78125 6.34375 
Q 5.515625 14.109375 5.515625 27.296875 
Q 5.515625 40.671875 12.859375 48.328125 
Q 20.21875 56 33.015625 56 
Q 37.15625 56 41.109375 55.140625 
Q 45.0625 54.296875 48.78125 52.59375 
z
" id="DejaVuSans-99"/>
      <path d="M 34.28125 27.484375 
Q 23.390625 27.484375 19.1875 25 
Q 14.984375 22.515625 14.984375 16.5 
Q 14.984375 11.71875 18.140625 8.90625 
Q 21.296875 6.109375 26.703125 6.109375 
Q 34.1875 6.109375 38.703125 11.40625 
Q 43.21875 16.703125 43.21875 25.484375 
L 43.21875 27.484375 
z
M 52.203125 31.203125 
L 52.203125 0 
L 43.21875 0 
L 43.21875 8.296875 
Q 40.140625 3.328125 35.546875 0.953125 
Q 30.953125 -1.421875 24.3125 -1.421875 
Q 15.921875 -1.421875 10.953125 3.296875 
Q 6 8.015625 6 15.921875 
Q 6 25.140625 12.171875 29.828125 
Q 18.359375 34.515625 30.609375 34.515625 
L 43.21875 34.515625 
L 43.21875 35.40625 
Q 43.21875 41.609375 39.140625 45 
Q 35.0625 48.390625 27.6875 48.390625 
Q 23 48.390625 18.546875 47.265625 
Q 14.109375 46.140625 10.015625 43.890625 
L 10.015625 52.203125 
Q 14.9375 54.109375 19.578125 55.046875 
Q 24.21875 56 28.609375 56 
Q 40.484375 56 46.34375 49.84375 
Q 52.203125 43.703125 52.203125 31.203125 
z
" id="DejaVuSans-97"/>
      <path d="M 56.203125 29.59375 
L 56.203125 25.203125 
L 14.890625 25.203125 
Q 15.484375 15.921875 20.484375 11.0625 
Q 25.484375 6.203125 34.421875 6.203125 
Q 39.59375 6.203125 44.453125 7.46875 
Q 49.3125 8.734375 54.109375 11.28125 
L 54.109375 2.78125 
Q 49.265625 0.734375 44.1875 -0.34375 
Q 39.109375 -1.421875 33.890625 -1.421875 
Q 20.796875 -1.421875 13.15625 6.1875 
Q 5.515625 13.8125 5.515625 26.8125 
Q 5.515625 40.234375 12.765625 48.109375 
Q 20.015625 56 32.328125 56 
Q 43.359375 56 49.78125 48.890625 
Q 56.203125 41.796875 56.203125 29.59375 
z
M 47.21875 32.234375 
Q 47.125 39.59375 43.09375 43.984375 
Q 39.0625 48.390625 32.421875 48.390625 
Q 24.90625 48.390625 20.390625 44.140625 
Q 15.875 39.890625 15.1875 32.171875 
z
" id="DejaVuSans-101"/>
      <path d="M 9.8125 72.90625 
L 24.515625 72.90625 
L 43.109375 23.296875 
L 61.8125 72.90625 
L 76.515625 72.90625 
L 76.515625 0 
L 66.890625 0 
L 66.890625 64.015625 
L 48.09375 14.015625 
L 38.1875 14.015625 
L 19.390625 64.015625 
L 19.390625 0 
L 9.8125 0 
z
" id="DejaVuSans-77"/>
      <path d="M 8.5 21.578125 
L 8.5 54.6875 
L 17.484375 54.6875 
L 17.484375 21.921875 
Q 17.484375 14.15625 20.5 10.265625 
Q 23.53125 6.390625 29.59375 6.390625 
Q 36.859375 6.390625 41.078125 11.03125 
Q 45.3125 15.671875 45.3125 23.6875 
L 45.3125 54.6875 
L 54.296875 54.6875 
L 54.296875 0 
L 45.3125 0 
L 45.3125 8.40625 
Q 42.046875 3.421875 37.71875 1 
Q 33.40625 -1.421875 27.6875 -1.421875 
Q 18.265625 -1.421875 13.375 4.4375 
Q 8.5 10.296875 8.5 21.578125 
z
M 31.109375 56 
z
" id="DejaVuSans-117"/>
      <path d="M 53.515625 70.515625 
L 53.515625 60.890625 
Q 47.90625 63.578125 42.921875 64.890625 
Q 37.9375 66.21875 33.296875 66.21875 
Q 25.25 66.21875 20.875 63.09375 
Q 16.5 59.96875 16.5 54.203125 
Q 16.5 49.359375 19.40625 46.890625 
Q 22.3125 44.4375 30.421875 42.921875 
L 36.375 41.703125 
Q 47.40625 39.59375 52.65625 34.296875 
Q 57.90625 29 57.90625 20.125 
Q 57.90625 9.515625 50.796875 4.046875 
Q 43.703125 -1.421875 29.984375 -1.421875 
Q 24.8125 -1.421875 18.96875 -0.25 
Q 13.140625 0.921875 6.890625 3.21875 
L 6.890625 13.375 
Q 12.890625 10.015625 18.65625 8.296875 
Q 24.421875 6.59375 29.984375 6.59375 
Q 38.421875 6.59375 43.015625 9.90625 
Q 47.609375 13.234375 47.609375 19.390625 
Q 47.609375 24.75 44.3125 27.78125 
Q 41.015625 30.8125 33.5 32.328125 
L 27.484375 33.5 
Q 16.453125 35.6875 11.515625 40.375 
Q 6.59375 45.0625 6.59375 53.421875 
Q 6.59375 63.09375 13.40625 68.65625 
Q 20.21875 74.21875 32.171875 74.21875 
Q 37.3125 74.21875 42.625 73.28125 
Q 47.953125 72.359375 53.515625 70.515625 
z
" id="DejaVuSans-83"/>
      <path d="M 45.40625 46.390625 
L 45.40625 75.984375 
L 54.390625 75.984375 
L 54.390625 0 
L 45.40625 0 
L 45.40625 8.203125 
Q 42.578125 3.328125 38.25 0.953125 
Q 33.9375 -1.421875 27.875 -1.421875 
Q 17.96875 -1.421875 11.734375 6.484375 
Q 5.515625 14.40625 5.515625 27.296875 
Q 5.515625 40.1875 11.734375 48.09375 
Q 17.96875 56 27.875 56 
Q 33.9375 56 38.25 53.625 
Q 42.578125 51.265625 45.40625 46.390625 
z
M 14.796875 27.296875 
Q 14.796875 17.390625 18.875 11.75 
Q 22.953125 6.109375 30.078125 6.109375 
Q 37.203125 6.109375 41.296875 11.75 
Q 45.40625 17.390625 45.40625 27.296875 
Q 45.40625 37.203125 41.296875 42.84375 
Q 37.203125 48.484375 30.078125 48.484375 
Q 22.953125 48.484375 18.875 42.84375 
Q 14.796875 37.203125 14.796875 27.296875 
z
" id="DejaVuSans-100"/>
      <path d="M 52 44.1875 
Q 55.375 50.25 60.0625 53.125 
Q 64.75 56 71.09375 56 
Q 79.640625 56 84.28125 50.015625 
Q 88.921875 44.046875 88.921875 33.015625 
L 88.921875 0 
L 79.890625 0 
L 79.890625 32.71875 
Q 79.890625 40.578125 77.09375 44.375 
Q 74.3125 48.1875 68.609375 48.1875 
Q 61.625 48.1875 57.5625 43.546875 
Q 53.515625 38.921875 53.515625 30.90625 
L 53.515625 0 
L 44.484375 0 
L 44.484375 32.71875 
Q 44.484375 40.625 41.703125 44.40625 
Q 38.921875 48.1875 33.109375 48.1875 
Q 26.21875 48.1875 22.15625 43.53125 
Q 18.109375 38.875 18.109375 30.90625 
L 18.109375 0 
L 9.078125 0 
L 9.078125 54.6875 
L 18.109375 54.6875 
L 18.109375 46.1875 
Q 21.1875 51.21875 25.484375 53.609375 
Q 29.78125 56 35.6875 56 
Q 41.65625 56 45.828125 52.96875 
Q 50 49.953125 52 44.1875 
z
" id="DejaVuSans-109"/>
     </defs>
     <g transform="translate(4.747187 220.121479)rotate(-90)scale(0.1 -0.1)">
      <use xlink:href="#DejaVuSans-69"/>
      <use x="63.183594" xlink:href="#DejaVuSans-115"/>
      <use x="115.283203" xlink:href="#DejaVuSans-99"/>
      <use x="170.263672" xlink:href="#DejaVuSans-97"/>
      <use x="231.542969" xlink:href="#DejaVuSans-112"/>
      <use x="295.019531" xlink:href="#DejaVuSans-101"/>
      <use x="356.542969" xlink:href="#DejaVuSans-32"/>
      <use x="388.330078" xlink:href="#DejaVuSans-77"/>
      <use x="474.609375" xlink:href="#DejaVuSans-117"/>
      <use x="537.988281" xlink:href="#DejaVuSans-116"/>
      <use x="577.197266" xlink:href="#DejaVuSans-97"/>
      <use x="638.476562" xlink:href="#DejaVuSans-116"/>
      <use x="677.685547" xlink:href="#DejaVuSans-105"/>
      <use x="705.46875" xlink:href="#DejaVuSans-111"/>
      <use x="766.650391" xlink:href="#DejaVuSans-110"/>
      <use x="830.029297" xlink:href="#DejaVuSans-115"/>
      <use x="882.128906" xlink:href="#DejaVuSans-32"/>
      <use x="913.916016" xlink:href="#DejaVuSans-83"/>
      <use x="977.392578" xlink:href="#DejaVuSans-101"/>
      <use x="1038.916016" xlink:href="#DejaVuSans-101"/>
      <use x="1100.439453" xlink:href="#DejaVuSans-110"/>
      <use x="1163.818359" xlink:href="#DejaVuSans-32"/>
      <use x="1195.605469" xlink:href="#DejaVuSans-105"/>
      <use x="1223.388672" xlink:href="#DejaVuSans-110"/>
      <use x="1286.767578" xlink:href="#DejaVuSans-32"/>
      <use x="1318.554688" xlink:href="#DejaVuSans-80"/>
      <use x="1374.357422" xlink:href="#DejaVuSans-97"/>
      <use x="1435.636719" xlink:href="#DejaVuSans-110"/>
      <use x="1499.015625" xlink:href="#DejaVuSans-100"/>
      <use x="1562.492188" xlink:href="#DejaVuSans-101"/>
      <use x="1624.015625" xlink:href="#DejaVuSans-109"/>
      <use x="1721.427734" xlink:href="#DejaVuSans-105"/>
      <use x="1749.210938" xlink:href="#DejaVuSans-99"/>
     </g>
    </g>
   </g>
   <g id="line2d_10">
    <path clip-path="url(#pc5d7a24950)" d="M 48.061112 224.450381 
L 54.016399 224.450381 
L 59.587475 218.240971 
L 65.542762 218.240971 
L 71.305944 218.240971 
L 77.261232 218.240971 
L 83.024413 218.240971 
L 88.979701 218.240971 
L 94.934988 218.240971 
L 100.69817 212.03156 
L 106.653458 212.03156 
L 112.416639 212.03156 
L 118.371927 205.822149 
L 124.327214 193.403328 
L 129.706184 193.403328 
L 135.661472 180.984507 
L 141.424653 180.984507 
L 147.379941 180.984507 
L 153.143122 180.984507 
L 159.09841 180.984507 
L 165.053698 180.984507 
L 170.816879 180.984507 
L 176.772167 174.775096 
L 182.535348 156.146864 
L 188.490636 156.146864 
L 194.445924 149.937454 
L 199.824893 149.937454 
L 205.780181 149.937454 
L 211.543362 143.728043 
L 217.49865 143.728043 
L 223.261832 137.518632 
L 229.217119 131.309222 
L 235.172407 125.099811 
L 240.935588 125.099811 
L 246.890876 125.099811 
L 252.654058 125.099811 
L 258.609345 118.890401 
L 264.564633 118.890401 
L 269.943602 118.890401 
L 275.89889 118.890401 
L 281.662072 118.890401 
L 287.617359 118.890401 
L 293.380541 112.68099 
L 299.335828 112.68099 
L 305.291116 106.471579 
L 311.054298 100.262169 
L 317.009585 100.262169 
L 322.772767 100.262169 
L 328.728055 100.262169 
L 334.683342 100.262169 
" style="fill:none;stroke:#00008b;stroke-linecap:square;stroke-opacity:0.25;stroke-width:1.5;"/>
   </g>
   <g id="line2d_11">
    <path clip-path="url(#pc5d7a24950)" d="M 48.061112 224.450381 
L 54.016399 224.450381 
L 59.587475 219.56047 
L 65.542762 219.56047 
L 71.305944 219.56047 
L 77.261232 219.56047 
L 83.024413 219.56047 
L 88.979701 219.56047 
L 94.934988 219.56047 
L 100.69817 214.67056 
L 106.653458 214.67056 
L 112.416639 209.780649 
L 118.371927 200.000827 
L 124.327214 185.331094 
L 129.706184 185.331094 
L 135.661472 170.661362 
L 141.424653 170.661362 
L 147.379941 160.88154 
L 153.143122 160.88154 
L 159.09841 160.88154 
L 165.053698 160.88154 
L 170.816879 160.88154 
L 176.772167 155.991629 
L 182.535348 131.542075 
L 188.490636 131.542075 
L 194.445924 126.652164 
L 199.824893 126.652164 
L 205.780181 121.762253 
L 211.543362 116.872342 
L 217.49865 116.872342 
L 223.261832 107.09252 
L 229.217119 102.20261 
L 235.172407 102.20261 
L 240.935588 102.20261 
L 246.890876 97.312699 
L 252.654058 97.312699 
L 258.609345 92.422788 
L 264.564633 92.422788 
L 269.943602 92.422788 
L 275.89889 92.422788 
L 281.662072 92.422788 
L 287.617359 92.422788 
L 293.380541 87.532877 
L 299.335828 87.532877 
L 305.291116 82.642966 
L 311.054298 77.753055 
L 317.009585 77.753055 
L 322.772767 77.753055 
L 328.728055 77.753055 
L 334.683342 77.753055 
" style="fill:none;stroke:#00008b;stroke-linecap:square;stroke-opacity:0.4;stroke-width:1.5;"/>
   </g>
   <g id="line2d_12">
    <path clip-path="url(#pc5d7a24950)" d="M 48.061112 224.450381 
L 54.016399 224.450381 
L 59.587475 220.957588 
L 65.542762 220.957588 
L 71.305944 220.957588 
L 77.261232 220.957588 
L 83.024413 220.957588 
L 88.979701 217.464794 
L 94.934988 217.464794 
L 100.69817 213.972001 
L 106.653458 206.986414 
L 112.416639 196.508033 
L 118.371927 193.01524 
L 124.327214 186.029653 
L 129.706184 182.53686 
L 135.661472 168.565686 
L 141.424653 161.580099 
L 147.379941 154.594512 
L 153.143122 154.594512 
L 159.09841 151.101718 
L 165.053698 151.101718 
L 170.816879 151.101718 
L 176.772167 147.608925 
L 182.535348 112.68099 
L 188.490636 84.738642 
L 194.445924 81.245849 
L 199.824893 81.245849 
L 205.780181 77.753055 
L 211.543362 74.260262 
L 217.49865 74.260262 
L 223.261832 67.274675 
L 229.217119 60.289088 
L 235.172407 60.289088 
L 240.935588 56.796294 
L 246.890876 56.796294 
L 252.654058 53.303501 
L 258.609345 49.810707 
L 264.564633 49.810707 
L 269.943602 49.810707 
L 275.89889 49.810707 
L 281.662072 49.810707 
L 287.617359 49.810707 
L 293.380541 46.317914 
L 299.335828 46.317914 
L 305.291116 46.317914 
L 311.054298 42.82512 
L 317.009585 42.82512 
L 322.772767 42.82512 
L 328.728055 42.82512 
L 334.683342 42.82512 
" style="fill:none;stroke:#00008b;stroke-linecap:square;stroke-opacity:0.55;stroke-width:1.5;"/>
   </g>
   <g id="line2d_13">
    <path clip-path="url(#pc5d7a24950)" d="M 48.061112 224.450381 
L 54.016399 224.450381 
L 59.587475 220.926121 
L 65.542762 220.926121 
L 71.305944 220.926121 
L 77.261232 220.926121 
L 83.024413 220.926121 
L 88.979701 217.401861 
L 94.934988 217.401861 
L 100.69817 213.877601 
L 106.653458 213.877601 
L 112.416639 203.304821 
L 118.371927 199.780561 
L 124.327214 192.73204 
L 129.706184 189.20778 
L 135.661472 171.58648 
L 141.424653 164.53796 
L 147.379941 161.0137 
L 153.143122 161.0137 
L 159.09841 161.0137 
L 165.053698 161.0137 
L 170.816879 161.0137 
L 176.772167 157.48944 
L 182.535348 122.246839 
L 188.490636 94.052758 
L 194.445924 90.528498 
L 199.824893 90.528498 
L 205.780181 90.528498 
L 211.543362 90.528498 
L 217.49865 90.528498 
L 223.261832 83.479978 
L 229.217119 76.431458 
L 235.172407 76.431458 
L 240.935588 76.431458 
L 246.890876 72.907198 
L 252.654058 72.907198 
L 258.609345 65.858677 
L 264.564633 65.858677 
L 269.943602 65.858677 
L 275.89889 65.858677 
L 281.662072 65.858677 
L 287.617359 65.858677 
L 293.380541 62.334417 
L 299.335828 62.334417 
L 305.291116 58.810157 
L 311.054298 58.810157 
L 317.009585 58.810157 
L 322.772767 58.810157 
L 328.728055 58.810157 
L 334.683342 58.810157 
" style="fill:none;stroke:#00008b;stroke-linecap:square;stroke-opacity:0.7;stroke-width:1.5;"/>
   </g>
   <g id="line2d_14">
    <path clip-path="url(#pc5d7a24950)" d="M 48.061112 224.450381 
L 54.016399 224.450381 
L 59.587475 221.048704 
L 65.542762 221.048704 
L 71.305944 221.048704 
L 77.261232 221.048704 
L 83.024413 221.048704 
L 88.979701 217.647027 
L 94.934988 217.647027 
L 100.69817 214.24535 
L 106.653458 214.24535 
L 112.416639 204.040318 
L 118.371927 200.638641 
L 124.327214 193.835287 
L 129.706184 190.43361 
L 135.661472 170.023547 
L 141.424653 166.62187 
L 147.379941 163.220193 
L 153.143122 163.220193 
L 159.09841 163.220193 
L 165.053698 163.220193 
L 170.816879 163.220193 
L 176.772167 156.416839 
L 182.535348 122.400067 
L 188.490636 95.18665 
L 194.445924 91.784973 
L 199.824893 91.784973 
L 205.780181 88.383296 
L 211.543362 84.981619 
L 217.49865 78.178265 
L 223.261832 71.374911 
L 229.217119 64.571556 
L 235.172407 64.571556 
L 240.935588 64.571556 
L 246.890876 64.571556 
L 252.654058 64.571556 
L 258.609345 57.768202 
L 264.564633 57.768202 
L 269.943602 57.768202 
L 275.89889 57.768202 
L 281.662072 57.768202 
L 287.617359 57.768202 
L 293.380541 54.366525 
L 299.335828 54.366525 
L 305.291116 50.964848 
L 311.054298 50.964848 
L 317.009585 50.964848 
L 322.772767 50.964848 
L 328.728055 47.563171 
L 334.683342 47.563171 
" style="fill:none;stroke:#00008b;stroke-linecap:square;stroke-opacity:0.75;stroke-width:1.5;"/>
   </g>
   <g id="line2d_15">
    <path clip-path="url(#pc5d7a24950)" d="M 48.061112 224.450381 
L 54.016399 224.450381 
L 59.587475 221.190441 
L 65.542762 221.190441 
L 71.305944 221.190441 
L 77.261232 221.190441 
L 83.024413 221.190441 
L 88.979701 217.9305 
L 94.934988 217.9305 
L 100.69817 217.9305 
L 106.653458 217.9305 
L 112.416639 204.890738 
L 118.371927 201.630797 
L 124.327214 191.850975 
L 129.706184 188.591035 
L 135.661472 172.291332 
L 141.424653 169.031391 
L 147.379941 165.771451 
L 153.143122 165.771451 
L 159.09841 165.771451 
L 165.053698 165.771451 
L 170.816879 165.771451 
L 176.772167 159.25157 
L 182.535348 126.652164 
L 188.490636 103.83258 
L 194.445924 103.83258 
L 199.824893 100.572639 
L 205.780181 97.312699 
L 211.543362 97.312699 
L 217.49865 94.052758 
L 223.261832 87.532877 
L 229.217119 77.753055 
L 235.172407 74.493115 
L 240.935588 61.453352 
L 246.890876 54.933471 
L 252.654058 51.673531 
L 258.609345 45.153649 
L 264.564633 45.153649 
L 269.943602 45.153649 
L 275.89889 45.153649 
L 281.662072 45.153649 
L 287.617359 45.153649 
L 293.380541 41.893709 
L 299.335828 41.893709 
L 305.291116 38.633768 
L 311.054298 35.373828 
L 317.009585 35.373828 
L 322.772767 35.373828 
L 328.728055 35.373828 
L 334.683342 35.373828 
" style="fill:none;stroke:#00008b;stroke-linecap:square;stroke-width:1.5;"/>
   </g>
   <g id="line2d_16">
    <path clip-path="url(#pc5d7a24950)" d="M 48.061112 224.450381 
L 54.016399 224.450381 
L 59.587475 224.450381 
L 65.542762 224.450381 
L 71.305944 224.450381 
L 77.261232 224.450381 
L 83.024413 224.450381 
L 88.979701 224.450381 
L 94.934988 224.450381 
L 100.69817 224.450381 
L 106.653458 224.450381 
L 112.416639 224.450381 
L 118.371927 215.946188 
L 124.327214 215.946188 
L 129.706184 215.946188 
L 135.661472 207.441996 
L 141.424653 207.441996 
L 147.379941 207.441996 
L 153.143122 198.937803 
L 159.09841 198.937803 
L 165.053698 198.937803 
L 170.816879 198.937803 
L 176.772167 198.937803 
L 182.535348 190.43361 
L 188.490636 190.43361 
L 194.445924 190.43361 
L 199.824893 190.43361 
L 205.780181 190.43361 
L 211.543362 190.43361 
L 217.49865 190.43361 
L 223.261832 190.43361 
L 229.217119 190.43361 
L 235.172407 181.929417 
L 240.935588 173.425224 
L 246.890876 173.425224 
L 252.654058 173.425224 
L 258.609345 173.425224 
L 264.564633 173.425224 
L 269.943602 173.425224 
L 275.89889 173.425224 
L 281.662072 173.425224 
L 287.617359 173.425224 
L 293.380541 173.425224 
L 299.335828 173.425224 
L 305.291116 173.425224 
L 311.054298 164.921032 
L 317.009585 164.921032 
L 322.772767 164.921032 
L 328.728055 164.921032 
L 334.683342 164.921032 
" style="fill:none;stroke:#008000;stroke-linecap:square;stroke-opacity:0.25;stroke-width:1.5;"/>
   </g>
   <g id="line2d_17">
    <path clip-path="url(#pc5d7a24950)" d="M 48.061112 224.450381 
L 54.016399 224.450381 
L 59.587475 224.450381 
L 65.542762 224.450381 
L 71.305944 224.450381 
L 77.261232 224.450381 
L 83.024413 224.450381 
L 88.979701 224.450381 
L 94.934988 224.450381 
L 100.69817 224.450381 
L 106.653458 224.450381 
L 112.416639 224.450381 
L 118.371927 216.626524 
L 124.327214 208.802666 
L 129.706184 208.802666 
L 135.661472 208.802666 
L 141.424653 208.802666 
L 147.379941 208.802666 
L 153.143122 208.802666 
L 159.09841 208.802666 
L 165.053698 208.802666 
L 170.816879 208.802666 
L 176.772167 200.978809 
L 182.535348 193.154952 
L 188.490636 193.154952 
L 194.445924 193.154952 
L 199.824893 193.154952 
L 205.780181 193.154952 
L 211.543362 185.331094 
L 217.49865 177.507237 
L 223.261832 161.859522 
L 229.217119 161.859522 
L 235.172407 154.035665 
L 240.935588 146.211807 
L 246.890876 146.211807 
L 252.654058 146.211807 
L 258.609345 146.211807 
L 264.564633 146.211807 
L 269.943602 146.211807 
L 275.89889 146.211807 
L 281.662072 146.211807 
L 287.617359 146.211807 
L 293.380541 138.38795 
L 299.335828 138.38795 
L 305.291116 130.564093 
L 311.054298 114.916378 
L 317.009585 114.916378 
L 322.772767 114.916378 
L 328.728055 114.916378 
L 334.683342 114.916378 
" style="fill:none;stroke:#008000;stroke-linecap:square;stroke-width:1.5;"/>
   </g>
   <g id="line2d_18">
    <path clip-path="url(#pc5d7a24950)" d="M 48.061112 224.450381 
L 54.016399 224.450381 
L 59.587475 224.450381 
L 65.542762 224.450381 
L 71.305944 224.450381 
L 77.261232 224.450381 
L 83.024413 224.450381 
L 88.979701 224.450381 
L 94.934988 224.450381 
L 100.69817 224.450381 
L 106.653458 224.450381 
L 112.416639 224.450381 
L 118.371927 224.450381 
L 124.327214 224.450381 
L 129.706184 224.450381 
L 135.661472 224.450381 
L 141.424653 224.450381 
L 147.379941 224.450381 
L 153.143122 224.450381 
L 159.09841 211.624386 
L 165.053698 205.211388 
L 170.816879 205.211388 
L 176.772167 205.211388 
L 182.535348 205.211388 
L 188.490636 205.211388 
L 194.445924 205.211388 
L 199.824893 205.211388 
L 205.780181 205.211388 
L 211.543362 205.211388 
L 217.49865 205.211388 
L 223.261832 205.211388 
L 229.217119 205.211388 
L 235.172407 198.79839 
L 240.935588 198.79839 
L 246.890876 198.79839 
L 252.654058 198.79839 
L 258.609345 198.79839 
L 264.564633 198.79839 
L 269.943602 198.79839 
L 275.89889 198.79839 
L 281.662072 198.79839 
L 287.617359 198.79839 
L 293.380541 198.79839 
L 299.335828 198.79839 
L 305.291116 198.79839 
L 311.054298 198.79839 
L 317.009585 198.79839 
L 322.772767 192.385392 
L 328.728055 192.385392 
L 334.683342 192.385392 
" style="fill:none;stroke:#008000;stroke-dasharray:5.55,2.4;stroke-dashoffset:0;stroke-width:1.5;"/>
   </g>
   <g id="patch_3">
    <path d="M 33.73 233.904209 
L 33.73 25.92 
" style="fill:none;stroke:#000000;stroke-linecap:square;stroke-linejoin:miter;stroke-width:0.8;"/>
   </g>
   <g id="patch_4">
    <path d="M 349.014454 233.904209 
L 349.014454 25.92 
" style="fill:none;stroke:#000000;stroke-linecap:square;stroke-linejoin:miter;stroke-width:0.8;"/>
   </g>
   <g id="patch_5">
    <path d="M 33.73 233.904209 
L 349.014454 233.904209 
" style="fill:none;stroke:#000000;stroke-linecap:square;stroke-linejoin:miter;stroke-width:0.8;"/>
   </g>
   <g id="patch_6">
    <path d="M 33.73 25.92 
L 349.014454 25.92 
" style="fill:none;stroke:#000000;stroke-linecap:square;stroke-linejoin:miter;stroke-width:0.8;"/>
   </g>
   <g id="text_17">
    <!-- Prediction on RBD -->
    <g transform="translate(137.375039 19.92)scale(0.12 -0.12)">
     <use xlink:href="#DejaVuSans-80"/>
     <use x="58.552734" xlink:href="#DejaVuSans-114"/>
     <use x="97.416016" xlink:href="#DejaVuSans-101"/>
     <use x="158.939453" xlink:href="#DejaVuSans-100"/>
     <use x="222.416016" xlink:href="#DejaVuSans-105"/>
     <use x="250.199219" xlink:href="#DejaVuSans-99"/>
     <use x="305.179688" xlink:href="#DejaVuSans-116"/>
     <use x="344.388672" xlink:href="#DejaVuSans-105"/>
     <use x="372.171875" xlink:href="#DejaVuSans-111"/>
     <use x="433.353516" xlink:href="#DejaVuSans-110"/>
     <use x="496.732422" xlink:href="#DejaVuSans-32"/>
     <use x="528.519531" xlink:href="#DejaVuSans-111"/>
     <use x="589.701172" xlink:href="#DejaVuSans-110"/>
     <use x="653.080078" xlink:href="#DejaVuSans-32"/>
     <use x="684.867188" xlink:href="#DejaVuSans-82"/>
     <use x="754.349609" xlink:href="#DejaVuSans-66"/>
     <use x="822.953125" xlink:href="#DejaVuSans-68"/>
    </g>
   </g>
   <g id="legend_1">
    <g id="patch_7">
     <path d="M 40.73 166.023125 
L 141.950312 166.023125 
Q 143.950312 166.023125 143.950312 164.023125 
L 143.950312 32.92 
Q 143.950312 30.92 141.950312 30.92 
L 40.73 30.92 
Q 38.73 30.92 38.73 32.92 
L 38.73 164.023125 
Q 38.73 166.023125 40.73 166.023125 
z
" style="fill:#ffffff;opacity:0.8;stroke:#cccccc;stroke-linejoin:miter;"/>
    </g>
    <g id="line2d_19">
     <path d="M 42.73 39.018438 
L 62.73 39.018438 
" style="fill:none;stroke:#00008b;stroke-linecap:square;stroke-opacity:0.25;stroke-width:1.5;"/>
    </g>
    <g id="line2d_20"/>
    <g id="text_18">
     <!-- B.1 (pre2020) -->
     <defs>
      <path d="M 31 75.875 
Q 24.46875 64.65625 21.28125 53.65625 
Q 18.109375 42.671875 18.109375 31.390625 
Q 18.109375 20.125 21.3125 9.0625 
Q 24.515625 -2 31 -13.1875 
L 23.1875 -13.1875 
Q 15.875 -1.703125 12.234375 9.375 
Q 8.59375 20.453125 8.59375 31.390625 
Q 8.59375 42.28125 12.203125 53.3125 
Q 15.828125 64.359375 23.1875 75.875 
z
" id="DejaVuSans-40"/>
      <path d="M 8.015625 75.875 
L 15.828125 75.875 
Q 23.140625 64.359375 26.78125 53.3125 
Q 30.421875 42.28125 30.421875 31.390625 
Q 30.421875 20.453125 26.78125 9.375 
Q 23.140625 -1.703125 15.828125 -13.1875 
L 8.015625 -13.1875 
Q 14.5 -2 17.703125 9.0625 
Q 20.90625 20.125 20.90625 31.390625 
Q 20.90625 42.671875 17.703125 53.65625 
Q 14.5 64.65625 8.015625 75.875 
z
" id="DejaVuSans-41"/>
     </defs>
     <g transform="translate(70.73 42.518438)scale(0.1 -0.1)">
      <use xlink:href="#DejaVuSans-66"/>
      <use x="68.603516" xlink:href="#DejaVuSans-46"/>
      <use x="100.390625" xlink:href="#DejaVuSans-49"/>
      <use x="164.013672" xlink:href="#DejaVuSans-32"/>
      <use x="195.800781" xlink:href="#DejaVuSans-40"/>
      <use x="234.814453" xlink:href="#DejaVuSans-112"/>
      <use x="298.291016" xlink:href="#DejaVuSans-114"/>
      <use x="337.154297" xlink:href="#DejaVuSans-101"/>
      <use x="398.677734" xlink:href="#DejaVuSans-50"/>
      <use x="462.300781" xlink:href="#DejaVuSans-48"/>
      <use x="525.923828" xlink:href="#DejaVuSans-50"/>
      <use x="589.546875" xlink:href="#DejaVuSans-48"/>
      <use x="653.169922" xlink:href="#DejaVuSans-41"/>
     </g>
    </g>
    <g id="line2d_21">
     <path d="M 42.73 53.696563 
L 62.73 53.696563 
" style="fill:none;stroke:#00008b;stroke-linecap:square;stroke-opacity:0.4;stroke-width:1.5;"/>
    </g>
    <g id="line2d_22"/>
    <g id="text_19">
     <!-- B.1 -->
     <g transform="translate(70.73 57.196563)scale(0.1 -0.1)">
      <use xlink:href="#DejaVuSans-66"/>
      <use x="68.603516" xlink:href="#DejaVuSans-46"/>
      <use x="100.390625" xlink:href="#DejaVuSans-49"/>
     </g>
    </g>
    <g id="line2d_23">
     <path d="M 42.73 68.374687 
L 62.73 68.374687 
" style="fill:none;stroke:#00008b;stroke-linecap:square;stroke-opacity:0.55;stroke-width:1.5;"/>
    </g>
    <g id="line2d_24"/>
    <g id="text_20">
     <!-- BA.4/5 -->
     <defs>
      <path d="M 34.1875 63.1875 
L 20.796875 26.90625 
L 47.609375 26.90625 
z
M 28.609375 72.90625 
L 39.796875 72.90625 
L 67.578125 0 
L 57.328125 0 
L 50.6875 18.703125 
L 17.828125 18.703125 
L 11.1875 0 
L 0.78125 0 
z
" id="DejaVuSans-65"/>
      <path d="M 25.390625 72.90625 
L 33.6875 72.90625 
L 8.296875 -9.28125 
L 0 -9.28125 
z
" id="DejaVuSans-47"/>
     </defs>
     <g transform="translate(70.73 71.874687)scale(0.1 -0.1)">
      <use xlink:href="#DejaVuSans-66"/>
      <use x="68.603516" xlink:href="#DejaVuSans-65"/>
      <use x="135.261719" xlink:href="#DejaVuSans-46"/>
      <use x="167.048828" xlink:href="#DejaVuSans-52"/>
      <use x="230.671875" xlink:href="#DejaVuSans-47"/>
      <use x="264.363281" xlink:href="#DejaVuSans-53"/>
     </g>
    </g>
    <g id="line2d_25">
     <path d="M 42.73 83.052813 
L 62.73 83.052813 
" style="fill:none;stroke:#00008b;stroke-linecap:square;stroke-opacity:0.7;stroke-width:1.5;"/>
    </g>
    <g id="line2d_26"/>
    <g id="text_21">
     <!-- BA.2.12.1 -->
     <g transform="translate(70.73 86.552813)scale(0.1 -0.1)">
      <use xlink:href="#DejaVuSans-66"/>
      <use x="68.603516" xlink:href="#DejaVuSans-65"/>
      <use x="135.261719" xlink:href="#DejaVuSans-46"/>
      <use x="167.048828" xlink:href="#DejaVuSans-50"/>
      <use x="230.671875" xlink:href="#DejaVuSans-46"/>
      <use x="262.458984" xlink:href="#DejaVuSans-49"/>
      <use x="326.082031" xlink:href="#DejaVuSans-50"/>
      <use x="389.705078" xlink:href="#DejaVuSans-46"/>
      <use x="421.492188" xlink:href="#DejaVuSans-49"/>
     </g>
    </g>
    <g id="line2d_27">
     <path d="M 42.73 97.730938 
L 62.73 97.730938 
" style="fill:none;stroke:#00008b;stroke-linecap:square;stroke-opacity:0.75;stroke-width:1.5;"/>
    </g>
    <g id="line2d_28"/>
    <g id="text_22">
     <!-- BA.2.75 -->
     <g transform="translate(70.73 101.230938)scale(0.1 -0.1)">
      <use xlink:href="#DejaVuSans-66"/>
      <use x="68.603516" xlink:href="#DejaVuSans-65"/>
      <use x="135.261719" xlink:href="#DejaVuSans-46"/>
      <use x="167.048828" xlink:href="#DejaVuSans-50"/>
      <use x="230.671875" xlink:href="#DejaVuSans-46"/>
      <use x="262.458984" xlink:href="#DejaVuSans-55"/>
      <use x="326.082031" xlink:href="#DejaVuSans-53"/>
     </g>
    </g>
    <g id="line2d_29">
     <path d="M 42.73 112.409063 
L 62.73 112.409063 
" style="fill:none;stroke:#00008b;stroke-linecap:square;stroke-width:1.5;"/>
    </g>
    <g id="line2d_30"/>
    <g id="text_23">
     <!-- XBB -->
     <defs>
      <path d="M 6.296875 72.90625 
L 16.890625 72.90625 
L 35.015625 45.796875 
L 53.21875 72.90625 
L 63.8125 72.90625 
L 40.375 37.890625 
L 65.375 0 
L 54.78125 0 
L 34.28125 31 
L 13.625 0 
L 2.984375 0 
L 29 38.921875 
z
" id="DejaVuSans-88"/>
     </defs>
     <g transform="translate(70.73 115.909063)scale(0.1 -0.1)">
      <use xlink:href="#DejaVuSans-88"/>
      <use x="68.505859" xlink:href="#DejaVuSans-66"/>
      <use x="137.109375" xlink:href="#DejaVuSans-66"/>
     </g>
    </g>
    <g id="line2d_31">
     <path d="M 42.73 127.087187 
L 62.73 127.087187 
" style="fill:none;stroke:#008000;stroke-linecap:square;stroke-opacity:0.25;stroke-width:1.5;"/>
    </g>
    <g id="line2d_32"/>
    <g id="text_24">
     <!-- Early DMS -->
     <defs>
      <path d="M 9.421875 75.984375 
L 18.40625 75.984375 
L 18.40625 0 
L 9.421875 0 
z
" id="DejaVuSans-108"/>
      <path d="M 32.171875 -5.078125 
Q 28.375 -14.84375 24.75 -17.8125 
Q 21.140625 -20.796875 15.09375 -20.796875 
L 7.90625 -20.796875 
L 7.90625 -13.28125 
L 13.1875 -13.28125 
Q 16.890625 -13.28125 18.9375 -11.515625 
Q 21 -9.765625 23.484375 -3.21875 
L 25.09375 0.875 
L 2.984375 54.6875 
L 12.5 54.6875 
L 29.59375 11.921875 
L 46.6875 54.6875 
L 56.203125 54.6875 
z
" id="DejaVuSans-121"/>
     </defs>
     <g transform="translate(70.73 130.587187)scale(0.1 -0.1)">
      <use xlink:href="#DejaVuSans-69"/>
      <use x="63.183594" xlink:href="#DejaVuSans-97"/>
      <use x="124.462891" xlink:href="#DejaVuSans-114"/>
      <use x="165.576172" xlink:href="#DejaVuSans-108"/>
      <use x="193.359375" xlink:href="#DejaVuSans-121"/>
      <use x="252.539062" xlink:href="#DejaVuSans-32"/>
      <use x="284.326172" xlink:href="#DejaVuSans-68"/>
      <use x="361.328125" xlink:href="#DejaVuSans-77"/>
      <use x="447.607422" xlink:href="#DejaVuSans-83"/>
     </g>
    </g>
    <g id="line2d_33">
     <path d="M 42.73 141.765312 
L 62.73 141.765312 
" style="fill:none;stroke:#008000;stroke-linecap:square;stroke-width:1.5;"/>
    </g>
    <g id="line2d_34"/>
    <g id="text_25">
     <!-- Later DMS -->
     <defs>
      <path d="M 9.8125 72.90625 
L 19.671875 72.90625 
L 19.671875 8.296875 
L 55.171875 8.296875 
L 55.171875 0 
L 9.8125 0 
z
" id="DejaVuSans-76"/>
     </defs>
     <g transform="translate(70.73 145.265312)scale(0.1 -0.1)">
      <use xlink:href="#DejaVuSans-76"/>
      <use x="55.712891" xlink:href="#DejaVuSans-97"/>
      <use x="116.992188" xlink:href="#DejaVuSans-116"/>
      <use x="156.201172" xlink:href="#DejaVuSans-101"/>
      <use x="217.724609" xlink:href="#DejaVuSans-114"/>
      <use x="258.837891" xlink:href="#DejaVuSans-32"/>
      <use x="290.625" xlink:href="#DejaVuSans-68"/>
      <use x="367.626953" xlink:href="#DejaVuSans-77"/>
      <use x="453.90625" xlink:href="#DejaVuSans-83"/>
     </g>
    </g>
    <g id="line2d_35">
     <path d="M 42.73 156.443437 
L 62.73 156.443437 
" style="fill:none;stroke:#008000;stroke-dasharray:5.55,2.4;stroke-dashoffset:0;stroke-width:1.5;"/>
    </g>
    <g id="line2d_36"/>
    <g id="text_26">
     <!-- Random -->
     <g transform="translate(70.73 159.943437)scale(0.1 -0.1)">
      <use xlink:href="#DejaVuSans-82"/>
      <use x="67.232422" xlink:href="#DejaVuSans-97"/>
      <use x="128.511719" xlink:href="#DejaVuSans-110"/>
      <use x="191.890625" xlink:href="#DejaVuSans-100"/>
      <use x="255.367188" xlink:href="#DejaVuSans-111"/>
      <use x="316.548828" xlink:href="#DejaVuSans-109"/>
     </g>
    </g>
   </g>
  </g>
 </g>
 <defs>
  <clipPath id="pc5d7a24950">
   <rect height="207.984209" width="315.284454" x="33.73" y="25.92"/>
  </clipPath>
 </defs>
</svg>
